# Blender 3.6.2
# www.blender.org
mtllib AlloArms.mtl
o Limbs
v -11.069164 -8.730627 51.843987
v -11.069164 -5.160374 53.655415
v -11.069164 5.170475 24.445484
v -11.069164 8.740726 26.256912
v -3.454681 0.389186 33.869205
v -3.454681 -3.949343 42.420269
v -2.197500 -21.703062 40.658356
v -2.197500 -24.462772 46.097630
v -2.826091 -8.039026 30.571215
v -2.826091 -11.588144 37.566383
v -4.189458 0.416852 33.883244
v -4.189458 -3.921677 42.434303
v -3.427171 -11.560479 37.580418
v -3.427171 -8.011360 30.585251
v -5.139017 0.416852 33.883244
v -5.139017 -3.921677 42.434303
v -7.217159 -22.504339 28.146591
v -7.230364 -24.076302 20.461714
v -12.529573 0.416852 33.883244
v -12.529573 -3.921677 42.434303
v -14.315989 -22.504339 28.158791
v -14.329194 -24.076302 20.473911
v -4.936172 -37.208134 41.913513
v -4.936172 -34.985390 49.436020
v -12.035012 -37.208134 41.913513
v -12.035012 -34.985390 49.436020
v -8.436695 -57.050175 29.903400
v -7.571919 -56.792442 37.695343
v -15.492215 -57.050171 30.686449
v -14.627439 -56.792439 38.478386
v -8.418231 -62.101501 30.069769
v -7.553009 -62.047447 37.865730
v -15.473752 -62.101501 30.852814
v -14.608529 -62.047443 38.648777
v -13.919518 -60.780170 19.195181
v -12.620808 -60.780170 19.051046
v -13.901055 -62.238388 19.361547
v -12.602344 -62.238384 19.217413
v -21.824427 -61.101948 25.939342
v -21.707499 -61.050964 26.992899
v -3.445941 -62.326355 24.429890
v -3.527629 -62.336437 23.693848
v -21.821930 -62.101051 25.961838
v -21.704945 -62.090359 27.015940
v -3.447726 -61.345520 24.413805
v -3.529373 -61.393627 23.678139
v 0.000000 5.170475 24.445484
v 0.000000 8.740726 26.256912
v 0.000000 -8.730627 51.843987
v 0.000000 -5.160374 53.655415
v 0.000000 0.389186 33.869205
v 0.000000 -3.949343 42.420269
v 0.000000 -21.703062 40.658356
v 0.000000 -24.462772 46.097630
v 0.000000 -8.039026 30.571215
v 0.000000 -11.588144 37.566383
v 11.069164 -8.730627 51.843987
v 11.069164 -5.160374 53.655415
v 11.069164 5.170475 24.445484
v 11.069164 8.740726 26.256912
v 3.454681 0.389186 33.869205
v 3.454681 -3.949343 42.420269
v 2.197500 -21.703062 40.658356
v 2.197500 -24.462772 46.097630
v 2.826091 -8.039026 30.571215
v 2.826091 -11.588144 37.566383
v 4.189458 0.416852 33.883244
v 4.189458 -3.921677 42.434303
v 3.427171 -11.560479 37.580418
v 3.427171 -8.011360 30.585251
v 5.139017 0.416852 33.883244
v 5.139017 -3.921677 42.434303
v 7.217159 -22.504339 28.146591
v 7.230364 -24.076302 20.461714
v 12.529573 0.416852 33.883244
v 12.529573 -3.921677 42.434303
v 14.315989 -22.504339 28.158791
v 14.329194 -24.076302 20.473911
v 4.936172 -37.208134 41.913513
v 4.936172 -34.985390 49.436020
v 12.035012 -37.208134 41.913513
v 12.035012 -34.985390 49.436020
v 8.436695 -57.050175 29.903400
v 7.571919 -56.792442 37.695343
v 15.492215 -57.050171 30.686449
v 14.627439 -56.792439 38.478386
v 8.418231 -62.101501 30.069769
v 7.553009 -62.047447 37.865730
v 15.473752 -62.101501 30.852814
v 14.608529 -62.047443 38.648777
v 13.919518 -60.780170 19.195181
v 12.620808 -60.780170 19.051046
v 13.901055 -62.238388 19.361547
v 12.602344 -62.238384 19.217413
v 21.824427 -61.101948 25.939342
v 21.707499 -61.050964 26.992899
v 3.445941 -62.326355 24.429890
v 3.527629 -62.336437 23.693848
v 21.821930 -62.101051 25.961838
v 21.704945 -62.090359 27.015940
v 3.447726 -61.345520 24.413805
v 3.529373 -61.393627 23.678139
v -24.086735 -1.942061 -29.798923
v -23.876328 6.348531 -31.814495
v -19.508320 -6.513611 -48.125034
v -19.297913 1.776981 -50.140606
v -19.135168 -1.776990 -28.603046
v -18.924763 6.513605 -30.618618
v -14.556754 -6.348538 -46.929165
v -14.346347 1.942050 -48.944729
v -17.704136 -4.166768 -54.249935
v -18.724001 -7.936528 -48.854076
v -14.799506 -8.101563 -48.227612
v -13.779638 -4.331799 -53.623470
v -16.698992 -17.053589 -52.803020
v -17.493982 -19.992138 -48.596928
v -14.434822 -20.120783 -48.108593
v -13.639832 -17.182236 -52.314693
v -15.994354 -23.204815 -59.969875
v -16.789345 -26.143353 -55.763775
v -13.730185 -26.272003 -55.275440
v -12.935194 -23.333450 -59.481533
v -15.387802 -27.073135 -61.480846
v -15.915633 -29.024178 -58.688236
v -13.884516 -29.109585 -58.364010
v -13.356684 -27.158554 -61.156628
v -15.228831 -32.212811 -60.480877
v -15.536750 -33.350975 -58.851749
v -14.351860 -33.400806 -58.662601
v -14.043940 -32.262642 -60.291744
v -9.742659 -30.898048 -58.523724
v -10.012507 -31.895500 -57.096020
v -9.885729 -32.196426 -59.092312
v -10.064894 -32.858688 -58.144390
v -19.825991 -30.512970 -56.365856
v -20.083916 -31.466328 -55.001240
v -19.629206 -31.767986 -56.856060
v -19.800453 -32.400963 -55.950031
v 24.086729 -1.942061 -29.798923
v 23.876326 6.348533 -31.814495
v 19.508316 -6.513608 -48.125034
v 19.297913 1.776981 -50.140606
v 19.135164 -1.776988 -28.603046
v 18.924761 6.513605 -30.618618
v 14.556750 -6.348538 -46.929165
v 14.346346 1.942050 -48.944729
v 17.704134 -4.166768 -54.249935
v 18.724001 -7.936528 -48.854076
v 14.799501 -8.101563 -48.227612
v 13.779634 -4.331803 -53.623470
v 16.698990 -17.053589 -52.803028
v 17.493980 -19.992138 -48.596928
v 14.434818 -20.120779 -48.108593
v 13.639831 -17.182236 -52.314693
v 15.994354 -23.204815 -59.969875
v 16.789343 -26.143353 -55.763775
v 13.730178 -26.271999 -55.275448
v 12.935193 -23.333450 -59.481533
v 15.387798 -27.073143 -61.480854
v 15.915627 -29.024178 -58.688236
v 13.884512 -29.109585 -58.364010
v 13.356683 -27.158550 -61.156635
v 15.228827 -32.212811 -60.480877
v 15.536749 -33.350983 -58.851757
v 14.351856 -33.400806 -58.662601
v 14.043940 -32.262638 -60.291729
v 9.742654 -30.898048 -58.523724
v 10.012504 -31.895500 -57.096020
v 9.885722 -32.196430 -59.092327
v 10.064890 -32.858685 -58.144390
v 19.825987 -30.512970 -56.365856
v 20.083914 -31.466328 -55.001240
v 19.629204 -31.767986 -56.856060
v 19.800449 -32.400970 -55.950039
vn -1.0000 -0.0000 -0.0000
vn -0.0000 -0.4525 0.8918
vn -0.0000 -0.8918 -0.4525
vn -0.0000 0.8918 0.4525
vn -0.9966 -0.0733 -0.0372
vn -0.0000 0.5524 0.8336
vn -0.0000 -0.5363 0.8440
vn 0.0422 0.8910 0.4521
vn -0.0515 -0.8906 -0.4519
vn 0.3951 0.4032 -0.8254
vn -0.0045 0.3641 -0.9314
vn -0.0045 -0.5366 0.8438
vn -0.2703 -0.5588 0.7840
vn 0.9683 -0.2475 -0.0342
vn -0.9971 0.0743 0.0135
vn -0.0007 0.4804 -0.8770
vn 0.0007 -0.6094 0.7929
vn 0.9914 -0.1258 -0.0356
vn -0.9915 0.1250 0.0357
vn 0.9918 0.1241 -0.0318
vn 0.0004 0.8626 0.5058
vn -0.9918 -0.1241 0.0318
vn -0.0004 -0.8528 -0.5222
vn 0.1102 0.0326 0.9934
vn -0.0475 0.5109 -0.8583
vn 0.0489 -0.4657 0.8836
vn 0.0008 -1.0000 0.0068
vn 0.5881 0.8033 -0.0941
vn 0.0013 -0.9999 0.0121
vn -0.1096 -0.1140 -0.9874
vn -0.9910 -0.0124 -0.1335
vn 0.9337 -0.0130 -0.3577
vn -0.0347 0.9492 -0.3128
vn -0.9939 -0.0000 0.1103
vn 0.6095 -0.0226 -0.7924
vn -0.8535 0.0131 0.5209
vn -0.5546 0.8315 0.0325
vn -0.0068 -0.9999 0.0081
vn -0.0000 0.3644 -0.9312
vn -0.0000 -0.5939 -0.8045
vn 0.9562 0.0119 0.2924
vn -0.0326 -0.9994 0.0111
vn -0.7930 -0.0212 -0.6089
vn 0.9939 -0.0000 -0.1103
vn -0.0000 0.4525 -0.8918
vn 1.0000 -0.0000 -0.0000
vn 0.9966 -0.0733 -0.0372
vn -0.0422 0.8910 0.4521
vn 0.0515 -0.8906 -0.4519
vn -0.3951 0.4032 -0.8254
vn 0.0045 0.3641 -0.9314
vn 0.0045 -0.5366 0.8438
vn 0.2703 -0.5588 0.7840
vn -0.9683 -0.2475 -0.0342
vn 0.9971 0.0743 0.0135
vn 0.0007 0.4804 -0.8770
vn -0.0007 -0.6094 0.7929
vn -0.9914 -0.1258 -0.0356
vn 0.9915 0.1250 0.0357
vn -0.9918 0.1241 -0.0318
vn -0.0004 0.8626 0.5058
vn 0.9918 -0.1241 0.0318
vn 0.0004 -0.8528 -0.5222
vn -0.1102 0.0326 0.9934
vn 0.0475 0.5109 -0.8583
vn -0.0489 -0.4657 0.8836
vn -0.0008 -1.0000 0.0068
vn -0.5881 0.8033 -0.0941
vn -0.0013 -0.9999 0.0121
vn 0.1096 -0.1140 -0.9874
vn 0.9910 -0.0124 -0.1335
vn -0.9337 -0.0130 -0.3577
vn 0.0347 0.9492 -0.3128
vn 0.9939 -0.0000 0.1103
vn -0.6095 -0.0226 -0.7924
vn 0.8535 0.0131 0.5209
vn 0.5546 0.8315 0.0325
vn 0.0068 -0.9999 0.0081
vn -0.9562 0.0119 0.2924
vn 0.0326 -0.9994 0.0111
vn 0.7930 -0.0212 -0.6089
vn -0.9939 -0.0000 -0.1103
vn -0.9715 -0.0324 -0.2346
vn 0.9939 -0.0374 0.1041
vn 0.9715 0.0324 0.2346
vn -0.2356 0.2352 0.9430
vn -0.0247 -0.9714 0.2362
vn 0.0247 0.9714 -0.2362
vn 0.9778 0.0317 0.2070
vn -0.1679 -0.5506 0.8177
vn 0.1616 0.5949 -0.7874
vn -0.9439 -0.0975 -0.3154
vn -0.1337 -0.7585 0.6378
vn -0.1574 0.0050 0.9875
vn 0.1528 -0.0985 -0.9833
vn -0.9616 -0.1035 -0.2541
vn 0.1613 0.3809 -0.9104
vn 0.1337 0.7585 -0.6378
vn -0.9875 0.0575 -0.1465
vn 0.9875 -0.0575 0.1465
vn 0.9877 -0.1150 0.1064
vn -0.7869 0.1135 -0.6065
vn -0.5971 -0.5756 0.5587
vn -0.1381 -0.7259 0.6738
vn 0.0555 -0.8234 -0.5648
vn -0.1595 -0.0512 0.9859
vn 0.1474 -0.1845 -0.9717
vn -0.9688 -0.0759 -0.2361
vn 0.9857 -0.1456 0.0846
vn -0.5740 -0.6164 -0.5391
vn 0.8108 0.3967 0.4304
vn 0.7106 0.2151 -0.6699
vn -0.9716 -0.0633 -0.2279
vn -0.8150 0.5360 0.2204
vn 0.7276 -0.3674 0.5793
vn 0.3470 -0.7983 -0.4922
vn 0.9715 -0.0324 -0.2346
vn -0.9939 -0.0374 0.1041
vn -0.9715 0.0324 0.2346
vn 0.2356 0.2352 0.9430
vn 0.0247 -0.9714 0.2362
vn -0.0247 0.9714 -0.2362
vn -0.9778 0.0317 0.2070
vn 0.1679 -0.5506 0.8177
vn -0.1616 0.5949 -0.7874
vn 0.9439 -0.0975 -0.3154
vn 0.1337 -0.7585 0.6378
vn 0.1574 0.0050 0.9875
vn -0.1528 -0.0985 -0.9833
vn 0.9616 -0.1035 -0.2541
vn -0.1613 0.3809 -0.9104
vn -0.1337 0.7585 -0.6378
vn 0.9875 0.0575 -0.1465
vn -0.9875 -0.0575 0.1465
vn -0.9877 -0.1150 0.1064
vn 0.7869 0.1135 -0.6065
vn 0.5971 -0.5756 0.5587
vn 0.1381 -0.7259 0.6738
vn -0.0555 -0.8234 -0.5648
vn 0.1595 -0.0512 0.9859
vn -0.1474 -0.1845 -0.9717
vn 0.9688 -0.0759 -0.2361
vn -0.9857 -0.1456 0.0846
vn 0.5740 -0.6164 -0.5391
vn -0.8108 0.3967 0.4304
vn -0.7106 0.2151 -0.6699
vn 0.9716 -0.0633 -0.2279
vn 0.8150 0.5360 0.2204
vn -0.7276 -0.3674 0.5793
vn -0.3470 -0.7983 -0.4922
vt 0.375000 0.000000
vt 0.625000 0.000000
vt 0.625000 0.250000
vt 0.375000 0.250000
vt 0.375000 0.875000
vt 0.625000 0.875000
vt 0.625000 1.000000
vt 0.375000 1.000000
vt 0.750000 0.500000
vt 0.875000 0.500000
vt 0.875000 0.750000
vt 0.750000 0.750000
vt 0.375000 0.375000
vt 0.125000 0.500000
vt 0.250000 0.500000
vt 0.250000 0.750000
vt 0.125000 0.750000
vt 0.625000 0.375000
vt 0.625000 0.500000
vt 0.375000 0.500000
vt 0.625000 0.750000
vt 0.375000 0.750000
s 0
f 1/1/1 2/2/1 4/3/1 3/4/1
f 49/5/2 50/6/2 2/7/2 1/8/2
f 49/5/3 1/8/3 6/8/3 52/5/3
f 48/9/4 4/10/4 2/11/4 50/12/4
f 1/1/3 3/4/3 5/4/3 6/1/3
f 10/1/5 9/4/5 7/4/5 8/1/5
f 56/5/6 10/8/6 8/8/6 54/5/6
f 52/5/7 6/8/7 10/8/7 56/5/7
f 6/1/8 5/4/8 11/4/8 12/1/8
f 9/4/9 10/1/9 13/1/9 14/4/9
f 11/4/10 14/4/10 18/4/10 15/4/10
f 5/4/11 9/4/11 14/4/11 11/4/11
f 10/8/12 6/8/12 12/8/12 13/8/12
f 13/8/13 12/8/13 16/8/13 17/8/13
f 14/4/14 13/1/14 17/1/14 18/4/14
f 12/1/4 11/4/4 15/4/4 16/1/4
f 20/1/15 19/4/15 22/4/15 21/1/15
f 16/1/4 15/4/4 19/4/4 20/1/4
f 15/4/16 18/4/16 22/4/16 19/4/16
f 17/8/17 16/8/17 20/8/17 21/8/17
f 23/4/18 24/1/18 28/1/18 27/4/18
f 26/1/19 25/4/19 29/4/19 30/1/19
f 18/4/20 17/1/20 24/1/20 23/4/20
f 17/8/21 21/8/21 26/8/21 24/8/21
f 21/1/22 22/4/22 25/4/22 26/1/22
f 22/4/23 18/4/23 23/4/23 25/4/23
f 28/8/24 30/8/24 34/8/24 32/8/24
f 25/4/25 23/4/25 27/4/25 29/4/25
f 24/8/26 26/8/26 30/8/26 28/8/26
f 31/4/27 32/1/27 34/1/27 33/4/27
f 27/4/28 28/1/28 45/1/28 46/4/28
f 31/4/29 33/4/29 37/4/29 38/4/29
f 35/4/30 36/4/30 38/4/30 37/4/30
f 33/4/31 29/4/31 35/4/31 37/4/31
f 27/4/32 31/4/32 38/4/32 36/4/32
f 29/4/33 27/4/33 36/4/33 35/4/33
f 40/1/34 39/4/34 43/4/34 44/1/34
f 29/4/35 33/4/35 43/4/35 39/4/35
f 34/8/36 30/8/36 40/8/36 44/8/36
f 30/1/37 29/4/37 39/4/37 40/1/37
f 33/4/38 34/1/38 44/1/38 43/4/38
f 5/4/39 51/13/39 55/13/39 9/4/39
f 9/4/40 55/13/40 53/13/40 7/4/40
f 28/8/41 32/8/41 41/8/41 45/8/41
f 7/14/3 53/15/3 54/16/3 8/17/3
f 3/4/3 47/13/3 51/13/3 5/4/3
f 32/1/42 31/4/42 42/4/42 41/1/42
f 31/4/43 27/4/43 46/4/43 42/4/43
f 46/4/44 45/1/44 41/1/44 42/4/44
f 3/4/45 4/3/45 48/18/45 47/13/45
f 57/1/46 59/4/46 60/3/46 58/2/46
f 49/5/2 57/8/2 58/7/2 50/6/2
f 49/5/3 52/5/3 62/8/3 57/8/3
f 48/9/4 50/12/4 58/11/4 60/10/4
f 57/1/3 62/1/3 61/4/3 59/4/3
f 66/1/47 64/1/47 63/4/47 65/4/47
f 56/5/6 54/5/6 64/8/6 66/8/6
f 52/5/7 56/5/7 66/8/7 62/8/7
f 62/1/48 68/1/48 67/4/48 61/4/48
f 65/4/49 70/4/49 69/1/49 66/1/49
f 67/4/50 71/4/50 74/4/50 70/4/50
f 61/4/51 67/4/51 70/4/51 65/4/51
f 66/8/52 69/8/52 68/8/52 62/8/52
f 69/8/53 73/8/53 72/8/53 68/8/53
f 70/4/54 74/4/54 73/1/54 69/1/54
f 68/1/4 72/1/4 71/4/4 67/4/4
f 76/1/55 77/1/55 78/4/55 75/4/55
f 72/1/4 76/1/4 75/4/4 71/4/4
f 71/4/56 75/4/56 78/4/56 74/4/56
f 73/8/57 77/8/57 76/8/57 72/8/57
f 79/4/58 83/4/58 84/1/58 80/1/58
f 82/1/59 86/1/59 85/4/59 81/4/59
f 74/4/60 79/4/60 80/1/60 73/1/60
f 73/8/61 80/8/61 82/8/61 77/8/61
f 77/1/62 82/1/62 81/4/62 78/4/62
f 78/4/63 81/4/63 79/4/63 74/4/63
f 84/8/64 88/8/64 90/8/64 86/8/64
f 81/4/65 85/4/65 83/4/65 79/4/65
f 80/8/66 84/8/66 86/8/66 82/8/66
f 87/4/67 89/4/67 90/1/67 88/1/67
f 83/4/68 102/4/68 101/1/68 84/1/68
f 87/4/69 94/4/69 93/4/69 89/4/69
f 91/4/70 93/4/70 94/4/70 92/4/70
f 89/4/71 93/4/71 91/4/71 85/4/71
f 83/4/72 92/4/72 94/4/72 87/4/72
f 85/4/73 91/4/73 92/4/73 83/4/73
f 96/1/74 100/1/74 99/4/74 95/4/74
f 85/4/75 95/4/75 99/4/75 89/4/75
f 90/8/76 100/8/76 96/8/76 86/8/76
f 86/1/77 96/1/77 95/4/77 85/4/77
f 89/4/78 99/4/78 100/1/78 90/1/78
f 61/4/39 65/4/39 55/13/39 51/13/39
f 65/4/40 63/4/40 53/13/40 55/13/40
f 84/8/79 101/8/79 97/8/79 88/8/79
f 63/14/3 64/17/3 54/16/3 53/15/3
f 59/4/3 61/4/3 51/13/3 47/13/3
f 88/1/80 97/1/80 98/4/80 87/4/80
f 87/4/81 98/4/81 102/4/81 83/4/81
f 102/4/82 98/4/82 97/1/82 101/1/82
f 59/4/45 47/13/45 48/18/45 60/3/45
f 103/1/83 104/2/83 106/3/83 105/4/83
f 110/19/84 109/20/84 113/20/84 114/19/84
f 109/20/85 110/19/85 108/21/85 107/22/85
f 107/22/86 108/21/86 104/7/86 103/8/86
f 105/14/87 109/20/87 107/22/87 103/17/87
f 110/19/88 106/10/88 104/11/88 108/21/88
f 114/19/89 113/20/89 117/20/89 118/19/89
f 109/20/90 105/14/90 112/14/90 113/20/90
f 106/10/91 110/19/91 114/19/91 111/10/91
f 105/4/92 106/3/92 111/3/92 112/4/92
f 117/20/93 116/14/93 120/14/93 121/20/93
f 113/20/94 112/14/94 116/14/94 117/20/94
f 111/10/95 114/19/95 118/19/95 115/10/95
f 112/4/96 111/3/96 115/3/96 116/4/96
f 119/10/97 122/19/97 126/19/97 123/10/97
f 115/10/98 118/19/98 122/19/98 119/10/98
f 116/4/99 115/3/99 119/3/99 120/4/99
f 118/19/100 117/20/100 121/20/100 122/19/100
f 126/19/101 125/20/101 129/20/101 130/19/101
f 119/10/102 123/10/102 137/10/102 135/10/102
f 121/20/103 125/20/103 134/20/103 132/20/103
f 121/20/104 120/14/104 124/14/104 125/20/104
f 128/4/105 127/3/105 130/19/105 129/20/105
f 125/20/106 124/14/106 128/14/106 129/20/106
f 123/10/107 126/19/107 130/19/107 127/10/107
f 124/4/108 123/3/108 127/3/108 128/4/108
f 131/19/109 132/20/109 134/20/109 133/19/109
f 125/20/110 126/19/110 133/19/110 134/20/110
f 122/19/111 121/20/111 132/20/111 131/19/111
f 126/19/112 122/19/112 131/19/112 133/19/112
f 136/4/113 135/3/113 137/3/113 138/4/113
f 120/4/114 119/3/114 135/3/114 136/4/114
f 124/14/115 120/14/115 136/14/115 138/14/115
f 123/3/116 124/4/116 138/4/116 137/3/116
f 139/1/117 141/4/117 142/3/117 140/2/117
f 146/19/118 150/19/118 149/20/118 145/20/118
f 145/20/119 143/22/119 144/21/119 146/19/119
f 143/22/120 139/8/120 140/7/120 144/21/120
f 141/14/121 139/17/121 143/22/121 145/20/121
f 146/19/122 144/21/122 140/11/122 142/10/122
f 150/19/123 154/19/123 153/20/123 149/20/123
f 145/20/124 149/20/124 148/14/124 141/14/124
f 142/10/125 147/10/125 150/19/125 146/19/125
f 141/4/126 148/4/126 147/3/126 142/3/126
f 153/20/127 157/20/127 156/14/127 152/14/127
f 149/20/128 153/20/128 152/14/128 148/14/128
f 147/10/129 151/10/129 154/19/129 150/19/129
f 148/4/130 152/4/130 151/3/130 147/3/130
f 155/10/131 159/10/131 162/19/131 158/19/131
f 151/10/132 155/10/132 158/19/132 154/19/132
f 152/4/133 156/4/133 155/3/133 151/3/133
f 154/19/134 158/19/134 157/20/134 153/20/134
f 162/19/135 166/19/135 165/20/135 161/20/135
f 155/10/136 171/10/136 173/10/136 159/10/136
f 157/20/137 168/20/137 170/20/137 161/20/137
f 157/20/138 161/20/138 160/14/138 156/14/138
f 164/4/139 165/20/139 166/19/139 163/3/139
f 161/20/140 165/20/140 164/14/140 160/14/140
f 159/10/141 163/10/141 166/19/141 162/19/141
f 160/4/142 164/4/142 163/3/142 159/3/142
f 167/19/143 169/19/143 170/20/143 168/20/143
f 161/20/144 170/20/144 169/19/144 162/19/144
f 158/19/145 167/19/145 168/20/145 157/20/145
f 162/19/146 169/19/146 167/19/146 158/19/146
f 172/4/147 174/4/147 173/3/147 171/3/147
f 156/4/148 172/4/148 171/3/148 155/3/148
f 160/14/149 174/14/149 172/14/149 156/14/149
f 159/3/150 173/3/150 174/4/150 160/4/150
