# Blender 3.6.2
# www.blender.org
mtllib DiploArms.mtl
o DiploLegs
v -24.086733 -1.942055 -29.798927
v -23.876328 6.348536 -31.814495
v -19.508318 -10.998900 -48.125038
v -19.297913 -2.708309 -50.140606
v -19.135166 -1.776985 -28.603054
v -18.924761 6.513606 -30.618622
v -14.556751 -10.833830 -46.929165
v -14.346346 -2.543239 -48.944733
v -20.309519 -12.979438 -53.619930
v -21.329384 -12.879469 -47.038406
v -14.799503 -12.646763 -46.433804
v -13.779638 -12.746732 -53.015327
v -19.368160 -34.743805 -49.142433
v -20.191916 -35.283115 -40.689476
v -14.416677 -35.135616 -39.773994
v -13.592924 -34.596302 -48.226952
v -17.423307 -57.567497 -51.582775
v -18.247063 -58.106808 -44.616817
v -12.471827 -57.959305 -43.701336
v -11.648071 -57.419994 -50.667297
v -17.176189 -60.220222 -52.996334
v -17.927547 -59.616848 -46.492188
v -13.797981 -59.518917 -45.884163
v -13.046623 -60.122288 -52.388321
v -17.264376 -62.119335 -58.529968
v -17.583435 -62.328228 -55.255932
v -14.330717 -62.271099 -54.901142
v -14.011654 -62.062214 -58.175194
v -8.853273 -62.557743 -54.401520
v -9.061787 -62.692085 -51.523537
v -10.463614 -62.476250 -55.012875
v -10.602057 -62.565449 -53.102047
v -21.721096 -61.822567 -54.445427
v -21.603218 -62.119450 -51.702988
v -20.194445 -61.926552 -54.935108
v -20.116169 -62.123669 -53.114277
v -11.069165 -2.284853 54.371761
v -11.069163 1.717937 54.446949
v -11.069166 -1.707838 23.653931
v -11.069164 2.294952 23.729115
v -3.454682 0.389185 33.869198
v -3.454680 -3.949343 42.420254
v -2.197500 -17.032587 42.564426
v -2.197500 -19.792299 48.003704
v -2.826092 -8.039024 30.571209
v -2.826092 -11.588142 37.566372
v -4.189459 0.416851 33.883236
v -4.189459 -3.921675 42.434292
v -3.427171 -11.560478 37.580410
v -3.427174 -8.011358 30.585247
v -5.139019 0.416853 33.883236
v -5.139016 -3.921679 42.434299
v -7.217160 -22.504339 34.450718
v -7.230366 -24.076302 26.765835
v -12.529573 0.416853 33.883236
v -12.529574 -3.921677 42.434292
v -14.315990 -22.504337 34.462910
v -14.329195 -24.076298 26.778034
v -4.936172 -40.851479 32.463451
v -4.936172 -38.628738 39.985950
v -12.035013 -40.851479 32.463451
v -12.035013 -38.628738 39.985950
v -8.436697 -57.050171 29.903393
v -7.571918 -56.792446 37.695332
v -15.492217 -57.050163 30.686436
v -14.627441 -56.792435 38.478374
v -8.418230 -62.101498 30.069759
v -7.553008 -62.047440 37.865719
v -15.473753 -62.101498 30.852802
v -14.608530 -62.047440 38.648769
v -13.919518 -60.780167 22.850132
v -12.620810 -60.780167 22.706001
v -13.901056 -62.238384 23.016499
v -12.602344 -62.238388 22.872364
v -21.824427 -61.101940 30.096256
v -21.707500 -61.050964 31.149815
v -3.445941 -62.326351 28.586803
v -3.527628 -62.336441 27.850758
v -21.821930 -62.101051 30.118755
v -21.704947 -62.090359 31.172848
v -3.447727 -61.345516 28.570713
v -3.529373 -61.393627 27.835049
v 0.000000 -1.707839 23.653927
v 0.000002 2.294953 23.729118
v 0.000002 -2.284849 54.371754
v 0.000000 1.717936 54.446941
v -0.000002 0.389187 33.869205
v -0.000004 -3.949343 42.420254
v 0.000000 -17.032589 42.564426
v 0.000000 -19.792303 48.003696
v -0.000004 -8.039023 30.571209
v -0.000002 -11.588140 37.566372
v 24.086733 -1.942054 -29.798923
v 23.876326 6.348537 -31.814491
v 19.508318 -10.998899 -48.125031
v 19.297911 -2.708308 -50.140602
v 19.135164 -1.776985 -28.603050
v 18.924761 6.513607 -30.618618
v 14.556746 -10.833828 -46.929161
v 14.346342 -2.543238 -48.944729
v 20.309519 -12.979438 -53.619923
v 21.329382 -12.879468 -47.038399
v 14.799501 -12.646762 -46.433800
v 13.779638 -12.746731 -53.015320
v 19.368158 -34.743805 -49.142426
v 20.191912 -35.283112 -40.689472
v 14.416681 -35.135612 -39.773991
v 13.592924 -34.596298 -48.226944
v 17.423307 -57.567493 -51.582771
v 18.247061 -58.106804 -44.616814
v 12.471827 -57.959297 -43.701332
v 11.648069 -57.419991 -50.667290
v 17.176188 -60.220215 -52.996330
v 17.927546 -59.616848 -46.492184
v 13.797979 -59.518913 -45.884159
v 13.046621 -60.122284 -52.388313
v 17.264376 -62.119335 -58.529961
v 17.583433 -62.328224 -55.255924
v 14.330717 -62.271095 -54.901138
v 14.011652 -62.062210 -58.175194
v 8.853273 -62.557739 -54.401516
v 9.061785 -62.692081 -51.523529
v 10.463615 -62.476250 -55.012871
v 10.602057 -62.565445 -53.102043
v 21.721098 -61.822563 -54.445423
v 21.603216 -62.119438 -51.702984
v 20.194445 -61.926552 -54.935104
v 20.116163 -62.123665 -53.114273
v 11.069160 -2.284851 54.371754
v 11.069159 1.717937 54.446934
v 11.069162 -1.707836 23.653927
v 11.069162 2.294951 23.729115
v 3.454681 0.389185 33.869183
v 3.454679 -3.949341 42.420254
v 2.197495 -17.032589 42.564426
v 2.197496 -19.792297 48.003689
v 2.826090 -8.039025 30.571201
v 2.826090 -11.588144 37.566372
v 4.189459 0.416851 33.883228
v 4.189455 -3.921677 42.434284
v 3.427166 -11.560478 37.580410
v 3.427168 -8.011360 30.585247
v 5.139015 0.416852 33.883236
v 5.139017 -3.921677 42.434292
v 7.217161 -22.504337 34.450710
v 7.230362 -24.076298 26.765835
v 12.529568 0.416852 33.883228
v 12.529568 -3.921677 42.434284
v 14.315992 -22.504332 34.462902
v 14.329191 -24.076294 26.778034
v 4.936171 -40.851479 32.463451
v 4.936169 -38.628742 39.985943
v 12.035013 -40.851479 32.463444
v 12.035013 -38.628742 39.985935
v 8.436697 -57.050175 29.903385
v 7.571918 -56.792454 37.695332
v 15.492216 -57.050167 30.686428
v 14.627432 -56.792435 38.478367
v 8.418236 -62.101501 30.069744
v 7.553005 -62.047440 37.865704
v 15.473753 -62.101501 30.852795
v 14.608530 -62.047440 38.648762
v 13.919519 -60.780174 22.850124
v 12.620810 -60.780170 22.705997
v 13.901052 -62.238392 23.016499
v 12.602341 -62.238380 22.872360
v 21.824430 -61.101944 30.096249
v 21.707499 -61.050964 31.149807
v 3.445940 -62.326355 28.586796
v 3.527626 -62.336441 27.850758
v 21.821928 -62.101051 30.118740
v 21.704947 -62.090347 31.172848
v 3.447721 -61.345520 28.570713
v 3.529375 -61.393627 27.835049
vn -0.9732 -0.0307 -0.2279
vn 0.9914 -0.0121 0.1304
vn 0.9732 0.0307 0.2279
vn -0.2356 0.2352 0.9430
vn -0.0731 -0.9012 0.4271
vn 0.0731 0.9012 -0.4271
vn 0.9914 0.0445 0.1229
vn -0.1531 0.4601 0.8746
vn 0.1342 0.3403 -0.9307
vn -0.9746 0.2144 0.0648
vn -0.1495 -0.1800 0.9722
vn -0.1263 0.2722 0.9539
vn 0.1262 -0.2030 -0.9710
vn -0.9894 -0.0769 -0.1236
vn 0.1215 0.4818 -0.8678
vn 0.1525 0.1179 -0.9812
vn -0.9914 -0.0690 -0.1108
vn 0.9914 0.0690 0.1108
vn 0.7907 -0.6021 0.1108
vn 0.0496 0.5889 -0.8067
vn -0.1022 -0.9012 0.4212
vn -0.0749 -0.7863 0.6133
vn 0.0242 -0.9978 -0.0613
vn -0.0183 -0.9557 0.2938
vn 0.0222 0.9462 -0.3229
vn -0.9448 0.3066 -0.1158
vn -0.0319 -0.9983 -0.0489
vn -0.7112 -0.7022 -0.0323
vn 0.8987 0.4209 0.1230
vn 0.0167 0.6540 -0.7564
vn -0.1004 -0.9896 -0.1028
vn -0.7366 0.6763 0.0047
vn 0.0141 -0.9052 0.4248
vn 0.5391 -0.8380 0.0845
vn -1.0000 -0.0000 -0.0000
vn -0.0000 -0.0188 0.9998
vn -0.0000 -0.9904 0.1379
vn -0.0000 0.9998 0.0188
vn 0.0140 -0.9922 -0.1242
vn -0.9719 -0.2100 -0.1066
vn -0.0000 0.7862 0.6180
vn -0.0000 -0.5363 0.8440
vn 0.0422 0.8910 0.4521
vn -0.0515 -0.8906 -0.4519
vn -0.2806 0.2998 -0.9118
vn -0.0045 0.3641 -0.9314
vn -0.0045 -0.5366 0.8438
vn 0.4272 -0.4148 0.8034
vn 0.9644 -0.2618 -0.0361
vn -0.0000 0.8918 0.4525
vn -0.9968 0.0780 0.0141
vn -0.0008 0.2789 -0.9603
vn 0.0008 -0.3946 0.9189
vn 0.9847 -0.1719 -0.0278
vn -0.9849 0.1707 0.0280
vn 0.9914 0.1268 -0.0325
vn 0.0008 0.3245 0.9459
vn -0.9914 -0.1268 0.0325
vn -0.0008 -0.3214 -0.9469
vn 0.1102 0.0326 0.9934
vn -0.0547 0.1440 -0.9881
vn 0.0549 -0.1116 0.9922
vn 0.0008 -1.0000 0.0068
vn 0.6342 0.7670 -0.0979
vn 0.0020 -0.9998 0.0179
vn -0.1096 -0.1140 -0.9874
vn -0.9811 -0.0154 -0.1931
vn 0.8667 -0.0206 -0.4983
vn -0.0485 0.8981 -0.4372
vn -0.9939 -0.0000 0.1103
vn 0.1135 -0.0306 -0.9931
vn -0.7248 0.0187 0.6887
vn -0.5394 0.8415 0.0305
vn -0.0014 -1.0000 0.0075
vn -0.0000 0.3644 -0.9312
vn -0.0000 -0.8000 -0.5999
vn 0.9142 0.0151 0.4049
vn -0.0000 -0.8918 -0.4525
vn -0.0000 -0.9796 0.2011
vn -0.0416 -0.9991 0.0121
vn -0.4121 -0.0291 -0.9107
vn 0.9939 -0.0000 -0.1103
vn -0.0000 0.0188 -0.9998
vn 0.9732 -0.0307 -0.2279
vn -0.9914 -0.0121 0.1304
vn -0.9732 0.0307 0.2279
vn 0.2356 0.2352 0.9430
vn 0.0731 -0.9012 0.4271
vn -0.0731 0.9012 -0.4271
vn -0.9914 0.0445 0.1229
vn 0.1531 0.4601 0.8746
vn -0.1342 0.3403 -0.9307
vn 0.9746 0.2144 0.0648
vn 0.1495 -0.1800 0.9722
vn 0.1263 0.2722 0.9539
vn -0.1262 -0.2030 -0.9710
vn 0.9894 -0.0769 -0.1236
vn -0.1215 0.4818 -0.8678
vn -0.1525 0.1179 -0.9812
vn 0.9914 -0.0690 -0.1108
vn -0.9914 0.0690 0.1108
vn -0.7907 -0.6021 0.1108
vn -0.0496 0.5889 -0.8067
vn 0.1022 -0.9012 0.4212
vn 0.0749 -0.7863 0.6133
vn -0.0242 -0.9978 -0.0613
vn 0.0183 -0.9557 0.2938
vn -0.0222 0.9462 -0.3229
vn 0.9448 0.3066 -0.1158
vn 0.0319 -0.9983 -0.0489
vn 0.7112 -0.7022 -0.0323
vn -0.8987 0.4209 0.1230
vn -0.0167 0.6540 -0.7564
vn 0.1004 -0.9896 -0.1028
vn 0.7366 0.6763 0.0047
vn -0.0141 -0.9052 0.4248
vn -0.5391 -0.8380 0.0845
vn 1.0000 -0.0000 -0.0000
vn -0.0140 -0.9922 -0.1242
vn 0.9719 -0.2100 -0.1066
vn -0.0422 0.8910 0.4521
vn 0.0515 -0.8906 -0.4519
vn 0.2806 0.2998 -0.9118
vn 0.0045 0.3641 -0.9314
vn 0.0045 -0.5366 0.8438
vn -0.4272 -0.4148 0.8034
vn -0.9644 -0.2618 -0.0361
vn 0.9968 0.0780 0.0141
vn 0.0008 0.2789 -0.9603
vn -0.0008 -0.3946 0.9189
vn -0.9847 -0.1719 -0.0278
vn 0.9849 0.1707 0.0280
vn -0.9914 0.1268 -0.0325
vn -0.0008 0.3245 0.9459
vn 0.9914 -0.1268 0.0325
vn 0.0008 -0.3214 -0.9469
vn -0.1102 0.0326 0.9934
vn 0.0547 0.1440 -0.9881
vn -0.0549 -0.1116 0.9922
vn -0.0008 -1.0000 0.0069
vn -0.6342 0.7670 -0.0979
vn -0.0020 -0.9998 0.0179
vn 0.1096 -0.1140 -0.9874
vn 0.9811 -0.0154 -0.1931
vn -0.8667 -0.0206 -0.4983
vn 0.0485 0.8981 -0.4372
vn 0.9939 -0.0000 0.1103
vn -0.1135 -0.0306 -0.9931
vn 0.7248 0.0187 0.6887
vn 0.5394 0.8415 0.0305
vn 0.0014 -1.0000 0.0075
vn -0.9142 0.0151 0.4049
vn 0.0416 -0.9991 0.0121
vn 0.4121 -0.0291 -0.9107
vn -0.9939 -0.0000 -0.1103
vt 0.375000 0.000000
vt 0.625000 0.000000
vt 0.625000 0.250000
vt 0.375000 0.250000
vt 0.625000 0.500000
vt 0.375000 0.500000
vt 0.625000 0.750000
vt 0.375000 0.750000
vt 0.625000 1.000000
vt 0.375000 1.000000
vt 0.125000 0.500000
vt 0.125000 0.750000
vt 0.875000 0.500000
vt 0.875000 0.750000
vt 0.375000 0.875000
vt 0.625000 0.875000
vt 0.750000 0.500000
vt 0.750000 0.750000
vt 0.375000 0.375000
vt 0.250000 0.500000
vt 0.250000 0.750000
vt 0.625000 0.375000
s 0
f 1/1/1 2/2/1 4/3/1 3/4/1
f 8/5/2 7/6/2 11/6/2 12/5/2
f 7/6/3 8/5/3 6/7/3 5/8/3
f 5/8/4 6/7/4 2/9/4 1/10/4
f 3/11/5 7/6/5 5/8/5 1/12/5
f 8/5/6 4/13/6 2/14/6 6/7/6
f 12/5/7 11/6/7 15/6/7 16/5/7
f 7/6/8 3/11/8 10/11/8 11/6/8
f 4/13/9 8/5/9 12/5/9 9/13/9
f 3/4/10 4/3/10 9/3/10 10/4/10
f 15/6/11 14/11/11 18/11/11 19/6/11
f 11/6/12 10/11/12 14/11/12 15/6/12
f 9/13/13 12/5/13 16/5/13 13/13/13
f 10/4/14 9/3/14 13/3/14 14/4/14
f 17/13/15 20/5/15 24/5/15 21/13/15
f 13/13/16 16/5/16 20/5/16 17/13/16
f 14/4/17 13/3/17 17/3/17 18/4/17
f 16/5/18 15/6/18 19/6/18 20/5/18
f 24/5/19 23/6/19 27/6/19 28/5/19
f 17/13/20 21/13/20 35/13/20 33/13/20
f 19/6/21 23/6/21 32/6/21 30/6/21
f 19/6/22 18/11/22 22/11/22 23/6/22
f 26/4/23 25/3/23 28/5/23 27/6/23
f 23/6/24 22/11/24 26/11/24 27/6/24
f 21/13/25 24/5/25 28/5/25 25/13/25
f 22/4/26 21/3/26 25/3/26 26/4/26
f 29/5/27 30/6/27 32/6/27 31/5/27
f 23/6/28 24/5/28 31/5/28 32/6/28
f 20/5/29 19/6/29 30/6/29 29/5/29
f 24/5/30 20/5/30 29/5/30 31/5/30
f 34/4/31 33/3/31 35/3/31 36/4/31
f 18/4/32 17/3/32 33/3/32 34/4/32
f 22/11/33 18/11/33 34/11/33 36/11/33
f 21/3/34 22/4/34 36/4/34 35/3/34
f 37/1/35 38/2/35 40/3/35 39/4/35
f 85/15/36 86/16/36 38/9/36 37/10/36
f 85/15/37 37/10/37 42/10/37 88/15/37
f 84/17/38 40/13/38 38/14/38 86/18/38
f 37/1/39 39/4/39 41/4/39 42/1/39
f 46/1/40 45/4/40 43/4/40 44/1/40
f 92/15/41 46/10/41 44/10/41 90/15/41
f 88/15/42 42/10/42 46/10/42 92/15/42
f 42/1/43 41/4/43 47/4/43 48/1/43
f 45/4/44 46/1/44 49/1/44 50/4/44
f 47/4/45 50/4/45 54/4/45 51/4/45
f 41/4/46 45/4/46 50/4/46 47/4/46
f 46/10/47 42/10/47 48/10/47 49/10/47
f 49/10/48 48/10/48 52/10/48 53/10/48
f 50/4/49 49/1/49 53/1/49 54/4/49
f 48/1/50 47/4/50 51/4/50 52/1/50
f 56/1/51 55/4/51 58/4/51 57/1/51
f 52/1/50 51/4/50 55/4/50 56/1/50
f 51/4/52 54/4/52 58/4/52 55/4/52
f 53/10/53 52/10/53 56/10/53 57/10/53
f 59/4/54 60/1/54 64/1/54 63/4/54
f 62/1/55 61/4/55 65/4/55 66/1/55
f 54/4/56 53/1/56 60/1/56 59/4/56
f 53/10/57 57/10/57 62/10/57 60/10/57
f 57/1/58 58/4/58 61/4/58 62/1/58
f 58/4/59 54/4/59 59/4/59 61/4/59
f 64/10/60 66/10/60 70/10/60 68/10/60
f 61/4/61 59/4/61 63/4/61 65/4/61
f 60/10/62 62/10/62 66/10/62 64/10/62
f 67/4/63 68/1/63 70/1/63 69/4/63
f 63/4/64 64/1/64 81/1/64 82/4/64
f 67/4/65 69/4/65 73/4/65 74/4/65
f 71/4/66 72/4/66 74/4/66 73/4/66
f 69/4/67 65/4/67 71/4/67 73/4/67
f 63/4/68 67/4/68 74/4/68 72/4/68
f 65/4/69 63/4/69 72/4/69 71/4/69
f 76/1/70 75/4/70 79/4/70 80/1/70
f 65/4/71 69/4/71 79/4/71 75/4/71
f 70/10/72 66/10/72 76/10/72 80/10/72
f 66/1/73 65/4/73 75/4/73 76/1/73
f 69/4/74 70/1/74 80/1/74 79/4/74
f 41/4/75 87/19/75 91/19/75 45/4/75
f 45/4/76 91/19/76 89/19/76 43/4/76
f 64/10/77 68/10/77 77/10/77 81/10/77
f 43/11/78 89/20/78 90/21/78 44/12/78
f 39/4/79 83/19/79 87/19/79 41/4/79
f 68/1/80 67/4/80 78/4/80 77/1/80
f 67/4/81 63/4/81 82/4/81 78/4/81
f 82/4/82 81/1/82 77/1/82 78/4/82
f 39/4/83 40/3/83 84/22/83 83/19/83
f 93/1/84 95/4/84 96/3/84 94/2/84
f 100/5/85 104/5/85 103/6/85 99/6/85
f 99/6/86 97/8/86 98/7/86 100/5/86
f 97/8/87 93/10/87 94/9/87 98/7/87
f 95/11/88 93/12/88 97/8/88 99/6/88
f 100/5/89 98/7/89 94/14/89 96/13/89
f 104/5/90 108/5/90 107/6/90 103/6/90
f 99/6/91 103/6/91 102/11/91 95/11/91
f 96/13/92 101/13/92 104/5/92 100/5/92
f 95/4/93 102/4/93 101/3/93 96/3/93
f 107/6/94 111/6/94 110/11/94 106/11/94
f 103/6/95 107/6/95 106/11/95 102/11/95
f 101/13/96 105/13/96 108/5/96 104/5/96
f 102/4/97 106/4/97 105/3/97 101/3/97
f 109/13/98 113/13/98 116/5/98 112/5/98
f 105/13/99 109/13/99 112/5/99 108/5/99
f 106/4/100 110/4/100 109/3/100 105/3/100
f 108/5/101 112/5/101 111/6/101 107/6/101
f 116/5/102 120/5/102 119/6/102 115/6/102
f 109/13/103 125/13/103 127/13/103 113/13/103
f 111/6/104 122/6/104 124/6/104 115/6/104
f 111/6/105 115/6/105 114/11/105 110/11/105
f 118/4/106 119/6/106 120/5/106 117/3/106
f 115/6/107 119/6/107 118/11/107 114/11/107
f 113/13/108 117/13/108 120/5/108 116/5/108
f 114/4/109 118/4/109 117/3/109 113/3/109
f 121/5/110 123/5/110 124/6/110 122/6/110
f 115/6/111 124/6/111 123/5/111 116/5/111
f 112/5/112 121/5/112 122/6/112 111/6/112
f 116/5/113 123/5/113 121/5/113 112/5/113
f 126/4/114 128/4/114 127/3/114 125/3/114
f 110/4/115 126/4/115 125/3/115 109/3/115
f 114/11/116 128/11/116 126/11/116 110/11/116
f 113/3/117 127/3/117 128/4/117 114/4/117
f 129/1/118 131/4/118 132/3/118 130/2/118
f 85/15/36 129/10/36 130/9/36 86/16/36
f 85/15/37 88/15/37 134/10/37 129/10/37
f 84/17/38 86/18/38 130/14/38 132/13/38
f 129/1/119 134/1/119 133/4/119 131/4/119
f 138/1/120 136/1/120 135/4/120 137/4/120
f 92/15/41 90/15/41 136/10/41 138/10/41
f 88/15/42 92/15/42 138/10/42 134/10/42
f 134/1/121 140/1/121 139/4/121 133/4/121
f 137/4/122 142/4/122 141/1/122 138/1/122
f 139/4/123 143/4/123 146/4/123 142/4/123
f 133/4/124 139/4/124 142/4/124 137/4/124
f 138/10/125 141/10/125 140/10/125 134/10/125
f 141/10/126 145/10/126 144/10/126 140/10/126
f 142/4/127 146/4/127 145/1/127 141/1/127
f 140/1/50 144/1/50 143/4/50 139/4/50
f 148/1/128 149/1/128 150/4/128 147/4/128
f 144/1/50 148/1/50 147/4/50 143/4/50
f 143/4/129 147/4/129 150/4/129 146/4/129
f 145/10/130 149/10/130 148/10/130 144/10/130
f 151/4/131 155/4/131 156/1/131 152/1/131
f 154/1/132 158/1/132 157/4/132 153/4/132
f 146/4/133 151/4/133 152/1/133 145/1/133
f 145/10/134 152/10/134 154/10/134 149/10/134
f 149/1/135 154/1/135 153/4/135 150/4/135
f 150/4/136 153/4/136 151/4/136 146/4/136
f 156/10/137 160/10/137 162/10/137 158/10/137
f 153/4/138 157/4/138 155/4/138 151/4/138
f 152/10/139 156/10/139 158/10/139 154/10/139
f 159/4/140 161/4/140 162/1/140 160/1/140
f 155/4/141 174/4/141 173/1/141 156/1/141
f 159/4/142 166/4/142 165/4/142 161/4/142
f 163/4/143 165/4/143 166/4/143 164/4/143
f 161/4/144 165/4/144 163/4/144 157/4/144
f 155/4/145 164/4/145 166/4/145 159/4/145
f 157/4/146 163/4/146 164/4/146 155/4/146
f 168/1/147 172/1/147 171/4/147 167/4/147
f 157/4/148 167/4/148 171/4/148 161/4/148
f 162/10/149 172/10/149 168/10/149 158/10/149
f 158/1/150 168/1/150 167/4/150 157/4/150
f 161/4/151 171/4/151 172/1/151 162/1/151
f 133/4/75 137/4/75 91/19/75 87/19/75
f 137/4/76 135/4/76 89/19/76 91/19/76
f 156/10/152 173/10/152 169/10/152 160/10/152
f 135/11/78 136/12/78 90/21/78 89/20/78
f 131/4/79 133/4/79 87/19/79 83/19/79
f 160/1/153 169/1/153 170/4/153 159/4/153
f 159/4/154 170/4/154 174/4/154 155/4/154
f 174/4/155 170/4/155 169/1/155 173/1/155
f 131/4/83 83/19/83 84/22/83 132/3/83
