# Blender 3.6.2
# www.blender.org
mtllib ParaArms.mtl
o Limbs
v -24.086733 -1.942055 -29.798927
v -23.876328 6.348536 -31.814495
v -19.508318 -10.998900 -48.125038
v -19.297913 -2.708309 -50.140606
v -19.135166 -1.776985 -28.603054
v -18.924761 6.513606 -30.618622
v -14.556751 -10.833830 -46.929165
v -14.346346 -2.543239 -48.944733
v -20.309519 -12.979438 -53.619930
v -21.329384 -12.879469 -47.038406
v -14.799503 -12.646763 -46.433804
v -13.779638 -12.746732 -53.015327
v -19.368160 -34.743809 -39.281315
v -20.191916 -35.283112 -30.828360
v -14.416677 -35.135612 -29.912880
v -13.592923 -34.596302 -38.365837
v -18.638027 -48.788124 -48.736511
v -19.461782 -49.327431 -41.770554
v -13.686545 -49.179928 -40.855072
v -12.862790 -48.640621 -47.821030
v -17.857309 -54.615627 -52.624882
v -18.608667 -54.012253 -46.120735
v -14.479101 -53.914318 -45.512711
v -13.727743 -54.517693 -52.016869
v -17.264376 -62.119339 -62.423599
v -17.583433 -62.328228 -59.149559
v -14.330718 -62.271095 -58.794773
v -14.011656 -62.062214 -62.068825
v -8.853273 -62.557743 -54.401520
v -9.061787 -62.692085 -51.523537
v -10.463614 -62.476250 -55.012875
v -10.602057 -62.565449 -53.102047
v -26.179710 -61.822563 -52.248779
v -26.061831 -62.119446 -49.506340
v -24.653057 -61.926556 -52.738461
v -24.574780 -62.123665 -50.917629
v 24.086725 -1.942047 -29.798931
v 23.876318 6.348544 -31.814501
v 19.508314 -10.998893 -48.125042
v 19.297911 -2.708300 -50.140610
v 19.135160 -1.776977 -28.603058
v 18.924757 6.513615 -30.618629
v 14.556746 -10.833824 -46.929169
v 14.346342 -2.543231 -48.944740
v 20.309511 -12.979431 -53.619938
v 21.329382 -12.879462 -47.038410
v 14.799498 -12.646755 -46.433807
v 13.779634 -12.746724 -53.015331
v 19.368155 -34.743801 -39.281322
v 20.191908 -35.283112 -30.828365
v 14.416674 -35.135612 -29.912884
v 13.592920 -34.596298 -38.365841
v 18.638018 -48.788120 -48.736511
v 19.461779 -49.327423 -41.770554
v 13.686544 -49.179924 -40.855072
v 12.862787 -48.640617 -47.821033
v 17.857302 -54.615623 -52.624886
v 18.608660 -54.012245 -46.120739
v 14.479097 -53.914314 -45.512718
v 13.727739 -54.517689 -52.016872
v 17.264368 -62.119331 -62.423599
v 17.583429 -62.328220 -59.149574
v 14.330709 -62.271095 -58.794777
v 14.011652 -62.062214 -62.068825
v 8.853266 -62.557739 -54.401524
v 9.061779 -62.692081 -51.523540
v 10.463610 -62.476250 -55.012878
v 10.602053 -62.565445 -53.102047
v 26.179701 -61.822563 -52.248783
v 26.061823 -62.119442 -49.506344
v 24.653055 -61.926548 -52.738464
v 24.574778 -62.123661 -50.917633
v -11.069165 -2.284853 54.371761
v -11.069163 1.717937 54.446949
v -11.069166 -1.707838 23.653931
v -11.069164 2.294952 23.729115
v -3.454682 0.389185 33.869198
v -3.454680 -3.949343 42.420254
v -2.197500 -17.032587 42.564426
v -2.197500 -19.792299 48.003704
v -2.826092 -8.039024 30.571209
v -2.826092 -11.588142 37.566372
v -4.189459 0.416851 33.883236
v -4.189459 -3.921675 42.434292
v -3.427171 -11.560478 37.580410
v -3.427174 -8.011358 30.585247
v -5.139019 0.416853 33.883236
v -5.139016 -3.921679 42.434299
v -7.217160 -22.504337 28.146587
v -7.230368 -24.076302 20.461712
v -12.529573 0.416853 33.883236
v -12.529574 -3.921677 42.434292
v -14.315990 -22.504337 28.158779
v -14.329196 -24.076298 20.473900
v -4.936173 -37.208130 41.913509
v -4.936172 -34.985394 49.436008
v -12.035013 -37.208130 41.913502
v -12.035013 -34.985390 49.436008
v -8.436697 -57.050171 29.903393
v -7.571918 -56.792446 37.695332
v -15.492217 -57.050163 30.686436
v -14.627441 -56.792435 38.478374
v -8.418230 -62.101498 30.069759
v -7.553008 -62.047440 37.865719
v -15.473753 -62.101498 30.852802
v -14.608530 -62.047440 38.648769
v -13.919519 -60.780167 19.195171
v -12.620810 -60.780174 19.051044
v -13.901054 -62.238384 19.361530
v -12.602345 -62.238380 19.217403
v -21.824429 -61.101944 25.939335
v -21.707499 -61.050964 26.992886
v -3.445941 -62.326355 24.429882
v -3.527631 -62.336433 23.693836
v -21.821930 -62.101048 25.961826
v -21.704947 -62.090363 27.015934
v -3.447729 -61.345520 24.413799
v -3.529374 -61.393623 23.678127
v 0.000000 -1.707839 23.653927
v 0.000002 2.294951 23.729118
v 0.000000 -2.284847 54.371761
v 0.000002 1.717937 54.446949
v -0.000002 0.389187 33.869205
v -0.000002 -3.949343 42.420261
v 0.000000 -17.032589 42.564426
v -0.000002 -19.792301 48.003696
v 0.000000 -8.039024 30.571209
v -0.000002 -11.588142 37.566372
v 11.069166 -2.284849 54.371769
v 11.069166 1.717939 54.446957
v 11.069166 -1.707838 23.653927
v 11.069162 2.294953 23.729122
v 3.454678 0.389187 33.869198
v 3.454681 -3.949345 42.420261
v 2.197502 -17.032587 42.564426
v 2.197498 -19.792299 48.003696
v 2.826088 -8.039024 30.571209
v 2.826090 -11.588144 37.566372
v 4.189459 0.416853 33.883228
v 4.189461 -3.921677 42.434299
v 3.427168 -11.560478 37.580418
v 3.427168 -8.011360 30.585247
v 5.139013 0.416853 33.883236
v 5.139015 -3.921679 42.434292
v 7.217159 -22.504335 28.146580
v 7.230366 -24.076300 20.461712
v 12.529575 0.416853 33.883236
v 12.529572 -3.921677 42.434292
v 14.315992 -22.504341 28.158779
v 14.329195 -24.076302 20.473907
v 4.936174 -37.208130 41.913509
v 4.936172 -34.985390 49.436016
v 12.035013 -37.208134 41.913502
v 12.035013 -34.985390 49.436008
v 8.436695 -57.050163 29.903393
v 7.571922 -56.792439 37.695332
v 15.492216 -57.050167 30.686436
v 14.627436 -56.792431 38.478374
v 8.418232 -62.101498 30.069759
v 7.553013 -62.047443 37.865719
v 15.473753 -62.101501 30.852802
v 14.608530 -62.047447 38.648769
v 13.919519 -60.780167 19.195171
v 12.620806 -60.780170 19.051037
v 13.901052 -62.238384 19.361538
v 12.602346 -62.238380 19.217403
v 21.824427 -61.101948 25.939335
v 21.707499 -61.050964 26.992893
v 3.445942 -62.326355 24.429882
v 3.527630 -62.336441 23.693836
v 21.821932 -62.101048 25.961826
v 21.704943 -62.090359 27.015934
v 3.447723 -61.345528 24.413799
v 3.529375 -61.393631 23.678123
vn -0.9732 -0.0307 -0.2279
vn 0.9914 -0.0121 0.1304
vn 0.9732 0.0307 0.2279
vn -0.2356 0.2352 0.9430
vn -0.0731 -0.9012 0.4271
vn 0.0731 0.9012 -0.4271
vn 0.9872 0.0998 0.1240
vn -0.1531 0.4601 0.8746
vn 0.1342 0.3403 -0.9307
vn -0.9746 0.2144 0.0648
vn -0.1082 -0.6145 0.7815
vn -0.1174 0.5825 0.8043
vn 0.1192 -0.5474 -0.8283
vn -0.9834 -0.1324 -0.1245
vn 0.1118 0.5642 -0.8180
vn 0.1159 0.5588 -0.8211
vn -0.9942 0.0242 -0.1045
vn 0.9942 -0.0242 0.1045
vn 0.9778 -0.1758 0.1141
vn -0.4108 0.4326 -0.8026
vn -0.3794 -0.6706 0.6374
vn -0.0936 -0.6884 0.7192
vn 0.0242 -0.9978 -0.0613
vn -0.0518 -0.8446 0.5329
vn 0.0618 0.7958 -0.6023
vn -0.9921 0.0586 -0.1110
vn -0.0319 -0.9983 -0.0489
vn -0.9328 -0.3519 -0.0771
vn 0.9660 0.2305 0.1171
vn 0.4030 0.4762 -0.7816
vn -0.1004 -0.9896 -0.1028
vn -0.8729 0.4874 -0.0215
vn 0.3841 -0.6336 0.6716
vn 0.7524 -0.6521 0.0927
vn 0.9732 -0.0307 -0.2279
vn -0.9914 -0.0121 0.1304
vn -0.9732 0.0307 0.2279
vn 0.2356 0.2352 0.9430
vn 0.0731 -0.9012 0.4271
vn -0.0731 0.9012 -0.4271
vn -0.9872 0.0998 0.1240
vn 0.1531 0.4601 0.8746
vn -0.1342 0.3403 -0.9307
vn 0.9746 0.2144 0.0648
vn 0.1082 -0.6145 0.7815
vn 0.1174 0.5825 0.8043
vn -0.1192 -0.5474 -0.8283
vn 0.9834 -0.1324 -0.1245
vn -0.1118 0.5642 -0.8180
vn -0.1159 0.5588 -0.8211
vn 0.9942 0.0242 -0.1045
vn -0.9942 -0.0242 0.1045
vn -0.9778 -0.1758 0.1141
vn 0.4108 0.4326 -0.8026
vn 0.3794 -0.6706 0.6374
vn 0.0936 -0.6884 0.7192
vn -0.0242 -0.9978 -0.0613
vn 0.0518 -0.8446 0.5329
vn -0.0618 0.7958 -0.6023
vn 0.9921 0.0586 -0.1110
vn 0.0320 -0.9983 -0.0489
vn 0.9328 -0.3519 -0.0771
vn -0.9660 0.2305 0.1171
vn -0.4030 0.4762 -0.7816
vn 0.1004 -0.9896 -0.1028
vn 0.8729 0.4874 -0.0215
vn -0.3841 -0.6336 0.6716
vn -0.7524 -0.6521 0.0927
vn -1.0000 -0.0000 -0.0000
vn -0.0000 -0.0188 0.9998
vn -0.0000 -0.9904 0.1379
vn -0.0000 0.9998 0.0188
vn 0.0140 -0.9922 -0.1242
vn -0.9719 -0.2100 -0.1066
vn -0.0000 0.7862 0.6180
vn -0.0000 -0.5363 0.8440
vn 0.0422 0.8910 0.4521
vn -0.0515 -0.8906 -0.4519
vn 0.3951 0.4032 -0.8254
vn -0.0045 0.3641 -0.9314
vn -0.0045 -0.5366 0.8438
vn -0.2703 -0.5588 0.7840
vn 0.9683 -0.2475 -0.0342
vn -0.0000 0.8918 0.4525
vn -0.9971 0.0743 0.0135
vn -0.0007 0.4804 -0.8770
vn 0.0007 -0.6094 0.7929
vn 0.9914 -0.1258 -0.0356
vn -0.9915 0.1250 0.0357
vn 0.9918 0.1241 -0.0318
vn 0.0004 0.8626 0.5058
vn -0.9918 -0.1241 0.0318
vn -0.0004 -0.8528 -0.5222
vn 0.1102 0.0326 0.9934
vn -0.0475 0.5109 -0.8583
vn 0.0489 -0.4657 0.8836
vn 0.0008 -1.0000 0.0068
vn 0.5881 0.8033 -0.0941
vn 0.0013 -0.9999 0.0121
vn -0.1096 -0.1140 -0.9874
vn -0.9910 -0.0124 -0.1335
vn 0.9337 -0.0130 -0.3577
vn -0.0347 0.9492 -0.3128
vn -0.9939 -0.0000 0.1103
vn 0.6095 -0.0226 -0.7924
vn -0.8535 0.0131 0.5209
vn -0.5546 0.8315 0.0325
vn -0.0068 -0.9999 0.0081
vn -0.0000 0.3644 -0.9312
vn -0.0000 -0.8000 -0.5999
vn 0.9562 0.0119 0.2924
vn -0.0000 -0.8918 -0.4525
vn -0.0000 -0.9796 0.2011
vn -0.0326 -0.9994 0.0111
vn -0.7930 -0.0212 -0.6089
vn 0.9939 -0.0000 -0.1103
vn -0.0000 0.0188 -0.9998
vn 1.0000 -0.0000 -0.0000
vn -0.0140 -0.9922 -0.1242
vn 0.9719 -0.2100 -0.1066
vn -0.0422 0.8910 0.4521
vn 0.0515 -0.8906 -0.4519
vn -0.3951 0.4032 -0.8254
vn 0.0045 0.3641 -0.9314
vn 0.0045 -0.5366 0.8438
vn 0.2703 -0.5588 0.7840
vn -0.9683 -0.2475 -0.0342
vn 0.9971 0.0743 0.0135
vn 0.0007 0.4804 -0.8770
vn -0.0007 -0.6094 0.7929
vn -0.9914 -0.1258 -0.0356
vn 0.9915 0.1250 0.0357
vn -0.9918 0.1241 -0.0318
vn -0.0004 0.8626 0.5058
vn 0.9918 -0.1241 0.0318
vn 0.0004 -0.8528 -0.5222
vn -0.1102 0.0326 0.9934
vn 0.0475 0.5109 -0.8583
vn -0.0489 -0.4657 0.8836
vn -0.0008 -1.0000 0.0068
vn -0.5881 0.8033 -0.0941
vn -0.0013 -0.9999 0.0121
vn 0.1096 -0.1140 -0.9874
vn 0.9910 -0.0124 -0.1335
vn -0.9337 -0.0130 -0.3577
vn 0.0347 0.9492 -0.3128
vn 0.9939 -0.0000 0.1103
vn -0.6095 -0.0226 -0.7924
vn 0.8535 0.0131 0.5209
vn 0.5546 0.8315 0.0325
vn 0.0068 -0.9999 0.0081
vn -0.9562 0.0119 0.2924
vn 0.0326 -0.9994 0.0111
vn 0.7930 -0.0212 -0.6089
vn -0.9939 -0.0000 -0.1103
vt 0.375000 0.000000
vt 0.625000 0.000000
vt 0.625000 0.250000
vt 0.375000 0.250000
vt 0.625000 0.500000
vt 0.375000 0.500000
vt 0.625000 0.750000
vt 0.375000 0.750000
vt 0.625000 1.000000
vt 0.375000 1.000000
vt 0.125000 0.500000
vt 0.125000 0.750000
vt 0.875000 0.500000
vt 0.875000 0.750000
vt 0.375000 0.875000
vt 0.625000 0.875000
vt 0.750000 0.500000
vt 0.750000 0.750000
vt 0.375000 0.375000
vt 0.250000 0.500000
vt 0.250000 0.750000
vt 0.625000 0.375000
s 0
f 1/1/1 2/2/1 4/3/1 3/4/1
f 8/5/2 7/6/2 11/6/2 12/5/2
f 7/6/3 8/5/3 6/7/3 5/8/3
f 5/8/4 6/7/4 2/9/4 1/10/4
f 3/11/5 7/6/5 5/8/5 1/12/5
f 8/5/6 4/13/6 2/14/6 6/7/6
f 12/5/7 11/6/7 15/6/7 16/5/7
f 7/6/8 3/11/8 10/11/8 11/6/8
f 4/13/9 8/5/9 12/5/9 9/13/9
f 3/4/10 4/3/10 9/3/10 10/4/10
f 15/6/11 14/11/11 18/11/11 19/6/11
f 11/6/12 10/11/12 14/11/12 15/6/12
f 9/13/13 12/5/13 16/5/13 13/13/13
f 10/4/14 9/3/14 13/3/14 14/4/14
f 17/13/15 20/5/15 24/5/15 21/13/15
f 13/13/16 16/5/16 20/5/16 17/13/16
f 14/4/17 13/3/17 17/3/17 18/4/17
f 16/5/18 15/6/18 19/6/18 20/5/18
f 24/5/19 23/6/19 27/6/19 28/5/19
f 17/13/20 21/13/20 35/13/20 33/13/20
f 19/6/21 23/6/21 32/6/21 30/6/21
f 19/6/22 18/11/22 22/11/22 23/6/22
f 26/4/23 25/3/23 28/5/23 27/6/23
f 23/6/24 22/11/24 26/11/24 27/6/24
f 21/13/25 24/5/25 28/5/25 25/13/25
f 22/4/26 21/3/26 25/3/26 26/4/26
f 29/5/27 30/6/27 32/6/27 31/5/27
f 23/6/28 24/5/28 31/5/28 32/6/28
f 20/5/29 19/6/29 30/6/29 29/5/29
f 24/5/30 20/5/30 29/5/30 31/5/30
f 34/4/31 33/3/31 35/3/31 36/4/31
f 18/4/32 17/3/32 33/3/32 34/4/32
f 22/11/33 18/11/33 34/11/33 36/11/33
f 21/3/34 22/4/34 36/4/34 35/3/34
f 37/1/35 39/4/35 40/3/35 38/2/35
f 44/5/36 48/5/36 47/6/36 43/6/36
f 43/6/37 41/8/37 42/7/37 44/5/37
f 41/8/38 37/10/38 38/9/38 42/7/38
f 39/11/39 37/12/39 41/8/39 43/6/39
f 44/5/40 42/7/40 38/14/40 40/13/40
f 48/5/41 52/5/41 51/6/41 47/6/41
f 43/6/42 47/6/42 46/11/42 39/11/42
f 40/13/43 45/13/43 48/5/43 44/5/43
f 39/4/44 46/4/44 45/3/44 40/3/44
f 51/6/45 55/6/45 54/11/45 50/11/45
f 47/6/46 51/6/46 50/11/46 46/11/46
f 45/13/47 49/13/47 52/5/47 48/5/47
f 46/4/48 50/4/48 49/3/48 45/3/48
f 53/13/49 57/13/49 60/5/49 56/5/49
f 49/13/50 53/13/50 56/5/50 52/5/50
f 50/4/51 54/4/51 53/3/51 49/3/51
f 52/5/52 56/5/52 55/6/52 51/6/52
f 60/5/53 64/5/53 63/6/53 59/6/53
f 53/13/54 69/13/54 71/13/54 57/13/54
f 55/6/55 66/6/55 68/6/55 59/6/55
f 55/6/56 59/6/56 58/11/56 54/11/56
f 62/4/57 63/6/57 64/5/57 61/3/57
f 59/6/58 63/6/58 62/11/58 58/11/58
f 57/13/59 61/13/59 64/5/59 60/5/59
f 58/4/60 62/4/60 61/3/60 57/3/60
f 65/5/61 67/5/61 68/6/61 66/6/61
f 59/6/62 68/6/62 67/5/62 60/5/62
f 56/5/63 65/5/63 66/6/63 55/6/63
f 60/5/64 67/5/64 65/5/64 56/5/64
f 70/4/65 72/4/65 71/3/65 69/3/65
f 54/4/66 70/4/66 69/3/66 53/3/66
f 58/11/67 72/11/67 70/11/67 54/11/67
f 57/3/68 71/3/68 72/4/68 58/4/68
f 73/1/69 74/2/69 76/3/69 75/4/69
f 121/15/70 122/16/70 74/9/70 73/10/70
f 121/15/71 73/10/71 78/10/71 124/15/71
f 120/17/72 76/13/72 74/14/72 122/18/72
f 73/1/73 75/4/73 77/4/73 78/1/73
f 82/1/74 81/4/74 79/4/74 80/1/74
f 128/15/75 82/10/75 80/10/75 126/15/75
f 124/15/76 78/10/76 82/10/76 128/15/76
f 78/1/77 77/4/77 83/4/77 84/1/77
f 81/4/78 82/1/78 85/1/78 86/4/78
f 83/4/79 86/4/79 90/4/79 87/4/79
f 77/4/80 81/4/80 86/4/80 83/4/80
f 82/10/81 78/10/81 84/10/81 85/10/81
f 85/10/82 84/10/82 88/10/82 89/10/82
f 86/4/83 85/1/83 89/1/83 90/4/83
f 84/1/84 83/4/84 87/4/84 88/1/84
f 92/1/85 91/4/85 94/4/85 93/1/85
f 88/1/84 87/4/84 91/4/84 92/1/84
f 87/4/86 90/4/86 94/4/86 91/4/86
f 89/10/87 88/10/87 92/10/87 93/10/87
f 95/4/88 96/1/88 100/1/88 99/4/88
f 98/1/89 97/4/89 101/4/89 102/1/89
f 90/4/90 89/1/90 96/1/90 95/4/90
f 89/10/91 93/10/91 98/10/91 96/10/91
f 93/1/92 94/4/92 97/4/92 98/1/92
f 94/4/93 90/4/93 95/4/93 97/4/93
f 100/10/94 102/10/94 106/10/94 104/10/94
f 97/4/95 95/4/95 99/4/95 101/4/95
f 96/10/96 98/10/96 102/10/96 100/10/96
f 103/4/97 104/1/97 106/1/97 105/4/97
f 99/4/98 100/1/98 117/1/98 118/4/98
f 103/4/99 105/4/99 109/4/99 110/4/99
f 107/4/100 108/4/100 110/4/100 109/4/100
f 105/4/101 101/4/101 107/4/101 109/4/101
f 99/4/102 103/4/102 110/4/102 108/4/102
f 101/4/103 99/4/103 108/4/103 107/4/103
f 112/1/104 111/4/104 115/4/104 116/1/104
f 101/4/105 105/4/105 115/4/105 111/4/105
f 106/10/106 102/10/106 112/10/106 116/10/106
f 102/1/107 101/4/107 111/4/107 112/1/107
f 105/4/108 106/1/108 116/1/108 115/4/108
f 77/4/109 123/19/109 127/19/109 81/4/109
f 81/4/110 127/19/110 125/19/110 79/4/110
f 100/10/111 104/10/111 113/10/111 117/10/111
f 79/11/112 125/20/112 126/21/112 80/12/112
f 75/4/113 119/19/113 123/19/113 77/4/113
f 104/1/114 103/4/114 114/4/114 113/1/114
f 103/4/115 99/4/115 118/4/115 114/4/115
f 118/4/116 117/1/116 113/1/116 114/4/116
f 75/4/117 76/3/117 120/22/117 119/19/117
f 129/1/118 131/4/118 132/3/118 130/2/118
f 121/15/70 129/10/70 130/9/70 122/16/70
f 121/15/71 124/15/71 134/10/71 129/10/71
f 120/17/72 122/18/72 130/14/72 132/13/72
f 129/1/119 134/1/119 133/4/119 131/4/119
f 138/1/120 136/1/120 135/4/120 137/4/120
f 128/15/75 126/15/75 136/10/75 138/10/75
f 124/15/76 128/15/76 138/10/76 134/10/76
f 134/1/121 140/1/121 139/4/121 133/4/121
f 137/4/122 142/4/122 141/1/122 138/1/122
f 139/4/123 143/4/123 146/4/123 142/4/123
f 133/4/124 139/4/124 142/4/124 137/4/124
f 138/10/125 141/10/125 140/10/125 134/10/125
f 141/10/126 145/10/126 144/10/126 140/10/126
f 142/4/127 146/4/127 145/1/127 141/1/127
f 140/1/84 144/1/84 143/4/84 139/4/84
f 148/1/128 149/1/128 150/4/128 147/4/128
f 144/1/84 148/1/84 147/4/84 143/4/84
f 143/4/129 147/4/129 150/4/129 146/4/129
f 145/10/130 149/10/130 148/10/130 144/10/130
f 151/4/131 155/4/131 156/1/131 152/1/131
f 154/1/132 158/1/132 157/4/132 153/4/132
f 146/4/133 151/4/133 152/1/133 145/1/133
f 145/10/134 152/10/134 154/10/134 149/10/134
f 149/1/135 154/1/135 153/4/135 150/4/135
f 150/4/136 153/4/136 151/4/136 146/4/136
f 156/10/137 160/10/137 162/10/137 158/10/137
f 153/4/138 157/4/138 155/4/138 151/4/138
f 152/10/139 156/10/139 158/10/139 154/10/139
f 159/4/140 161/4/140 162/1/140 160/1/140
f 155/4/141 174/4/141 173/1/141 156/1/141
f 159/4/142 166/4/142 165/4/142 161/4/142
f 163/4/143 165/4/143 166/4/143 164/4/143
f 161/4/144 165/4/144 163/4/144 157/4/144
f 155/4/145 164/4/145 166/4/145 159/4/145
f 157/4/146 163/4/146 164/4/146 155/4/146
f 168/1/147 172/1/147 171/4/147 167/4/147
f 157/4/148 167/4/148 171/4/148 161/4/148
f 162/10/149 172/10/149 168/10/149 158/10/149
f 158/1/150 168/1/150 167/4/150 157/4/150
f 161/4/151 171/4/151 172/1/151 162/1/151
f 133/4/109 137/4/109 127/19/109 123/19/109
f 137/4/110 135/4/110 125/19/110 127/19/110
f 156/10/152 173/10/152 169/10/152 160/10/152
f 135/11/112 136/12/112 126/21/112 125/20/112
f 131/4/113 133/4/113 123/19/113 119/19/113
f 160/1/153 169/1/153 170/4/153 159/4/153
f 159/4/154 170/4/154 174/4/154 155/4/154
f 174/4/155 170/4/155 169/1/155 173/1/155
f 131/4/117 119/19/117 120/22/117 132/3/117
