# Blender 3.6.2
# www.blender.org
mtllib VelociArms.mtl
o Limbs
v -11.069164 -8.730627 51.843987
v -11.069164 -5.160374 53.655415
v -11.069164 5.170475 24.445484
v -11.069164 8.740726 26.256912
v -3.454681 0.389186 33.869205
v -3.454681 -3.949343 42.420269
v -2.197500 -21.703062 40.658356
v -2.197500 -24.462772 46.097630
v -2.826091 -8.039026 30.571215
v -2.826091 -11.588144 37.566383
v -4.189458 0.416852 33.883244
v -4.189458 -3.921677 42.434303
v -3.427171 -11.560479 37.580418
v -3.427171 -8.011360 30.585251
v -5.139017 0.416852 33.883244
v -5.139017 -3.921677 42.434303
v -7.217159 -25.238338 19.143215
v -7.230364 -26.527275 12.024733
v -12.529573 0.416852 33.883244
v -12.529573 -3.921677 42.434303
v -14.315989 -25.238340 19.155415
v -14.329194 -26.527277 12.036930
v -4.936172 -41.279991 47.364662
v -4.936172 -40.806839 52.196098
v -12.035012 -41.279991 47.364662
v -12.035012 -40.806839 52.196098
v -8.436695 -57.050175 29.903400
v -7.571919 -56.792442 37.695343
v -15.492215 -57.050171 30.686449
v -14.627439 -56.792439 38.478386
v -8.418231 -62.101501 30.069769
v -7.553009 -62.047447 37.865730
v -15.473752 -62.101501 30.852814
v -14.608529 -62.047443 38.648777
v -13.919518 -60.780170 19.195181
v -12.620808 -60.780170 19.051046
v -13.901055 -62.238388 19.361547
v -12.602344 -62.238384 19.217413
v -21.824427 -61.101948 25.939342
v -21.707499 -61.050964 26.992899
v -5.243832 -61.792767 32.056381
v -8.083499 -61.841484 28.844826
v -21.821930 -62.101051 25.961838
v -21.704945 -62.090359 27.015940
v -5.332108 -57.055489 31.986189
v -8.169706 -57.287823 28.776281
v 0.000000 5.170475 24.445484
v 0.000000 8.740726 26.256912
v 0.000000 -8.730627 51.843987
v 0.000000 -5.160374 53.655415
v 0.000000 0.389186 33.869205
v 0.000000 -3.949343 42.420269
v 0.000000 -21.703062 40.658356
v 0.000000 -24.462772 46.097630
v 0.000000 -8.039026 30.571215
v 0.000000 -11.588144 37.566383
v -7.054551 -57.455223 26.696507
v -7.120071 -54.618320 28.400642
v -4.916679 -57.893997 27.459724
v -4.983572 -54.942863 29.232828
v -6.534961 -52.755531 25.354877
v -6.787554 -51.674767 28.473297
v -4.310170 -52.948723 25.665464
v -4.571651 -51.824444 28.909723
v -6.700269 -51.574284 24.164742
v -6.671129 -48.533993 25.473251
v -4.534251 -51.697262 24.227188
v -4.502635 -48.534431 25.588467
v -5.913968 -51.544708 21.868464
v -5.990802 -50.649059 22.321972
v -5.434461 -51.521301 21.977230
v -5.513999 -50.589527 22.449062
v -24.086735 -1.942061 -29.798923
v -23.876328 6.348531 -31.814495
v -19.508320 -6.513611 -48.125034
v -19.297913 1.776981 -50.140606
v -19.135168 -1.776990 -28.603046
v -18.924763 6.513605 -30.618618
v -14.556754 -6.348538 -46.929165
v -14.346347 1.942050 -48.944729
v -17.704136 -4.166768 -54.249935
v -18.724001 -7.936528 -48.854076
v -14.799506 -8.101563 -48.227612
v -13.779638 -4.331799 -53.623470
v -16.698992 -21.053295 -45.266552
v -17.493982 -21.729313 -41.060452
v -14.434821 -21.857956 -40.572117
v -13.639832 -21.181932 -44.778217
v -15.994354 -30.634773 -59.969875
v -16.789347 -33.573326 -55.763775
v -13.730185 -33.701965 -55.275440
v -12.935194 -30.763416 -59.481533
v -15.387802 -34.503109 -61.480846
v -15.915634 -36.454140 -58.688229
v -13.884516 -36.539555 -58.364010
v -13.356684 -34.588520 -61.156635
v -15.228831 -39.642776 -60.480877
v -15.536750 -42.922058 -58.851749
v -14.351860 -42.971886 -58.662609
v -14.043941 -39.692604 -60.291744
v -9.742659 -38.328007 -58.523724
v -10.012507 -39.325462 -57.096020
v -9.885729 -39.626392 -59.092312
v -10.064895 -40.288654 -58.144382
v -19.825993 -37.942932 -56.365856
v -20.083916 -38.896297 -55.001232
v -19.629208 -39.197945 -56.856060
v -19.800453 -39.830940 -55.950031
v 24.086729 -1.942057 -29.798923
v 23.876326 6.348533 -31.814487
v 19.508314 -6.513608 -48.125034
v 19.297909 1.776985 -50.140598
v 19.135162 -1.776990 -28.603046
v 18.924761 6.513601 -30.618618
v 14.556750 -6.348542 -46.929157
v 14.346346 1.942054 -48.944729
v 17.704134 -4.166764 -54.249928
v 18.723999 -7.936528 -48.854069
v 14.799501 -8.101563 -48.227604
v 13.779637 -4.331799 -53.623470
v 16.698990 -21.053288 -45.266552
v 17.493980 -21.729305 -41.060452
v 14.434818 -21.857954 -40.572117
v 13.639829 -21.181936 -44.778217
v 15.994351 -30.634773 -59.969875
v 16.789345 -33.573322 -55.763767
v 13.730178 -33.701958 -55.275433
v 12.935190 -30.763416 -59.481533
v 15.387798 -34.503101 -61.480846
v 15.915630 -36.454140 -58.688229
v 13.884512 -36.539551 -58.363995
v 13.356680 -34.588516 -61.156628
v 15.228827 -39.642769 -60.480877
v 15.536746 -42.922050 -58.851742
v 14.351858 -42.971870 -58.662594
v 14.043937 -39.692596 -60.291729
v 9.742657 -38.328011 -58.523724
v 10.012504 -39.325466 -57.096012
v 9.885724 -39.626392 -59.092312
v 10.064890 -40.288654 -58.144382
v 19.825989 -37.942924 -56.365841
v 20.083914 -38.896290 -55.001232
v 19.629204 -39.197948 -56.856060
v 19.800449 -39.830933 -55.950024
v 11.069164 -8.730627 51.843987
v 11.069164 -5.160374 53.655415
v 11.069164 5.170475 24.445484
v 11.069164 8.740726 26.256912
v 3.454681 0.389186 33.869205
v 3.454681 -3.949343 42.420269
v 2.197500 -21.703062 40.658356
v 2.197500 -24.462772 46.097630
v 2.826091 -8.039026 30.571215
v 2.826091 -11.588144 37.566383
v 4.189458 0.416852 33.883244
v 4.189458 -3.921677 42.434303
v 3.427171 -11.560479 37.580418
v 3.427171 -8.011360 30.585251
v 5.139017 0.416852 33.883244
v 5.139017 -3.921677 42.434303
v 7.217159 -25.238338 19.143215
v 7.230364 -26.527275 12.024733
v 12.529573 0.416852 33.883244
v 12.529573 -3.921677 42.434303
v 14.315989 -25.238340 19.155415
v 14.329194 -26.527277 12.036930
v 4.936172 -41.279991 47.364662
v 4.936172 -40.806839 52.196098
v 12.035012 -41.279991 47.364662
v 12.035012 -40.806839 52.196098
v 8.436695 -57.050175 29.903400
v 7.571919 -56.792442 37.695343
v 15.492215 -57.050171 30.686449
v 14.627439 -56.792439 38.478386
v 8.418231 -62.101501 30.069769
v 7.553009 -62.047447 37.865730
v 15.473752 -62.101501 30.852814
v 14.608529 -62.047443 38.648777
v 13.919518 -60.780170 19.195181
v 12.620808 -60.780170 19.051046
v 13.901055 -62.238388 19.361547
v 12.602344 -62.238384 19.217413
v 21.824427 -61.101948 25.939342
v 21.707499 -61.050964 26.992899
v 5.243832 -61.792767 32.056381
v 8.083499 -61.841484 28.844826
v 21.821930 -62.101051 25.961838
v 21.704945 -62.090359 27.015940
v 5.332108 -57.055489 31.986189
v 8.169706 -57.287823 28.776281
v 7.054551 -57.455223 26.696507
v 7.120071 -54.618320 28.400642
v 4.916679 -57.893997 27.459724
v 4.983572 -54.942863 29.232828
v 6.534961 -52.755531 25.354877
v 6.787554 -51.674767 28.473297
v 4.310170 -52.948723 25.665464
v 4.571651 -51.824444 28.909723
v 6.700269 -51.574284 24.164742
v 6.671129 -48.533993 25.473251
v 4.534251 -51.697262 24.227188
v 4.502635 -48.534431 25.588467
v 5.913968 -51.544708 21.868464
v 5.990802 -50.649059 22.321972
v 5.434461 -51.521301 21.977230
v 5.513999 -50.589527 22.449062
v 24.086735 -1.942061 -29.798923
v 23.876328 6.348531 -31.814495
v 19.508320 -6.513611 -48.125034
v 19.297913 1.776981 -50.140606
v 19.135168 -1.776990 -28.603046
v 18.924763 6.513605 -30.618618
v 14.556754 -6.348538 -46.929165
v 14.346347 1.942050 -48.944729
v 17.704136 -4.166768 -54.249935
v 18.724001 -7.936528 -48.854076
v 14.799506 -8.101563 -48.227612
v 13.779638 -4.331799 -53.623470
v 16.698992 -21.053295 -45.266552
v 17.493982 -21.729313 -41.060452
v 14.434821 -21.857956 -40.572117
v 13.639832 -21.181932 -44.778217
v 15.994354 -30.634773 -59.969875
v 16.789347 -33.573326 -55.763775
v 13.730185 -33.701965 -55.275440
v 12.935194 -30.763416 -59.481533
v 15.387802 -34.503109 -61.480846
v 15.915634 -36.454140 -58.688229
v 13.884516 -36.539555 -58.364010
v 13.356684 -34.588520 -61.156635
v 15.228831 -39.642776 -60.480877
v 15.536750 -42.922058 -58.851749
v 14.351860 -42.971886 -58.662609
v 14.043941 -39.692604 -60.291744
v 9.742659 -38.328007 -58.523724
v 10.012507 -39.325462 -57.096020
v 9.885729 -39.626392 -59.092312
v 10.064895 -40.288654 -58.144382
v 19.825993 -37.942932 -56.365856
v 20.083916 -38.896297 -55.001232
v 19.629208 -39.197945 -56.856060
v 19.800453 -39.830940 -55.950031
v -24.086729 -1.942057 -29.798923
v -23.876326 6.348533 -31.814487
v -19.508314 -6.513608 -48.125034
v -19.297909 1.776985 -50.140598
v -19.135162 -1.776990 -28.603046
v -18.924761 6.513601 -30.618618
v -14.556750 -6.348542 -46.929157
v -14.346346 1.942054 -48.944729
v -17.704134 -4.166764 -54.249928
v -18.723999 -7.936528 -48.854069
v -14.799501 -8.101563 -48.227604
v -13.779637 -4.331799 -53.623470
v -16.698990 -21.053288 -45.266552
v -17.493980 -21.729305 -41.060452
v -14.434818 -21.857954 -40.572117
v -13.639829 -21.181936 -44.778217
v -15.994351 -30.634773 -59.969875
v -16.789345 -33.573322 -55.763767
v -13.730178 -33.701958 -55.275433
v -12.935190 -30.763416 -59.481533
v -15.387798 -34.503101 -61.480846
v -15.915630 -36.454140 -58.688229
v -13.884512 -36.539551 -58.363995
v -13.356680 -34.588516 -61.156628
v -15.228827 -39.642769 -60.480877
v -15.536746 -42.922050 -58.851742
v -14.351858 -42.971870 -58.662594
v -14.043937 -39.692596 -60.291729
v -9.742657 -38.328011 -58.523724
v -10.012504 -39.325466 -57.096012
v -9.885724 -39.626392 -59.092312
v -10.064890 -40.288654 -58.144382
v -19.825989 -37.942924 -56.365841
v -20.083914 -38.896290 -55.001232
v -19.629204 -39.197948 -56.856060
v -19.800449 -39.830933 -55.950024
vn -1.0000 -0.0000 -0.0000
vn -0.0000 -0.4525 0.8918
vn -0.0000 -0.8918 -0.4525
vn -0.0000 0.8918 0.4525
vn -0.9966 -0.0733 -0.0372
vn -0.0000 0.5524 0.8336
vn -0.0000 -0.5363 0.8440
vn 0.0422 0.8910 0.4521
vn -0.0515 -0.8906 -0.4519
vn 0.7425 0.3694 -0.5587
vn -0.0045 0.3641 -0.9314
vn -0.0045 -0.5366 0.8438
vn -0.6775 -0.4966 0.5426
vn 0.9804 -0.1944 -0.0320
vn -0.9980 0.0621 0.0129
vn -0.0007 0.6299 -0.7767
vn 0.0006 -0.7376 0.6752
vn 0.9896 -0.1306 -0.0602
vn -0.9896 0.1309 0.0602
vn 0.9937 0.1107 -0.0174
vn 0.0004 0.9046 0.4262
vn -0.9937 -0.1107 0.0174
vn -0.0003 -0.9228 -0.3853
vn 0.1102 0.0326 0.9934
vn -0.0373 0.7378 -0.6740
vn 0.0413 -0.6650 0.7457
vn 0.0008 -1.0000 0.0068
vn 0.0407 0.9975 -0.0581
vn 0.0013 -0.9999 0.0121
vn -0.1096 -0.1140 -0.9874
vn -0.9910 -0.0124 -0.1335
vn 0.9337 -0.0130 -0.3577
vn -0.0347 0.9492 -0.3128
vn -0.9939 -0.0000 0.1103
vn 0.6095 -0.0226 -0.7924
vn -0.8535 0.0131 0.5209
vn -0.5546 0.8315 0.0325
vn -0.0068 -0.9999 0.0081
vn -0.0000 0.3644 -0.9312
vn -0.0000 -0.5939 -0.8045
vn 0.9299 0.0188 0.3672
vn 0.1150 -0.9929 -0.0294
vn -0.9686 -0.0166 -0.2480
vn -0.5117 0.5701 0.6427
vn -0.0000 0.4525 -0.8918
vn 0.1818 -0.3232 -0.9287
vn 0.4686 -0.6026 -0.6460
vn 0.9958 -0.0002 0.0914
vn -0.8750 0.0874 -0.4762
vn -0.0654 0.7005 0.7107
vn -0.9868 0.0874 -0.1361
vn -0.2717 0.0730 0.9596
vn 0.9866 -0.0887 0.1366
vn 0.0321 0.8323 -0.5534
vn 0.9990 0.0437 0.0092
vn 0.0049 -0.7335 -0.6796
vn -0.9993 -0.0316 -0.0210
vn 0.1755 0.4566 -0.8722
vn 0.9048 0.1828 -0.3847
vn -0.0347 -0.9984 -0.0443
vn -0.9453 0.1237 -0.3018
vn -0.9715 -0.0324 -0.2346
vn 0.9939 -0.0374 0.1041
vn 0.9715 0.0324 0.2346
vn -0.2356 0.2352 0.9430
vn -0.0247 -0.9714 0.2362
vn 0.0247 0.9714 -0.2362
vn 0.9563 0.1509 0.2506
vn -0.1679 -0.5506 0.8177
vn 0.1616 0.5949 -0.7874
vn -0.9439 -0.0975 -0.3154
vn -0.1313 -0.7751 0.6181
vn -0.1185 0.4804 0.8690
vn 0.1210 -0.4606 -0.8793
vn -0.9347 -0.2205 -0.2788
vn 0.1613 0.3809 -0.9104
vn 0.1209 0.8343 -0.5379
vn -0.9837 0.1198 -0.1344
vn 0.9837 -0.1198 0.1344
vn 0.9926 -0.0957 0.0744
vn -0.7869 0.1135 -0.6065
vn -0.5971 -0.5756 0.5587
vn -0.1381 -0.7259 0.6738
vn 0.1222 -0.4508 -0.8842
vn -0.1589 -0.0343 0.9867
vn 0.1474 -0.1845 -0.9717
vn -0.9643 -0.0632 -0.2570
vn 0.9857 -0.1456 0.0846
vn -0.5740 -0.6164 -0.5391
vn 0.8108 0.3967 0.4304
vn 0.7106 0.2151 -0.6699
vn -0.9716 -0.0633 -0.2279
vn -0.8150 0.5360 0.2204
vn 0.7276 -0.3674 0.5793
vn 0.3470 -0.7983 -0.4922
vn 0.9715 -0.0324 -0.2346
vn -0.9939 -0.0374 0.1041
vn -0.9715 0.0324 0.2346
vn 0.2356 0.2352 0.9430
vn 0.0247 -0.9714 0.2362
vn -0.0247 0.9714 -0.2362
vn -0.9563 0.1509 0.2506
vn 0.1679 -0.5506 0.8177
vn -0.1616 0.5949 -0.7874
vn 0.9439 -0.0975 -0.3154
vn 0.1313 -0.7751 0.6181
vn 0.1185 0.4804 0.8690
vn -0.1210 -0.4606 -0.8793
vn 0.9347 -0.2205 -0.2788
vn -0.1613 0.3809 -0.9104
vn -0.1209 0.8343 -0.5379
vn 0.9837 0.1198 -0.1344
vn -0.9837 -0.1198 0.1344
vn -0.9926 -0.0957 0.0744
vn 0.7869 0.1135 -0.6065
vn 0.5971 -0.5756 0.5587
vn 0.1381 -0.7259 0.6738
vn -0.1222 -0.4508 -0.8842
vn 0.1589 -0.0343 0.9867
vn -0.1474 -0.1845 -0.9717
vn 0.9643 -0.0632 -0.2570
vn -0.9857 -0.1456 0.0846
vn 0.5740 -0.6164 -0.5391
vn -0.8108 0.3967 0.4304
vn -0.7106 0.2151 -0.6699
vn 0.9716 -0.0633 -0.2279
vn 0.8150 0.5360 0.2204
vn -0.7276 -0.3674 0.5793
vn -0.3470 -0.7983 -0.4922
vn 1.0000 -0.0000 -0.0000
vn 0.9966 -0.0733 -0.0372
vn -0.0422 0.8910 0.4521
vn 0.0515 -0.8906 -0.4519
vn -0.7425 0.3694 -0.5587
vn 0.0045 0.3641 -0.9314
vn 0.0045 -0.5366 0.8438
vn 0.6775 -0.4966 0.5426
vn -0.9804 -0.1944 -0.0320
vn 0.9980 0.0621 0.0129
vn 0.0007 0.6299 -0.7767
vn -0.0006 -0.7376 0.6752
vn -0.9896 -0.1306 -0.0602
vn 0.9896 0.1309 0.0602
vn -0.9937 0.1107 -0.0174
vn -0.0004 0.9046 0.4262
vn 0.9937 -0.1107 0.0174
vn 0.0003 -0.9228 -0.3853
vn -0.1102 0.0326 0.9934
vn 0.0373 0.7378 -0.6740
vn -0.0413 -0.6650 0.7457
vn -0.0008 -1.0000 0.0068
vn -0.0407 0.9975 -0.0581
vn -0.0013 -0.9999 0.0121
vn 0.1096 -0.1140 -0.9874
vn 0.9910 -0.0124 -0.1335
vn -0.9337 -0.0130 -0.3577
vn 0.0347 0.9492 -0.3128
vn 0.9939 -0.0000 0.1103
vn -0.6095 -0.0226 -0.7924
vn 0.8535 0.0131 0.5209
vn 0.5546 0.8315 0.0325
vn 0.0068 -0.9999 0.0081
vn -0.9299 0.0188 0.3672
vn -0.1150 -0.9929 -0.0294
vn 0.9686 -0.0166 -0.2480
vn 0.5117 0.5701 0.6427
vn -0.1818 -0.3232 -0.9287
vn -0.4686 -0.6026 -0.6460
vn -0.9958 -0.0002 0.0914
vn 0.8750 0.0874 -0.4762
vn 0.0654 0.7005 0.7107
vn 0.9868 0.0874 -0.1361
vn 0.2717 0.0730 0.9596
vn -0.9866 -0.0887 0.1366
vn -0.0321 0.8323 -0.5534
vn -0.9990 0.0437 0.0092
vn -0.0049 -0.7335 -0.6796
vn 0.9993 -0.0316 -0.0210
vn -0.1755 0.4566 -0.8722
vn -0.9048 0.1828 -0.3847
vn 0.0347 -0.9984 -0.0443
vn 0.9453 0.1237 -0.3018
vt 0.375000 0.000000
vt 0.625000 0.000000
vt 0.625000 0.250000
vt 0.375000 0.250000
vt 0.375000 0.875000
vt 0.625000 0.875000
vt 0.625000 1.000000
vt 0.375000 1.000000
vt 0.750000 0.500000
vt 0.875000 0.500000
vt 0.875000 0.750000
vt 0.750000 0.750000
vt 0.375000 0.375000
vt 0.125000 0.500000
vt 0.250000 0.500000
vt 0.250000 0.750000
vt 0.125000 0.750000
vt 0.625000 0.375000
vt 0.625000 0.500000
vt 0.375000 0.500000
vt 0.625000 0.750000
vt 0.375000 0.750000
s 0
f 1/1/1 2/2/1 4/3/1 3/4/1
f 49/5/2 50/6/2 2/7/2 1/8/2
f 49/5/3 1/8/3 6/8/3 52/5/3
f 48/9/4 4/10/4 2/11/4 50/12/4
f 1/1/3 3/4/3 5/4/3 6/1/3
f 10/1/5 9/4/5 7/4/5 8/1/5
f 56/5/6 10/8/6 8/8/6 54/5/6
f 52/5/7 6/8/7 10/8/7 56/5/7
f 6/1/8 5/4/8 11/4/8 12/1/8
f 9/4/9 10/1/9 13/1/9 14/4/9
f 11/4/10 14/4/10 18/4/10 15/4/10
f 5/4/11 9/4/11 14/4/11 11/4/11
f 10/8/12 6/8/12 12/8/12 13/8/12
f 13/8/13 12/8/13 16/8/13 17/8/13
f 14/4/14 13/1/14 17/1/14 18/4/14
f 12/1/4 11/4/4 15/4/4 16/1/4
f 20/1/15 19/4/15 22/4/15 21/1/15
f 16/1/4 15/4/4 19/4/4 20/1/4
f 15/4/16 18/4/16 22/4/16 19/4/16
f 17/8/17 16/8/17 20/8/17 21/8/17
f 23/4/18 24/1/18 28/1/18 27/4/18
f 26/1/19 25/4/19 29/4/19 30/1/19
f 18/4/20 17/1/20 24/1/20 23/4/20
f 17/8/21 21/8/21 26/8/21 24/8/21
f 21/1/22 22/4/22 25/4/22 26/1/22
f 22/4/23 18/4/23 23/4/23 25/4/23
f 28/8/24 30/8/24 34/8/24 32/8/24
f 25/4/25 23/4/25 27/4/25 29/4/25
f 24/8/26 26/8/26 30/8/26 28/8/26
f 31/4/27 32/1/27 34/1/27 33/4/27
f 27/4/28 28/1/28 45/1/28 46/4/28
f 31/4/29 33/4/29 37/4/29 38/4/29
f 35/4/30 36/4/30 38/4/30 37/4/30
f 33/4/31 29/4/31 35/4/31 37/4/31
f 27/4/32 31/4/32 38/4/32 36/4/32
f 29/4/33 27/4/33 36/4/33 35/4/33
f 40/1/34 39/4/34 43/4/34 44/1/34
f 29/4/35 33/4/35 43/4/35 39/4/35
f 34/8/36 30/8/36 40/8/36 44/8/36
f 30/1/37 29/4/37 39/4/37 40/1/37
f 33/4/38 34/1/38 44/1/38 43/4/38
f 5/4/39 51/13/39 55/13/39 9/4/39
f 9/4/40 55/13/40 53/13/40 7/4/40
f 28/8/41 32/8/41 41/8/41 45/8/41
f 7/14/3 53/15/3 54/16/3 8/17/3
f 3/4/3 47/13/3 51/13/3 5/4/3
f 32/1/42 31/4/42 42/4/42 41/1/42
f 31/4/43 27/4/43 46/4/43 42/4/43
f 46/4/44 45/1/44 60/1/44 58/4/44
f 3/4/45 4/3/45 48/18/45 47/13/45
f 59/1/46 57/4/46 61/4/46 63/1/46
f 41/1/47 42/4/47 57/4/47 59/1/47
f 45/8/48 41/8/48 59/8/48 60/8/48
f 42/4/49 46/4/49 58/4/49 57/4/49
f 62/4/50 64/1/50 68/1/50 66/4/50
f 57/4/51 58/4/51 62/4/51 61/4/51
f 58/4/52 60/1/52 64/1/52 62/4/52
f 60/8/53 59/8/53 63/8/53 64/8/53
f 66/4/54 68/1/54 72/1/54 70/4/54
f 64/8/55 63/8/55 67/8/55 68/8/55
f 63/1/56 61/4/56 65/4/56 67/1/56
f 61/4/57 62/4/57 66/4/57 65/4/57
f 70/4/58 72/1/58 71/1/58 69/4/58
f 68/8/59 67/8/59 71/8/59 72/8/59
f 67/1/60 65/4/60 69/4/60 71/1/60
f 65/4/61 66/4/61 70/4/61 69/4/61
f 73/1/62 74/2/62 76/3/62 75/4/62
f 80/19/63 79/20/63 83/20/63 84/19/63
f 79/20/64 80/19/64 78/21/64 77/22/64
f 77/22/65 78/21/65 74/7/65 73/8/65
f 75/14/66 79/20/66 77/22/66 73/17/66
f 80/19/67 76/10/67 74/11/67 78/21/67
f 84/19/68 83/20/68 87/20/68 88/19/68
f 79/20/69 75/14/69 82/14/69 83/20/69
f 76/10/70 80/19/70 84/19/70 81/10/70
f 75/4/71 76/3/71 81/3/71 82/4/71
f 87/20/72 86/14/72 90/14/72 91/20/72
f 83/20/73 82/14/73 86/14/73 87/20/73
f 81/10/74 84/19/74 88/19/74 85/10/74
f 82/4/75 81/3/75 85/3/75 86/4/75
f 89/10/76 92/19/76 96/19/76 93/10/76
f 85/10/77 88/19/77 92/19/77 89/10/77
f 86/4/78 85/3/78 89/3/78 90/4/78
f 88/19/79 87/20/79 91/20/79 92/19/79
f 96/19/80 95/20/80 99/20/80 100/19/80
f 89/10/81 93/10/81 107/10/81 105/10/81
f 91/20/82 95/20/82 104/20/82 102/20/82
f 91/20/83 90/14/83 94/14/83 95/20/83
f 98/4/84 97/3/84 100/19/84 99/20/84
f 95/20/85 94/14/85 98/14/85 99/20/85
f 93/10/86 96/19/86 100/19/86 97/10/86
f 94/4/87 93/3/87 97/3/87 98/4/87
f 101/19/88 102/20/88 104/20/88 103/19/88
f 95/20/89 96/19/89 103/19/89 104/20/89
f 92/19/90 91/20/90 102/20/90 101/19/90
f 96/19/91 92/19/91 101/19/91 103/19/91
f 106/4/92 105/3/92 107/3/92 108/4/92
f 90/4/93 89/3/93 105/3/93 106/4/93
f 94/14/94 90/14/94 106/14/94 108/14/94
f 93/3/95 94/4/95 108/4/95 107/3/95
f 109/1/96 111/4/96 112/3/96 110/2/96
f 116/19/97 120/19/97 119/20/97 115/20/97
f 115/20/98 113/22/98 114/21/98 116/19/98
f 113/22/99 109/8/99 110/7/99 114/21/99
f 111/14/100 109/17/100 113/22/100 115/20/100
f 116/19/101 114/21/101 110/11/101 112/10/101
f 120/19/102 124/19/102 123/20/102 119/20/102
f 115/20/103 119/20/103 118/14/103 111/14/103
f 112/10/104 117/10/104 120/19/104 116/19/104
f 111/4/105 118/4/105 117/3/105 112/3/105
f 123/20/106 127/20/106 126/14/106 122/14/106
f 119/20/107 123/20/107 122/14/107 118/14/107
f 117/10/108 121/10/108 124/19/108 120/19/108
f 118/4/109 122/4/109 121/3/109 117/3/109
f 125/10/110 129/10/110 132/19/110 128/19/110
f 121/10/111 125/10/111 128/19/111 124/19/111
f 122/4/112 126/4/112 125/3/112 121/3/112
f 124/19/113 128/19/113 127/20/113 123/20/113
f 132/19/114 136/19/114 135/20/114 131/20/114
f 125/10/115 141/10/115 143/10/115 129/10/115
f 127/20/116 138/20/116 140/20/116 131/20/116
f 127/20/117 131/20/117 130/14/117 126/14/117
f 134/4/118 135/20/118 136/19/118 133/3/118
f 131/20/119 135/20/119 134/14/119 130/14/119
f 129/10/120 133/10/120 136/19/120 132/19/120
f 130/4/121 134/4/121 133/3/121 129/3/121
f 137/19/122 139/19/122 140/20/122 138/20/122
f 131/20/123 140/20/123 139/19/123 132/19/123
f 128/19/124 137/19/124 138/20/124 127/20/124
f 132/19/125 139/19/125 137/19/125 128/19/125
f 142/4/126 144/4/126 143/3/126 141/3/126
f 126/4/127 142/4/127 141/3/127 125/3/127
f 130/14/128 144/14/128 142/14/128 126/14/128
f 129/3/129 143/3/129 144/4/129 130/4/129
f 145/1/130 147/4/130 148/3/130 146/2/130
f 49/5/2 145/8/2 146/7/2 50/6/2
f 49/5/3 52/5/3 150/8/3 145/8/3
f 48/9/4 50/12/4 146/11/4 148/10/4
f 145/1/3 150/1/3 149/4/3 147/4/3
f 154/1/131 152/1/131 151/4/131 153/4/131
f 56/5/6 54/5/6 152/8/6 154/8/6
f 52/5/7 56/5/7 154/8/7 150/8/7
f 150/1/132 156/1/132 155/4/132 149/4/132
f 153/4/133 158/4/133 157/1/133 154/1/133
f 155/4/134 159/4/134 162/4/134 158/4/134
f 149/4/135 155/4/135 158/4/135 153/4/135
f 154/8/136 157/8/136 156/8/136 150/8/136
f 157/8/137 161/8/137 160/8/137 156/8/137
f 158/4/138 162/4/138 161/1/138 157/1/138
f 156/1/4 160/1/4 159/4/4 155/4/4
f 164/1/139 165/1/139 166/4/139 163/4/139
f 160/1/4 164/1/4 163/4/4 159/4/4
f 159/4/140 163/4/140 166/4/140 162/4/140
f 161/8/141 165/8/141 164/8/141 160/8/141
f 167/4/142 171/4/142 172/1/142 168/1/142
f 170/1/143 174/1/143 173/4/143 169/4/143
f 162/4/144 167/4/144 168/1/144 161/1/144
f 161/8/145 168/8/145 170/8/145 165/8/145
f 165/1/146 170/1/146 169/4/146 166/4/146
f 166/4/147 169/4/147 167/4/147 162/4/147
f 172/8/148 176/8/148 178/8/148 174/8/148
f 169/4/149 173/4/149 171/4/149 167/4/149
f 168/8/150 172/8/150 174/8/150 170/8/150
f 175/4/151 177/4/151 178/1/151 176/1/151
f 171/4/152 190/4/152 189/1/152 172/1/152
f 175/4/153 182/4/153 181/4/153 177/4/153
f 179/4/154 181/4/154 182/4/154 180/4/154
f 177/4/155 181/4/155 179/4/155 173/4/155
f 171/4/156 180/4/156 182/4/156 175/4/156
f 173/4/157 179/4/157 180/4/157 171/4/157
f 184/1/158 188/1/158 187/4/158 183/4/158
f 173/4/159 183/4/159 187/4/159 177/4/159
f 178/8/160 188/8/160 184/8/160 174/8/160
f 174/1/161 184/1/161 183/4/161 173/4/161
f 177/4/162 187/4/162 188/1/162 178/1/162
f 149/4/39 153/4/39 55/13/39 51/13/39
f 153/4/40 151/4/40 53/13/40 55/13/40
f 172/8/163 189/8/163 185/8/163 176/8/163
f 151/14/3 152/17/3 54/16/3 53/15/3
f 147/4/3 149/4/3 51/13/3 47/13/3
f 176/1/164 185/1/164 186/4/164 175/4/164
f 175/4/165 186/4/165 190/4/165 171/4/165
f 190/4/166 192/4/166 194/1/166 189/1/166
f 147/4/45 47/13/45 48/18/45 148/3/45
f 193/1/167 197/1/167 195/4/167 191/4/167
f 185/1/168 193/1/168 191/4/168 186/4/168
f 189/8/169 194/8/169 193/8/169 185/8/169
f 186/4/170 191/4/170 192/4/170 190/4/170
f 196/4/171 200/4/171 202/1/171 198/1/171
f 191/4/172 195/4/172 196/4/172 192/4/172
f 192/4/173 196/4/173 198/1/173 194/1/173
f 194/8/174 198/8/174 197/8/174 193/8/174
f 200/4/175 204/4/175 206/1/175 202/1/175
f 198/8/176 202/8/176 201/8/176 197/8/176
f 197/1/177 201/1/177 199/4/177 195/4/177
f 195/4/178 199/4/178 200/4/178 196/4/178
f 204/4/179 203/4/179 205/1/179 206/1/179
f 202/8/180 206/8/180 205/8/180 201/8/180
f 201/1/181 205/1/181 203/4/181 199/4/181
f 199/4/182 203/4/182 204/4/182 200/4/182
f 207/1/96 209/4/96 210/3/96 208/2/96
f 214/19/97 218/19/97 217/20/97 213/20/97
f 213/20/98 211/22/98 212/21/98 214/19/98
f 211/22/99 207/8/99 208/7/99 212/21/99
f 209/14/100 207/17/100 211/22/100 213/20/100
f 214/19/101 212/21/101 208/11/101 210/10/101
f 218/19/102 222/19/102 221/20/102 217/20/102
f 213/20/103 217/20/103 216/14/103 209/14/103
f 210/10/104 215/10/104 218/19/104 214/19/104
f 209/4/105 216/4/105 215/3/105 210/3/105
f 221/20/106 225/20/106 224/14/106 220/14/106
f 217/20/107 221/20/107 220/14/107 216/14/107
f 215/10/108 219/10/108 222/19/108 218/19/108
f 216/4/109 220/4/109 219/3/109 215/3/109
f 223/10/110 227/10/110 230/19/110 226/19/110
f 219/10/111 223/10/111 226/19/111 222/19/111
f 220/4/112 224/4/112 223/3/112 219/3/112
f 222/19/113 226/19/113 225/20/113 221/20/113
f 230/19/114 234/19/114 233/20/114 229/20/114
f 223/10/115 239/10/115 241/10/115 227/10/115
f 225/20/116 236/20/116 238/20/116 229/20/116
f 225/20/117 229/20/117 228/14/117 224/14/117
f 232/4/118 233/20/118 234/19/118 231/3/118
f 229/20/119 233/20/119 232/14/119 228/14/119
f 227/10/120 231/10/120 234/19/120 230/19/120
f 228/4/121 232/4/121 231/3/121 227/3/121
f 235/19/122 237/19/122 238/20/122 236/20/122
f 229/20/123 238/20/123 237/19/123 230/19/123
f 226/19/124 235/19/124 236/20/124 225/20/124
f 230/19/125 237/19/125 235/19/125 226/19/125
f 240/4/126 242/4/126 241/3/126 239/3/126
f 224/4/127 240/4/127 239/3/127 223/3/127
f 228/14/128 242/14/128 240/14/128 224/14/128
f 227/3/129 241/3/129 242/4/129 228/4/129
f 243/1/62 244/2/62 246/3/62 245/4/62
f 250/19/63 249/20/63 253/20/63 254/19/63
f 249/20/64 250/19/64 248/21/64 247/22/64
f 247/22/65 248/21/65 244/7/65 243/8/65
f 245/14/66 249/20/66 247/22/66 243/17/66
f 250/19/67 246/10/67 244/11/67 248/21/67
f 254/19/68 253/20/68 257/20/68 258/19/68
f 249/20/69 245/14/69 252/14/69 253/20/69
f 246/10/70 250/19/70 254/19/70 251/10/70
f 245/4/71 246/3/71 251/3/71 252/4/71
f 257/20/72 256/14/72 260/14/72 261/20/72
f 253/20/73 252/14/73 256/14/73 257/20/73
f 251/10/74 254/19/74 258/19/74 255/10/74
f 252/4/75 251/3/75 255/3/75 256/4/75
f 259/10/76 262/19/76 266/19/76 263/10/76
f 255/10/77 258/19/77 262/19/77 259/10/77
f 256/4/78 255/3/78 259/3/78 260/4/78
f 258/19/79 257/20/79 261/20/79 262/19/79
f 266/19/80 265/20/80 269/20/80 270/19/80
f 259/10/81 263/10/81 277/10/81 275/10/81
f 261/20/82 265/20/82 274/20/82 272/20/82
f 261/20/83 260/14/83 264/14/83 265/20/83
f 268/4/84 267/3/84 270/19/84 269/20/84
f 265/20/85 264/14/85 268/14/85 269/20/85
f 263/10/86 266/19/86 270/19/86 267/10/86
f 264/4/87 263/3/87 267/3/87 268/4/87
f 271/19/88 272/20/88 274/20/88 273/19/88
f 265/20/89 266/19/89 273/19/89 274/20/89
f 262/19/90 261/20/90 272/20/90 271/19/90
f 266/19/91 262/19/91 271/19/91 273/19/91
f 276/4/92 275/3/92 277/3/92 278/4/92
f 260/4/93 259/3/93 275/3/93 276/4/93
f 264/14/94 260/14/94 276/14/94 278/14/94
f 263/3/95 264/4/95 278/4/95 277/3/95
