# Blender 3.6.2
# www.blender.org
mtllib BrontoSkull.mtl
o Brontoskull
v -1.756047 26.419214 155.026245
v -1.756047 29.931307 155.026245
v -0.374654 26.419214 151.514160
v -0.374654 29.931307 151.514160
v 1.756047 26.419214 155.026245
v 1.756047 29.931307 155.026245
v 0.374654 26.419214 151.514160
v 0.374654 29.931307 151.514160
v -0.948700 26.419214 148.513184
v -4.446663 26.419214 152.025284
v -4.446663 29.931307 152.025284
v -0.948700 29.931307 148.513184
v 0.948700 29.931307 148.513184
v 0.948700 26.419214 148.513184
v 4.446663 26.419214 152.025284
v 4.446663 29.931307 152.025284
v -1.875836 26.419214 140.622406
v -5.686857 26.419214 140.539307
v -5.686857 29.931307 140.539307
v -1.875836 29.931307 140.622406
v 1.875836 29.931307 140.622406
v 1.875836 26.419214 140.622406
v 5.686857 26.419214 140.539307
v 5.686857 29.931307 140.539307
v -1.875836 26.419214 132.613693
v -5.686857 26.419214 132.530609
v -5.686857 29.931307 132.530609
v -1.875836 29.931307 132.613693
v 1.875836 29.931307 132.613693
v 1.875836 26.419214 132.613693
v 5.686857 26.419214 132.530609
v 5.686857 29.931307 132.530609
v -1.875836 28.064409 129.784332
v -5.686857 28.121012 129.723495
v -5.686857 30.692259 132.115875
v -1.875836 30.635654 132.176712
v 1.875836 30.635654 132.176712
v 1.875836 28.064409 129.784332
v 5.686857 28.121012 129.723495
v 5.686857 30.692259 132.115875
v -1.875836 29.726418 127.998062
v -5.686857 29.783022 127.937225
v -5.686857 32.354267 130.329605
v -1.875836 32.297665 130.390442
v 1.875836 32.297665 130.390442
v 1.875836 29.726418 127.998062
v 5.686857 29.783022 127.937225
v 5.686857 32.354267 130.329605
v 4.116457 4.194298 -6.347778
v 4.116457 -4.194292 -6.347778
v 4.116457 4.194298 15.845169
v 4.116457 -4.194292 15.845169
v -4.116457 4.194298 -6.347778
v -4.116457 -4.194292 -6.347778
v -4.116457 4.194298 15.845169
v -4.116457 -4.194292 15.845169
v -4.116457 6.147835 47.433464
v -4.116457 14.159688 44.947762
v 4.116457 14.159688 44.947762
v 4.116457 6.147835 47.433464
v -4.116457 25.961460 74.977753
v -4.116457 31.600765 68.767540
v 4.116457 31.600765 68.767540
v 4.116457 25.961460 74.977753
v -4.116457 33.431183 101.700684
v -4.116457 41.819515 101.767120
v 4.116457 41.819515 101.767120
v 4.116457 33.431183 101.700684
v -4.116457 33.194088 130.624115
v -4.116457 41.582420 130.690536
v 4.116457 41.582420 130.690536
v 4.116457 33.194088 130.624115
v -1.716351 31.598171 156.155106
v -1.716351 35.030872 156.155106
v -1.716351 31.598171 152.722397
v -2.410359 37.331673 152.722397
v 1.716351 31.598171 156.155106
v 1.716351 35.030872 156.155106
v 1.716351 31.598171 152.722397
v 2.410359 37.331673 152.722397
v -1.716351 39.591125 152.710999
v -2.656949 36.627613 150.978653
v 2.656949 36.627613 150.978653
v 1.716351 39.591125 152.710999
v -1.716351 40.674160 147.979126
v -2.766169 37.356651 145.346237
v 2.766169 37.356651 145.346237
v 1.716351 40.674160 147.979126
v -1.716351 45.830227 145.822189
v -1.716351 42.512718 144.940399
v 1.716351 42.512718 144.940399
v 1.716351 45.830227 145.822189
v -1.716351 47.695442 138.804794
v -1.716351 44.377930 137.923004
v 1.716351 44.377930 137.923004
v 1.716351 47.695442 138.804794
v -1.716351 47.374111 130.720367
v -1.716351 43.974434 131.195358
v 1.716351 43.974434 131.195358
v 1.716351 47.374111 130.720367
v -2.057074 31.598171 152.722397
v -4.363215 31.598171 153.610809
v -4.363215 35.030872 153.610809
v -2.057074 37.473000 152.722397
v 2.057074 37.473000 152.722397
v 2.057074 31.598171 152.722397
v 4.363215 31.598171 153.610809
v 4.363215 35.030872 153.610809
v -2.773479 31.598171 143.895401
v -5.882765 31.598171 143.837357
v -5.882765 35.030872 143.837357
v -2.773479 37.473000 141.968765
v 2.773479 37.473000 141.968765
v 2.773479 31.598171 143.895401
v 5.882765 31.598171 143.837357
v 5.882765 35.030872 143.837357
v -2.773479 31.598171 141.789902
v -5.882765 31.598171 141.731842
v -5.882765 35.030872 139.894821
v -1.792388 44.992165 140.930084
v 1.792388 44.992165 140.930084
v 2.773479 31.598171 141.789902
v 5.882765 31.598171 141.731842
v 5.882765 35.030872 139.894821
v -2.773479 31.598171 138.043747
v -5.882765 31.598171 137.985687
v -5.882765 35.030872 137.985687
v -1.792388 44.992165 140.030319
v 1.792388 44.992165 140.030319
v 2.773479 31.598171 138.043747
v 5.882765 31.598171 137.985687
v 5.882765 35.030872 137.985687
v -2.773479 31.597548 137.433899
v -5.882765 31.597548 137.375854
v -5.882765 35.030251 137.375854
v -3.524296 38.331249 137.843384
v 3.524296 38.331249 137.843384
v 2.773479 31.597548 137.433899
v 5.882765 31.597548 137.375854
v 5.882765 35.030251 137.375854
v -2.773479 31.594553 134.506027
v -5.882765 31.594553 134.447968
v -5.882765 35.027256 134.447968
v -3.524296 39.740746 135.471085
v 3.524296 39.740746 135.471085
v 2.773479 31.594553 134.506027
v 5.882765 31.594553 134.447968
v 5.882765 35.027256 134.447968
v -2.773479 31.595108 134.080795
v -5.882765 31.595108 134.022736
v -5.882765 35.027809 134.022736
v -1.682388 45.152306 134.080795
v 1.682388 45.152306 134.080795
v 2.773479 31.595108 134.080795
v 5.882765 31.595108 134.022736
v 5.882765 35.027809 134.022736
v -2.773479 31.598919 131.157913
v -5.882765 31.598919 131.099869
v -5.882765 35.031620 131.099869
v -1.682388 45.156113 131.157913
v 1.682388 45.156113 131.157913
v 2.773479 31.598919 131.157913
v 5.882765 31.598919 131.099869
v 5.882765 35.031620 131.099869
vn -0.7446 -0.0000 0.6676
vn -0.0000 -0.0000 -1.0000
vn 0.9822 -0.0000 -0.1879
vn -0.0000 -0.0000 1.0000
vn -0.0000 -1.0000 -0.0000
vn -0.0000 1.0000 -0.0000
vn -0.9822 -0.0000 -0.1879
vn 0.7446 -0.0000 0.6676
vn -1.0000 -0.0000 -0.0000
vn 0.9942 -0.0000 0.1074
vn 0.9932 -0.0000 -0.1167
vn -0.9942 -0.0000 0.1074
vn -0.9932 -0.0000 -0.1167
vn 1.0000 -0.0000 -0.0000
vn -0.0033 -0.8598 -0.5106
vn -0.0000 -0.7321 -0.6812
vn 0.0126 0.5025 0.8645
vn -0.0126 0.5025 0.8645
vn 0.0033 -0.8598 -0.5106
vn 0.0218 0.6810 -0.7319
vn -0.0218 0.6810 -0.7319
vn -0.0000 0.7321 0.6812
vn -0.0000 0.8068 -0.5908
vn -0.0000 -0.9504 0.3112
vn -0.0000 0.9461 -0.3240
vn -0.0000 0.9552 -0.2958
vn -0.0000 -0.8118 0.5840
vn -0.0000 -1.0000 -0.0082
vn -0.0000 -0.9631 0.2692
vn -0.0000 -0.0079 1.0000
vn -0.0000 1.0000 0.0082
vn -0.6930 -0.0000 0.7209
vn -0.0000 -0.9273 0.3744
vn 0.9624 0.2657 0.0566
vn 0.9238 0.2850 0.2558
vn -0.9238 0.2850 0.2558
vn -0.0000 0.6027 0.7980
vn -0.0000 0.3859 0.9225
vn -0.9624 0.2657 0.0566
vn -0.0000 0.9748 0.2231
vn -0.0000 -0.9917 -0.1284
vn -0.0000 -0.0785 -0.9969
vn 0.9903 0.1187 0.0718
vn -0.9903 0.1187 0.0718
vn -0.0000 0.9664 0.2569
vn -0.0000 -0.9664 -0.2569
vn -0.0000 -0.1384 -0.9904
vn -0.0000 0.9992 -0.0397
vn -0.0000 -0.9982 0.0599
vn 0.9973 -0.0120 -0.0730
vn 0.5395 0.6599 0.5230
vn -0.5395 0.6599 0.5230
vn 0.6930 -0.0000 0.7209
vn -0.9602 -0.0085 0.2793
vn 0.7125 0.4498 0.5386
vn -0.9881 -0.0000 0.1536
vn 0.6480 0.7583 0.0706
vn -0.9973 -0.0120 -0.0730
vn -0.6480 0.7583 0.0706
vn 0.9881 -0.0000 0.1536
vn 0.9973 -0.0731 -0.0000
vn -0.7125 0.4498 0.5386
vn 0.9602 -0.0085 0.2793
vn -0.7692 0.0669 -0.6355
vn 0.6433 0.4325 -0.6317
vn 0.9250 0.3798 -0.0000
vn -0.9973 -0.0731 -0.0000
vn -0.9250 0.3798 -0.0000
vn 0.9948 0.0980 0.0260
vn -0.6433 0.4325 -0.6317
vn -0.0000 -1.0000 0.0010
vn 0.7692 0.0669 -0.6355
vn -0.7596 -0.0408 0.6491
vn 0.8974 0.3804 0.2235
vn 0.8649 0.4851 0.1287
vn -0.9948 0.0980 0.0260
vn -0.8649 0.4851 0.1287
vn 0.9968 -0.0802 -0.0001
vn -0.8974 0.3804 0.2235
vn -0.0000 -1.0000 -0.0013
vn 0.7596 -0.0408 0.6491
vn 0.0174 -0.0011 -0.9998
vn -0.0174 -0.0011 -0.9998
vn 0.9237 0.3832 0.0005
vn -0.9968 -0.0802 -0.0001
vn -0.9237 0.3832 0.0005
vt 0.375000 1.000000
vt 0.625000 1.000000
vt 0.375000 0.250000
vt 0.625000 0.250000
vt 0.625000 0.500000
vt 0.375000 0.500000
vt 0.375000 0.750000
vt 0.625000 0.750000
vt 0.125000 0.500000
vt 0.125000 0.750000
vt 0.875000 0.500000
vt 0.875000 0.750000
vt 0.375000 0.000000
vt 0.625000 0.000000
s 0
usemtl Material
f 1/1/1 2/2/1 11/2/1 10/1/1
f 3/3/2 4/4/2 8/5/2 7/6/2
f 4/4/3 3/3/3 9/3/3 12/4/3
f 5/7/4 6/8/4 2/2/4 1/1/4
f 3/9/5 7/6/5 5/7/5 1/10/5
f 8/5/6 4/11/6 2/12/6 6/8/6
f 9/9/5 10/10/5 18/10/5 17/9/5
f 11/12/6 12/11/6 20/11/6 19/12/6
f 8/5/6 6/8/6 16/8/6 13/5/6
f 7/6/7 8/5/7 13/5/7 14/6/7
f 2/12/6 4/11/6 12/11/6 11/12/6
f 3/9/5 1/10/5 10/10/5 9/9/5
f 6/8/8 5/7/8 15/7/8 16/8/8
f 5/7/5 7/6/5 14/6/5 15/7/5
f 22/6/9 21/5/9 29/5/9 30/6/9
f 21/5/6 24/8/6 32/8/6 29/5/6
f 16/8/10 15/7/10 23/7/10 24/8/10
f 15/7/5 14/6/5 22/6/5 23/7/5
f 12/4/11 9/3/11 17/3/11 20/4/11
f 10/1/12 11/2/12 19/2/12 18/1/12
f 13/5/6 16/8/6 24/8/6 21/5/6
f 14/6/13 13/5/13 21/5/13 22/6/13
f 28/4/14 25/3/14 33/3/14 36/4/14
f 31/7/15 30/6/15 38/6/15 39/7/15
f 19/12/6 20/11/6 28/11/6 27/12/6
f 17/9/5 18/10/5 26/10/5 25/9/5
f 24/8/14 23/7/14 31/7/14 32/8/14
f 23/7/5 22/6/5 30/6/5 31/7/5
f 20/4/14 17/3/14 25/3/14 28/4/14
f 18/1/9 19/2/9 27/2/9 26/1/9
f 40/8/14 39/7/14 47/7/14 48/8/14
f 33/9/16 34/10/16 42/10/16 41/9/16
f 26/1/9 27/2/9 35/2/9 34/1/9
f 29/5/17 32/8/17 40/8/17 37/5/17
f 30/6/9 29/5/9 37/5/9 38/6/9
f 27/12/18 28/11/18 36/11/18 35/12/18
f 25/9/19 26/10/19 34/10/19 33/9/19
f 32/8/14 31/7/14 39/7/14 40/8/14
f 42/13/20 43/14/20 44/4/20 41/3/20
f 46/6/21 45/5/21 48/8/21 47/7/21
f 39/7/16 38/6/16 46/6/16 47/7/16
f 36/4/14 33/3/14 41/3/14 44/4/14
f 34/1/9 35/2/9 43/2/9 42/1/9
f 37/5/22 40/8/22 48/8/22 45/5/22
f 38/6/9 37/5/9 45/5/9 46/6/9
f 35/12/22 36/11/22 44/11/22 43/12/22
f 49/5/6 53/11/6 55/12/6 51/8/6
f 55/14/9 56/13/9 57/13/9 58/14/9
f 56/13/9 55/14/9 53/4/9 54/3/9
f 54/9/5 50/6/5 52/7/5 56/10/5
f 50/6/14 49/5/14 51/8/14 52/7/14
f 54/3/2 53/4/2 49/5/2 50/6/2
f 59/8/23 58/12/23 62/12/23 63/8/23
f 56/10/24 52/7/24 60/7/24 57/10/24
f 51/8/25 55/12/25 58/12/25 59/8/25
f 52/7/14 51/8/14 59/8/14 60/7/14
f 63/8/26 62/12/26 66/12/26 67/8/26
f 58/14/9 57/13/9 61/13/9 62/14/9
f 57/10/27 60/7/27 64/7/27 61/10/27
f 60/7/14 59/8/14 63/8/14 64/7/14
f 65/10/28 68/7/28 72/7/28 69/10/28
f 62/14/9 61/13/9 65/13/9 66/14/9
f 61/10/29 64/7/29 68/7/29 65/10/29
f 64/7/14 63/8/14 67/8/14 68/7/14
f 72/7/30 71/8/30 70/2/30 69/1/30
f 68/7/14 67/8/14 71/8/14 72/7/14
f 67/8/31 66/12/31 70/12/31 71/8/31
f 66/14/9 65/13/9 69/13/9 70/14/9
f 73/1/32 74/2/32 103/2/32 102/1/32
f 75/3/2 76/4/2 80/5/2 79/6/2
f 76/4/4 75/3/4 101/3/4 104/4/4
f 77/7/4 78/8/4 74/2/4 73/1/4
f 75/9/5 79/6/5 77/7/5 73/10/5
f 80/5/33 76/4/33 82/4/33 83/5/33
f 84/8/34 83/5/34 87/5/34 88/8/34
f 78/8/35 80/5/35 83/5/35 84/8/35
f 76/4/36 74/14/36 81/14/36 82/4/36
f 74/2/37 78/8/37 84/8/37 81/2/37
f 85/2/38 88/8/38 92/8/38 89/2/38
f 82/4/39 81/14/39 85/14/39 86/4/39
f 81/2/40 84/8/40 88/8/40 85/2/40
f 83/5/41 82/4/41 86/4/41 87/5/41
f 92/8/14 91/5/14 95/5/14 96/8/14
f 87/5/42 86/4/42 90/4/42 91/5/42
f 88/8/43 87/5/43 91/5/43 92/8/43
f 86/4/44 85/14/44 89/14/44 90/4/44
f 96/8/14 95/5/14 99/5/14 100/8/14
f 90/4/9 89/14/9 93/14/9 94/4/9
f 89/2/45 92/8/45 96/8/45 93/2/45
f 91/5/46 90/4/46 94/4/46 95/5/46
f 99/5/47 98/11/47 97/12/47 100/8/47
f 94/4/9 93/14/9 97/14/9 98/4/9
f 93/2/48 96/8/48 100/8/48 97/2/48
f 95/5/49 94/4/49 98/4/49 99/5/49
f 104/4/50 101/3/50 109/3/50 112/4/50
f 107/7/5 106/6/5 114/6/5 115/7/5
f 80/5/51 78/8/51 108/8/51 105/5/51
f 79/6/4 80/5/4 105/5/4 106/6/4
f 74/14/52 76/4/52 104/4/52 103/14/52
f 75/9/5 73/10/5 102/10/5 101/9/5
f 78/8/53 77/7/53 107/7/53 108/8/53
f 77/7/5 79/6/5 106/6/5 107/7/5
f 114/6/54 113/5/54 121/5/54 122/6/54
f 113/5/55 116/8/55 124/8/55 121/5/55
f 102/1/56 103/2/56 111/2/56 110/1/56
f 105/5/57 108/8/57 116/8/57 113/5/57
f 106/6/58 105/5/58 113/5/58 114/6/58
f 103/14/59 104/4/59 112/4/59 111/14/59
f 101/9/5 102/10/5 110/10/5 109/9/5
f 108/8/60 107/7/60 115/7/60 116/8/60
f 120/4/61 117/3/61 125/3/61 128/4/61
f 123/7/5 122/6/5 130/6/5 131/7/5
f 111/14/62 112/4/62 120/4/62 119/14/62
f 109/9/5 110/10/5 118/10/5 117/9/5
f 116/8/14 115/7/14 123/7/14 124/8/14
f 115/7/5 114/6/5 122/6/5 123/7/5
f 112/4/63 109/3/63 117/3/63 120/4/63
f 110/1/9 111/2/9 119/2/9 118/1/9
f 130/6/64 129/5/64 137/5/64 138/6/64
f 129/5/65 132/8/65 140/8/65 137/5/65
f 118/1/9 119/2/9 127/2/9 126/1/9
f 121/5/66 124/8/66 132/8/66 129/5/66
f 122/6/67 121/5/67 129/5/67 130/6/67
f 119/14/68 120/4/68 128/4/68 127/14/68
f 117/9/5 118/10/5 126/10/5 125/9/5
f 124/8/14 123/7/14 131/7/14 132/8/14
f 134/1/9 135/2/9 143/2/9 142/1/9
f 136/4/69 133/3/69 141/3/69 144/4/69
f 127/14/70 128/4/70 136/4/70 135/14/70
f 125/9/71 126/10/71 134/10/71 133/9/71
f 132/8/14 131/7/14 139/7/14 140/8/14
f 131/7/71 130/6/71 138/6/71 139/7/71
f 128/4/72 125/3/72 133/3/72 136/4/72
f 126/1/9 127/2/9 135/2/9 134/1/9
f 146/6/73 145/5/73 153/5/73 154/6/73
f 145/5/74 148/8/74 156/8/74 153/5/74
f 137/5/75 140/8/75 148/8/75 145/5/75
f 138/6/76 137/5/76 145/5/76 146/6/76
f 135/14/77 136/4/77 144/4/77 143/14/77
f 133/9/71 134/10/71 142/10/71 141/9/71
f 140/8/14 139/7/14 147/7/14 148/8/14
f 139/7/71 138/6/71 146/6/71 147/7/71
f 150/1/9 151/2/9 159/2/9 158/1/9
f 152/4/78 149/3/78 157/3/78 160/4/78
f 143/14/79 144/4/79 152/4/79 151/14/79
f 141/9/80 142/10/80 150/10/80 149/9/80
f 148/8/14 147/7/14 155/7/14 156/8/14
f 147/7/80 146/6/80 154/6/80 155/7/80
f 144/4/81 141/3/81 149/3/81 152/4/81
f 142/1/9 143/2/9 151/2/9 150/1/9
f 158/13/82 159/14/82 160/4/82 157/3/82
f 162/6/83 161/5/83 164/8/83 163/7/83
f 153/5/84 156/8/84 164/8/84 161/5/84
f 154/6/85 153/5/85 161/5/85 162/6/85
f 151/14/86 152/4/86 160/4/86 159/14/86
f 149/9/80 150/10/80 158/10/80 157/9/80
f 156/8/14 155/7/14 163/7/14 164/8/14
f 155/7/80 154/6/80 162/6/80 163/7/80
