# Blender 3.6.2
# www.blender.org
mtllib corythoskull.mtl
o Skull
v -1.499818 -14.968106 34.693855
v -4.394586 -12.713704 38.569881
v -1.044057 -14.968106 31.694220
v -1.044057 -12.713704 31.694220
v 1.499818 -14.968106 34.693855
v 4.394586 -12.713704 38.569881
v 1.044057 -14.968106 31.694220
v 1.044057 -12.713704 31.694220
v -1.856146 -14.538869 32.389042
v -2.666407 -14.538869 33.911602
v -3.814314 -12.917797 35.879002
v -1.856146 -12.758573 32.389042
v 1.856146 -12.758573 32.389042
v 1.856146 -14.538869 32.389042
v 2.666407 -14.538869 33.911602
v 3.814314 -12.917797 35.879002
v -2.351941 -8.165062 8.943804
v -2.351941 -11.003207 4.333263
v 2.351941 -8.165062 8.943804
v 2.351941 -11.003207 4.333263
v -4.181330 -8.315483 8.879398
v -4.181330 -10.573969 4.268860
v 4.181330 -8.315483 8.879398
v 4.181330 -10.573969 4.268860
v -2.533380 -7.375152 -1.068493
v -2.533380 -11.360050 -1.068493
v 2.533380 -7.375152 -1.068493
v 2.533380 -11.360050 -1.068493
v -4.503894 -7.641037 -1.182335
v -4.503894 -10.601326 -1.182335
v 4.503894 -7.641037 -1.182335
v 4.503894 -10.601326 -1.182335
v 2.944322 -9.350404 36.015289
v 2.944322 -6.003198 37.968914
v 2.944322 7.475612 12.046768
v 2.944322 10.822820 14.000391
v 2.944322 9.979293 4.953079
v 2.944322 23.475468 8.336477
v 2.944322 15.583192 23.627230
v 2.944322 24.460041 19.348843
v 2.944322 7.150199 -3.263428
v 2.944322 13.038692 -3.306278
v 6.050684 -11.887075 42.363003
v 6.050684 -11.732641 33.913013
v 2.944322 8.564748 0.844826
v 2.944322 13.918801 2.515099
v 4.799972 13.075215 -3.306278
v 4.799972 7.186725 -3.263428
v 4.799972 8.601274 0.844826
v 4.799972 13.955329 2.515097
v 2.944322 3.739823 2.506136
v 2.944322 2.325276 -1.602112
v 4.799972 3.776347 2.506136
v 4.799972 2.361800 -1.602116
v 2.944322 4.309911 13.008415
v 2.944322 1.695713 12.346416
v 4.799972 4.326926 12.976095
v 4.799972 1.712727 12.314095
v 2.944322 -9.024534 35.774639
v 2.944322 -11.638732 35.112640
v 4.799972 -9.007519 35.742317
v 4.799972 -11.621717 35.080315
v 2.943313 -2.549178 12.473341
v 4.798964 -2.542480 12.472424
v 2.943313 -7.798456 13.119492
v 4.798964 -7.791758 13.118574
v 2.885988 2.573911 -1.341213
v 4.741638 2.590926 -1.373539
v 2.884979 -1.670979 -1.214294
v 4.740630 -1.664282 -1.215206
v 2.884979 -6.920259 -0.568142
v 4.740630 -6.913560 -0.569057
v 2.944322 -0.937396 24.031029
v 2.944322 2.409810 25.984653
v 2.944322 3.433677 9.209312
v 2.944322 -4.979332 21.193573
v 0.000000 7.475612 12.046768
v 0.000000 10.822820 14.000391
v 0.000000 -9.350404 36.015289
v 0.000000 -6.003198 37.968914
v 0.000000 9.979293 4.953079
v 0.000000 23.475468 8.336477
v 0.000000 15.583192 23.627230
v 0.000000 24.460041 19.348843
v 0.000000 7.150199 -3.263428
v 0.000000 13.038692 -3.306278
v 0.000000 -11.732641 33.913013
v 0.000000 -11.887075 42.363003
v 0.000000 13.918801 2.515099
v 0.000000 8.564748 0.844826
v 0.000000 2.409810 25.984653
v 0.000000 -0.937396 24.031029
v 0.000000 3.433677 9.209312
v 0.000000 -4.979332 21.193573
v -2.944322 -9.350404 36.015289
v -2.944322 -6.003198 37.968914
v -2.944322 7.475612 12.046768
v -2.944322 10.822820 14.000391
v -2.944322 9.979293 4.953079
v -2.944322 23.475468 8.336477
v -2.944322 15.583192 23.627230
v -2.944322 24.460041 19.348843
v -2.944322 7.150199 -3.263428
v -2.944322 13.038692 -3.306278
v -6.050684 -11.887075 42.363003
v -6.050684 -11.732641 33.913013
v -2.944322 8.564748 0.844826
v -2.944322 13.918801 2.515099
v -4.799972 13.075215 -3.306278
v -4.799972 7.186725 -3.263428
v -4.799972 8.601274 0.844826
v -4.799972 13.955329 2.515097
v -2.944322 3.739823 2.506136
v -2.944322 2.325276 -1.602112
v -4.799972 3.776347 2.506136
v -4.799972 2.361800 -1.602116
v -2.944322 4.309911 13.008415
v -2.944322 1.695713 12.346416
v -4.799972 4.326926 12.976095
v -4.799972 1.712727 12.314095
v -2.944322 -9.024534 35.774639
v -2.944322 -11.638732 35.112640
v -4.799972 -9.007519 35.742317
v -4.799972 -11.621717 35.080315
v -2.943313 -2.549178 12.473341
v -4.798964 -2.542480 12.472424
v -2.943313 -7.798456 13.119492
v -4.798964 -7.791758 13.118574
v -2.885988 2.573911 -1.341213
v -4.741638 2.590926 -1.373539
v -2.884979 -1.670979 -1.214294
v -4.740630 -1.664282 -1.215206
v -2.884979 -6.920259 -0.568142
v -4.740630 -6.913560 -0.569057
v -2.944322 -0.937396 24.031029
v -2.944322 2.409810 25.984653
v -2.944322 3.433677 9.209312
v -2.944322 -4.979332 21.193573
vn -0.6447 -0.7621 0.0594
vn -0.0000 -0.0000 -1.0000
vn 0.9981 0.0409 -0.0452
vn -0.0000 -0.8644 0.5028
vn -0.0000 -1.0000 -0.0000
vn -0.0000 1.0000 -0.0000
vn -0.8750 -0.0155 -0.4838
vn 0.8750 -0.0155 -0.4838
vn 0.2166 0.9715 -0.0960
vn 0.0265 0.9809 0.1927
vn -0.2166 0.9715 -0.0960
vn -0.3915 -0.9136 -0.1096
vn 0.6447 -0.7621 0.0594
vn 0.3915 -0.9136 -0.1096
vn -0.3001 -0.9527 0.0477
vn 0.1121 0.9909 0.0751
vn -0.0265 0.9809 0.1927
vn -0.9981 0.0409 -0.0452
vn 0.3313 -0.9368 -0.1122
vn -0.9934 -0.0861 0.0755
vn -0.3313 -0.9368 -0.1122
vn 0.9934 -0.0861 0.0755
vn 0.0577 -0.0000 -0.9983
vn -0.0577 -0.0000 -0.9983
vn -0.9986 -0.0354 0.0401
vn 0.9996 0.0156 -0.0231
vn 0.3001 -0.9527 0.0477
vn -0.1121 0.9909 0.0751
vn 0.9986 -0.0354 0.0401
vn -0.9996 0.0156 -0.0231
vn 1.0000 -0.0000 -0.0000
vn -0.0000 -0.8185 -0.5746
vn -0.0195 0.9886 -0.1495
vn -0.0000 0.4342 0.9008
vn -0.0000 -0.8964 0.4433
vn -0.0000 -0.0073 -1.0000
vn -0.0000 0.9888 -0.1495
vn 0.8098 0.5609 -0.1721
vn -0.0000 0.6617 -0.7498
vn -0.0000 0.5202 -0.8540
vn 0.0064 -0.3256 -0.9455
vn 0.0001 -0.0073 -1.0000
vn 0.0059 -0.2978 0.9546
vn -1.0000 -0.0000 -0.0000
vn -0.0064 0.3256 0.9455
vn 1.0000 -0.0004 -0.0043
vn -0.0149 0.9985 -0.0534
vn 0.0140 -0.9989 -0.0458
vn 0.0191 -0.2454 0.9692
vn 0.0009 0.8629 0.5054
vn 0.0036 -0.9979 -0.0640
vn 1.0000 -0.0001 -0.0001
vn 0.0048 -0.9851 -0.1719
vn -1.0000 0.0001 0.0001
vn -0.0087 -0.0335 -0.9994
vn -0.0000 -0.1222 -0.9925
vn 1.0000 -0.0005 -0.0043
vn -0.0080 0.9979 0.0641
vn -1.0000 0.0004 0.0043
vn -1.0000 0.0005 0.0043
vn -0.0000 0.5746 -0.8185
vn -0.0000 -0.5746 0.8185
vn -0.0000 0.8185 0.5746
vn -0.0000 -0.9455 0.3256
vn -0.0000 -0.9998 -0.0183
vn -0.0000 0.9960 -0.0891
vn -0.0000 0.5984 0.8012
vn -0.0000 -0.9430 -0.3328
vn 0.0195 0.9886 -0.1495
vn -0.8098 0.5609 -0.1721
vn -0.0064 -0.3256 -0.9455
vn -0.0001 -0.0073 -1.0000
vn -0.0059 -0.2978 0.9546
vn 0.0064 0.3256 0.9455
vn -1.0000 -0.0004 -0.0043
vn 0.0149 0.9985 -0.0534
vn -0.0140 -0.9989 -0.0458
vn -0.0191 -0.2454 0.9692
vn -0.0009 0.8629 0.5054
vn -0.0036 -0.9979 -0.0640
vn -1.0000 -0.0001 -0.0001
vn -0.0048 -0.9851 -0.1719
vn 1.0000 0.0001 0.0001
vn 0.0087 -0.0335 -0.9994
vn -1.0000 -0.0005 -0.0043
vn 0.0080 0.9979 0.0641
vn 1.0000 0.0004 0.0043
vn 1.0000 0.0005 0.0043
vt 0.375000 1.000000
vt 0.625000 1.000000
vt 0.375000 0.250000
vt 0.625000 0.250000
vt 0.625000 0.500000
vt 0.375000 0.500000
vt 0.375000 0.750000
vt 0.625000 0.750000
vt 0.125000 0.500000
vt 0.125000 0.750000
vt 0.875000 0.500000
vt 0.875000 0.750000
vt 0.375000 0.000000
vt 0.625000 0.000000
vt 0.375000 0.625000
vt 0.625000 0.625000
vt 0.250000 0.625000
vt 0.250000 0.750000
vt 0.625000 0.500000
vt 0.750000 0.500000
vt 0.375000 0.375000
vt 0.625000 0.375000
vt 0.625000 0.375000
vt 0.250000 0.500000
vt 0.750000 0.625000
vt 0.625000 0.875000
vt 0.375000 0.875000
vt 0.750000 0.750000
s 0
f 1/1/1 2/2/1 11/2/1 10/1/1
f 3/3/2 4/4/2 8/5/2 7/6/2
f 4/4/3 3/3/3 18/3/3 17/4/3
f 5/7/4 6/8/4 2/2/4 1/1/4
f 3/9/5 7/6/5 5/7/5 1/10/5
f 8/5/6 4/11/6 2/12/6 6/8/6
f 10/13/7 11/14/7 12/4/7 9/3/7
f 14/6/8 13/5/8 16/8/8 15/7/8
f 8/5/9 6/8/9 16/8/9 13/5/9
f 8/5/10 13/5/10 23/5/10 19/5/10
f 2/12/11 4/11/11 12/11/11 11/12/11
f 3/9/12 1/10/12 10/10/12 9/9/12
f 6/8/13 5/7/13 15/7/13 16/8/13
f 5/7/14 7/6/14 14/6/14 15/7/14
f 18/9/15 22/9/15 30/9/15 26/9/15
f 19/5/16 23/5/16 31/5/16 27/5/16
f 12/11/17 4/11/17 17/11/17 21/11/17
f 7/6/18 8/5/18 19/5/18 20/6/18
f 14/6/19 7/6/19 20/6/19 24/6/19
f 9/3/20 12/4/20 21/4/20 22/3/20
f 3/9/21 9/9/21 22/9/21 18/9/21
f 13/5/22 14/6/22 24/6/22 23/5/22
f 25/4/23 26/3/23 30/3/23 29/4/23
f 28/6/24 27/5/24 31/5/24 32/6/24
f 22/3/25 21/4/25 29/4/25 30/3/25
f 17/4/26 18/3/26 26/3/26 25/4/26
f 24/6/27 20/6/27 28/6/27 32/6/27
f 21/11/28 17/11/28 25/11/28 29/11/28
f 23/5/29 24/6/29 32/6/29 31/5/29
f 20/6/30 19/5/30 27/5/30 28/6/30
f 73/15/31 74/16/31 34/8/31 33/7/31
f 92/17/32 73/15/32 33/7/32 79/18/32
f 42/5/33 46/19/33 50/19/33 47/5/33
f 36/5/31 38/5/31 40/5/31 39/5/31
f 36/5/31 35/6/31 37/6/31 38/5/31
f 83/20/34 39/5/34 40/5/34 84/20/34
f 78/20/35 36/5/35 39/5/35 83/20/35
f 85/21/36 86/22/36 42/5/36 41/6/36
f 89/23/37 46/19/37 42/5/37 86/22/37
f 33/7/38 34/8/38 43/8/38 44/7/38
f 79/18/39 33/7/39 44/7/39 87/18/39
f 82/22/40 38/5/40 46/19/40 89/23/40
f 38/5/31 37/6/31 45/6/31 46/19/31
f 50/19/31 49/6/31 48/6/31 47/5/31
f 41/6/41 48/6/41 54/6/41 52/6/41
f 41/6/42 42/5/42 47/5/42 48/6/42
f 46/19/43 45/6/43 49/6/43 50/19/43
f 51/6/44 52/6/44 56/6/44 55/6/44
f 54/6/31 53/6/31 57/6/31 58/6/31
f 49/6/45 45/6/45 51/6/45 53/6/45
f 45/6/44 41/6/44 52/6/44 51/6/44
f 48/6/31 49/6/31 53/6/31 54/6/31
f 58/6/46 64/6/46 70/6/46 68/6/46
f 53/6/47 51/6/47 55/6/47 57/6/47
f 52/6/48 54/6/48 58/6/48 56/6/48
f 59/6/49 60/6/49 62/6/49 61/6/49
f 58/6/31 57/6/31 61/6/31 62/6/31
f 55/6/44 56/6/44 60/6/44 59/6/44
f 57/6/50 55/6/50 59/6/50 61/6/50
f 66/6/51 65/6/51 71/6/51 72/6/51
f 58/6/52 62/6/52 66/6/52 64/6/52
f 62/6/53 60/6/53 65/6/53 66/6/53
f 60/6/54 56/6/54 63/6/54 65/6/54
f 67/6/55 68/6/55 70/6/55 69/6/55
f 69/6/56 70/6/56 72/6/56 71/6/56
f 64/6/57 66/6/57 72/6/57 70/6/57
f 56/6/58 58/6/58 68/6/58 67/6/58
f 63/6/59 56/6/59 67/6/59 69/6/59
f 65/6/60 63/6/60 69/6/60 71/6/60
f 35/6/31 73/15/31 76/15/31 75/6/31
f 35/6/31 36/5/31 74/16/31 73/15/31
f 93/24/32 75/6/32 76/15/32 94/17/32
f 77/24/61 35/6/61 75/6/61 93/24/61
f 73/15/62 92/17/62 94/17/62 76/15/62
f 36/5/63 78/20/63 91/25/63 74/16/63
f 37/6/64 81/24/64 90/24/64 45/6/64
f 44/7/65 43/8/65 88/26/65 87/27/65
f 45/6/64 90/24/64 85/24/64 41/6/64
f 38/5/66 82/22/66 84/22/66 40/5/66
f 74/16/63 91/25/63 80/28/63 34/8/63
f 34/8/67 80/28/67 88/28/67 43/8/67
f 35/6/68 77/24/68 81/24/68 37/6/68
f 135/15/44 95/7/44 96/8/44 136/16/44
f 92/17/32 79/18/32 95/7/32 135/15/32
f 104/5/69 109/5/69 112/19/69 108/19/69
f 98/5/44 101/5/44 102/5/44 100/5/44
f 98/5/44 100/5/44 99/6/44 97/6/44
f 83/20/34 84/20/34 102/5/34 101/5/34
f 78/20/35 83/20/35 101/5/35 98/5/35
f 85/21/36 103/6/36 104/5/36 86/22/36
f 89/23/37 86/22/37 104/5/37 108/19/37
f 95/7/70 106/7/70 105/8/70 96/8/70
f 79/18/39 87/18/39 106/7/39 95/7/39
f 82/22/40 89/23/40 108/19/40 100/5/40
f 100/5/44 108/19/44 107/6/44 99/6/44
f 112/19/44 109/5/44 110/6/44 111/6/44
f 103/6/71 114/6/71 116/6/71 110/6/71
f 103/6/72 110/6/72 109/5/72 104/5/72
f 108/19/73 112/19/73 111/6/73 107/6/73
f 113/6/31 117/6/31 118/6/31 114/6/31
f 116/6/44 120/6/44 119/6/44 115/6/44
f 111/6/74 115/6/74 113/6/74 107/6/74
f 107/6/31 113/6/31 114/6/31 103/6/31
f 110/6/44 116/6/44 115/6/44 111/6/44
f 120/6/75 130/6/75 132/6/75 126/6/75
f 115/6/76 119/6/76 117/6/76 113/6/76
f 114/6/77 118/6/77 120/6/77 116/6/77
f 121/6/78 123/6/78 124/6/78 122/6/78
f 120/6/44 124/6/44 123/6/44 119/6/44
f 117/6/31 121/6/31 122/6/31 118/6/31
f 119/6/79 123/6/79 121/6/79 117/6/79
f 128/6/80 134/6/80 133/6/80 127/6/80
f 120/6/81 126/6/81 128/6/81 124/6/81
f 124/6/82 128/6/82 127/6/82 122/6/82
f 122/6/83 127/6/83 125/6/83 118/6/83
f 129/6/84 131/6/84 132/6/84 130/6/84
f 131/6/56 133/6/56 134/6/56 132/6/56
f 126/6/85 132/6/85 134/6/85 128/6/85
f 118/6/86 129/6/86 130/6/86 120/6/86
f 125/6/87 131/6/87 129/6/87 118/6/87
f 127/6/88 133/6/88 131/6/88 125/6/88
f 97/6/44 137/6/44 138/15/44 135/15/44
f 97/6/44 135/15/44 136/16/44 98/5/44
f 93/24/32 94/17/32 138/15/32 137/6/32
f 77/24/61 93/24/61 137/6/61 97/6/61
f 135/15/62 138/15/62 94/17/62 92/17/62
f 98/5/63 136/16/63 91/25/63 78/20/63
f 99/6/64 107/6/64 90/24/64 81/24/64
f 106/7/65 87/27/65 88/26/65 105/8/65
f 107/6/64 103/6/64 85/24/64 90/24/64
f 100/5/66 102/5/66 84/22/66 82/22/66
f 136/16/63 96/8/63 80/28/63 91/25/63
f 96/8/67 105/8/67 88/28/67 80/28/67
f 97/6/68 99/6/68 81/24/68 77/24/68
