# Blender 3.6.2
# www.blender.org
mtllib Kentroskull.mtl
o Kentroskull
v -2.166132 -8.633673 30.392202
v -2.166132 -6.633673 32.065563
v -0.915464 -8.633673 29.010351
v -0.915464 -6.633673 30.065565
v 2.166132 -8.633673 30.392202
v 2.166132 -6.633673 32.065563
v 0.915464 -8.633673 29.010351
v 0.915464 -6.633673 30.065565
v -1.406838 -8.633673 26.757528
v -3.328801 -8.633673 27.071531
v -3.328801 -6.633673 27.071531
v -1.406838 -6.633673 26.757528
v 1.406838 -6.633673 26.757528
v 1.406838 -8.633673 26.757528
v 3.328802 -8.633673 27.071531
v 3.328802 -6.633673 27.071531
v -1.536749 -8.633673 20.878244
v -3.636191 -8.633673 21.192247
v -3.636191 -6.633673 21.192247
v -1.536749 -6.633673 20.878244
v 1.536749 -6.633673 20.878244
v 1.536749 -8.633673 20.878244
v 3.636191 -8.633673 21.192247
v 3.636191 -6.633673 21.192247
v -1.536749 -8.633673 8.525928
v -3.636191 -8.633673 8.839931
v -3.636191 -5.811647 8.839931
v -1.536749 -5.811647 8.525928
v 1.536749 -5.811647 8.525928
v 1.536749 -8.633673 8.525928
v 3.636191 -8.633673 8.839931
v 3.636191 -5.811647 8.839931
v -1.536749 -8.324086 -1.568918
v -3.636191 -8.324086 -1.254915
v -3.636191 -5.113832 -1.254915
v -1.536749 -5.113832 -1.568918
v 1.536749 -5.113832 -1.568918
v 1.536749 -8.324086 -1.568918
v 3.636191 -8.324086 -1.254915
v 3.636191 -5.113832 -1.254915
v -1.536749 -5.980070 -4.833703
v -3.636191 -6.128794 -4.557155
v -3.636191 -4.023477 -3.424944
v -1.536749 -3.874753 -3.701493
v 1.536749 -3.874753 -3.701493
v 1.536749 -5.980070 -4.833703
v 3.636191 -6.128794 -4.557155
v 3.636191 -4.023477 -3.424944
v -1.536749 -3.766507 -6.421993
v -3.636191 -3.915231 -6.145445
v -3.636191 -1.809914 -5.013234
v -1.536749 -1.661190 -5.289783
v 1.536749 -1.661190 -5.289783
v 1.536749 -3.766507 -6.421993
v 3.636191 -3.915231 -6.145445
v 3.636191 -1.809914 -5.013234
v 2.544642 11.241786 -0.689114
v 2.544642 6.662311 -2.173917
v 2.544642 1.817166 28.378603
v 2.544642 -2.046143 28.376661
v -2.544642 11.241786 -0.689114
v -2.544642 6.662311 -2.173917
v -2.544642 1.817166 28.378603
v -2.544642 -2.046143 28.376661
v -2.544642 -3.667628 28.083967
v -2.544642 -2.424795 32.734943
v 2.544642 -2.424795 32.734943
v 2.544642 -3.667628 28.083967
v -2.544642 -5.352624 28.629301
v -2.544642 -5.429719 33.442852
v 2.544642 -5.429719 33.442852
v 2.544642 -5.352624 28.629301
v -2.577325 -3.667628 28.083967
v -3.934412 -3.095898 30.212854
v 3.934412 -3.095898 30.212854
v 2.577325 -3.667628 28.083967
v -2.577325 -5.352624 28.629301
v -3.934412 -5.253407 30.920763
v 3.934412 -5.253407 30.920763
v 2.577325 -5.352624 28.629301
v -3.116173 -3.301438 21.867937
v -4.756989 -3.254835 21.904608
v 4.756989 -3.254835 21.904608
v 3.116173 -3.301438 21.867937
v -3.116173 -5.272503 22.101160
v -4.756989 -5.275637 22.212757
v 4.756989 -5.275637 22.212757
v 3.116173 -5.272503 22.101160
v -3.116173 -0.721324 9.312789
v -4.756989 -0.674720 9.349460
v 4.756989 -0.674720 9.349460
v 3.116173 -0.721324 9.312789
v -3.116173 -4.953741 9.546012
v -4.756989 -4.956874 9.657610
v 4.756989 -4.956874 9.657610
v 3.116173 -4.953741 9.546012
v -3.116173 -0.223235 4.710616
v -4.756989 -0.176631 4.747287
v 4.756989 -0.176631 4.747287
v 3.116173 -0.223235 4.710616
v -3.116173 -4.455650 4.943839
v -4.756989 -4.458785 5.055437
v 4.756989 -4.458785 5.055437
v 3.116173 -4.455650 4.943839
v -3.116173 -0.842560 3.117350
v -4.756989 -0.795958 3.154021
v 4.756989 -0.795958 3.154021
v 3.116173 -0.842560 3.117350
v -3.116173 -4.358286 3.173980
v -4.756989 -4.361422 3.285578
v 4.756989 -4.361422 3.285578
v 3.116173 -4.358286 3.173980
v -3.116173 -0.884218 -1.476236
v -4.756989 -0.837614 -1.439567
v 4.756989 -0.837614 -1.439567
v 3.116173 -0.884218 -1.476236
v -3.116173 -4.399944 -1.419607
v -4.756989 -4.403079 -1.308008
v 4.756989 -4.403079 -1.308008
v 3.116173 -4.399944 -1.419607
v -3.116173 0.030862 -2.619353
v -4.756989 0.034209 -2.560147
v 4.756989 0.034209 -2.560147
v 3.116173 0.030862 -2.619353
v -3.116173 -0.914557 -4.886326
v -4.756989 -1.000299 -4.814825
v 4.756989 -1.000299 -4.814825
v 3.116173 -0.914557 -4.886326
v -2.233806 7.945081 -0.357222
v -3.410014 7.923306 -0.302062
v 3.410014 7.923306 -0.302062
v 2.233806 7.945081 -0.357222
v -2.233806 7.156658 -2.178724
v -3.410014 7.048844 -2.149739
v 3.410014 7.048844 -2.149739
v 2.233806 7.156658 -2.178724
v -1.863121 1.793357 19.387842
v -2.844145 1.816409 19.414782
v 2.844145 1.816409 19.414782
v 1.863121 1.793357 19.387842
v -1.863121 3.444353 12.062607
v -2.844145 3.467405 12.089545
v 2.844145 3.467405 12.089545
v 1.863121 3.444353 12.062607
v -1.891147 6.309451 4.852159
v -2.886928 6.337734 4.874413
v 2.886928 6.337734 4.874413
v 1.891147 6.309451 4.852159
v -1.891147 6.368539 3.778064
v -2.886928 6.396822 3.800319
v 2.886928 6.396822 3.800319
v 1.891147 6.368539 3.778064
vn 0.9570 -0.1120 0.2676
vn -0.0000 0.4666 -0.8844
vn -0.0000 -1.0000 -0.0000
vn -0.0000 -0.6417 0.7670
vn -0.0000 1.0000 -0.0000
vn -0.9998 -0.0000 -0.0221
vn 0.9837 0.0459 -0.1738
vn -0.9570 -0.1120 0.2676
vn -0.9837 0.0459 -0.1738
vn 1.0000 -0.0000 -0.0000
vn 0.9986 -0.0000 0.0522
vn 0.9998 -0.0000 -0.0221
vn -0.9986 -0.0000 0.0522
vn -0.0046 -0.9995 -0.0307
vn -1.0000 -0.0000 -0.0000
vn -0.0099 0.9977 0.0664
vn 0.0099 0.9977 0.0664
vn -0.0358 0.8788 0.4758
vn 0.0046 -0.9995 -0.0307
vn -0.0103 0.9976 0.0690
vn 0.0103 0.9976 0.0690
vn -0.0656 0.5817 0.8107
vn 0.0358 0.8788 0.4758
vn -0.0508 -0.8215 -0.5679
vn 0.0508 -0.8215 -0.5679
vn -0.1479 0.4684 -0.8710
vn 0.1479 0.4684 -0.8710
vn 0.0656 0.5817 0.8107
vn -0.0656 -0.5817 -0.8107
vn 0.0656 -0.5817 -0.8107
vn -0.0000 0.9512 0.3084
vn -0.0000 -0.9617 -0.2741
vn -0.0000 0.3084 -0.9512
vn -0.0000 0.2293 0.9734
vn -0.0000 0.1776 -0.9841
vn -0.0000 0.7164 0.6976
vn -0.0000 -0.9999 -0.0160
vn -0.0000 -0.3079 -0.9514
vn -0.0963 -0.9952 -0.0153
vn -0.1988 0.9800 -0.0046
vn 0.0327 -0.9995 -0.0009
vn 0.8738 0.1286 0.4689
vn 0.0020 0.9661 -0.2582
vn 0.0963 -0.9952 -0.0153
vn -0.8738 0.1286 0.4689
vn -0.0020 0.9661 -0.2582
vn 0.9962 -0.0181 -0.0849
vn -0.9951 0.0233 0.0960
vn -0.0327 -0.9995 -0.0009
vn 0.1988 0.9800 -0.0046
vn -0.9962 -0.0181 -0.0849
vn 0.9951 0.0233 0.0960
vn 0.0306 0.9937 0.1076
vn -0.0002 -0.9997 -0.0254
vn -0.0055 0.5528 -0.8333
vn 0.0002 -0.9997 -0.0254
vn 0.9213 0.3804 0.0809
vn 0.0054 -0.9942 -0.1076
vn -0.0306 0.9937 0.1076
vn -0.0054 -0.9942 -0.1076
vn -0.0282 0.9996 -0.0091
vn -0.0018 -0.9985 -0.0549
vn 0.0196 0.0945 -0.9953
vn 0.0018 -0.9985 -0.0549
vn -0.9834 -0.1775 0.0373
vn 0.0025 -1.0000 0.0091
vn 0.0282 0.9996 -0.0091
vn -0.0025 -1.0000 0.0091
vn 0.0408 -0.2801 0.9591
vn -0.0559 0.3226 -0.9449
vn 0.0199 -0.7113 -0.7026
vn -0.0300 0.7846 0.6193
vn -0.0199 -0.7113 -0.7026
vn 0.0300 0.7846 0.6193
vn -0.0648 0.9089 -0.4119
vn 0.0648 0.9089 -0.4119
vn -0.9906 -0.1260 0.0534
vn 0.9771 0.1929 -0.0898
vn 0.0559 0.3226 -0.9449
vn -0.0408 -0.2801 0.9591
vn 0.9906 -0.1260 0.0534
vn -0.9771 0.1929 -0.0898
vn -0.0289 0.9751 0.2198
vn 0.0289 0.9751 0.2198
vn -0.0333 0.4306 0.9019
vn -0.9213 0.3804 0.0809
vn 0.0055 0.5528 -0.8333
vn -0.9642 -0.2593 -0.0552
vn 0.0333 0.4306 0.9019
vn 0.9642 -0.2593 -0.0552
vn 0.0296 0.9981 0.0549
vn -0.0296 0.9981 0.0549
vn -0.9624 0.2658 -0.0558
vn 0.0216 -0.0257 0.9994
vn 0.9624 0.2658 -0.0558
vn -0.0196 0.0945 -0.9953
vn 0.9834 -0.1775 0.0373
vn -0.0216 -0.0257 0.9994
vt 0.625000 0.750000
vt 0.375000 0.750000
vt 0.375000 0.250000
vt 0.625000 0.250000
vt 0.625000 0.500000
vt 0.375000 0.500000
vt 0.125000 0.500000
vt 0.125000 0.750000
vt 0.625000 1.000000
vt 0.375000 1.000000
vt 0.875000 0.500000
vt 0.875000 0.750000
vt 0.375000 0.000000
vt 0.625000 0.000000
s 0
usemtl Material
f 6/1/1 5/2/1 15/2/1 16/1/1
f 3/3/2 4/4/2 8/5/2 7/6/2
f 3/7/3 1/8/3 10/8/3 9/7/3
f 5/2/4 6/1/4 2/9/4 1/10/4
f 3/7/3 7/6/3 5/2/3 1/8/3
f 8/5/5 4/11/5 2/12/5 6/1/5
f 14/6/6 13/5/6 21/5/6 22/6/6
f 13/5/5 16/1/5 24/1/5 21/5/5
f 5/2/3 7/6/3 14/6/3 15/2/3
f 4/4/7 3/3/7 9/3/7 12/4/7
f 1/10/8 2/9/8 11/9/8 10/10/8
f 8/5/5 6/1/5 16/1/5 13/5/5
f 7/6/9 8/5/9 13/5/9 14/6/9
f 2/12/5 4/11/5 12/11/5 11/12/5
f 20/4/10 17/3/10 25/3/10 28/4/10
f 23/2/3 22/6/3 30/6/3 31/2/3
f 11/12/5 12/11/5 20/11/5 19/12/5
f 9/7/3 10/8/3 18/8/3 17/7/3
f 16/1/11 15/2/11 23/2/11 24/1/11
f 15/2/3 14/6/3 22/6/3 23/2/3
f 12/4/12 9/3/12 17/3/12 20/4/12
f 10/10/13 11/9/13 19/9/13 18/10/13
f 32/1/10 31/2/10 39/2/10 40/1/10
f 25/7/14 26/8/14 34/8/14 33/7/14
f 18/10/15 19/9/15 27/9/15 26/10/15
f 21/5/16 24/1/16 32/1/16 29/5/16
f 22/6/15 21/5/15 29/5/15 30/6/15
f 19/12/17 20/11/17 28/11/17 27/12/17
f 17/7/3 18/8/3 26/8/3 25/7/3
f 24/1/10 23/2/10 31/2/10 32/1/10
f 38/6/15 37/5/15 45/5/15 46/6/15
f 37/5/18 40/1/18 48/1/18 45/5/18
f 31/2/19 30/6/19 38/6/19 39/2/19
f 28/4/10 25/3/10 33/3/10 36/4/10
f 26/10/15 27/9/15 35/9/15 34/10/15
f 29/5/20 32/1/20 40/1/20 37/5/20
f 30/6/15 29/5/15 37/5/15 38/6/15
f 27/12/21 28/11/21 36/11/21 35/12/21
f 45/5/22 48/1/22 56/1/22 53/5/22
f 42/10/15 43/9/15 51/9/15 50/10/15
f 35/12/23 36/11/23 44/11/23 43/12/23
f 33/7/24 34/8/24 42/8/24 41/7/24
f 40/1/10 39/2/10 47/2/10 48/1/10
f 39/2/25 38/6/25 46/6/25 47/2/25
f 36/4/10 33/3/10 41/3/10 44/4/10
f 34/10/15 35/9/15 43/9/15 42/10/15
f 50/13/26 51/14/26 52/4/26 49/3/26
f 54/6/27 53/5/27 56/1/27 55/2/27
f 46/6/15 45/5/15 53/5/15 54/6/15
f 43/12/28 44/11/28 52/11/28 51/12/28
f 41/7/29 42/8/29 50/8/29 49/7/29
f 48/1/10 47/2/10 55/2/10 56/1/10
f 47/2/30 46/6/30 54/6/30 55/2/30
f 44/4/10 41/3/10 49/3/10 52/4/10
f 57/5/31 61/11/31 63/12/31 59/1/31
f 63/14/15 64/13/15 65/13/15 66/14/15
f 64/13/15 63/14/15 61/4/15 62/3/15
f 62/7/32 58/6/32 60/2/32 64/8/32
f 58/6/10 57/5/10 59/1/10 60/2/10
f 62/3/33 61/4/33 57/5/33 58/6/33
f 67/1/34 66/12/34 70/12/34 71/1/34
f 64/8/35 60/2/35 68/2/35 65/8/35
f 59/1/36 63/12/36 66/12/36 67/1/36
f 60/2/10 59/1/10 67/1/10 68/2/10
f 72/2/37 71/1/37 70/9/37 69/10/37
f 72/2/38 68/2/38 76/2/38 80/2/38
f 65/8/38 68/2/38 72/2/38 69/8/38
f 69/10/39 70/9/39 78/9/39 77/10/39
f 76/2/40 75/1/40 83/1/40 84/2/40
f 79/1/41 80/2/41 88/2/41 87/1/41
f 67/1/42 71/1/42 79/1/42 75/1/42
f 66/14/43 65/13/43 73/13/43 74/14/43
f 71/1/44 72/2/44 80/2/44 79/1/44
f 65/8/38 69/8/38 77/8/38 73/8/38
f 70/12/45 66/12/45 74/12/45 78/12/45
f 68/2/46 67/1/46 75/1/46 76/2/46
f 83/1/10 87/1/10 95/1/10 91/1/10
f 88/2/15 84/2/15 92/2/15 96/2/15
f 73/8/47 77/8/47 85/8/47 81/8/47
f 78/12/48 74/12/48 82/12/48 86/12/48
f 77/10/49 78/9/49 86/9/49 85/10/49
f 74/14/50 73/13/50 81/13/50 82/14/50
f 80/2/51 76/2/51 84/2/51 88/2/51
f 75/1/52 79/1/52 87/1/52 83/1/52
f 96/2/15 92/2/15 100/2/15 104/2/15
f 90/14/53 89/13/53 97/13/53 98/14/53
f 87/1/54 88/2/54 96/2/54 95/1/54
f 89/13/55 90/14/55 142/14/55 141/13/55
f 81/8/10 85/8/10 93/8/10 89/8/10
f 86/12/15 82/12/15 90/12/15 94/12/15
f 85/10/56 86/9/56 94/9/56 93/10/56
f 83/1/57 91/1/57 143/1/57 139/1/57
f 102/12/15 98/12/15 106/12/15 110/12/15
f 97/8/10 101/8/10 109/8/10 105/8/10
f 91/1/10 95/1/10 103/1/10 99/1/10
f 95/1/58 96/2/58 104/2/58 103/1/58
f 92/2/59 91/1/59 99/1/59 100/2/59
f 89/8/10 93/8/10 101/8/10 97/8/10
f 94/12/15 90/12/15 98/12/15 102/12/15
f 93/10/60 94/9/60 102/9/60 101/10/60
f 105/8/10 109/8/10 117/8/10 113/8/10
f 108/2/61 107/1/61 115/1/61 116/2/61
f 101/10/62 102/9/62 110/9/62 109/10/62
f 107/1/63 108/2/63 152/2/63 151/1/63
f 104/2/15 100/2/15 108/2/15 112/2/15
f 99/1/10 103/1/10 111/1/10 107/1/10
f 103/1/64 104/2/64 112/2/64 111/1/64
f 108/2/65 100/2/65 148/2/65 152/2/65
f 115/1/10 119/1/10 127/1/10 123/1/10
f 120/2/15 116/2/15 124/2/15 128/2/15
f 110/12/15 106/12/15 114/12/15 118/12/15
f 109/10/66 110/9/66 118/9/66 117/10/66
f 106/14/67 105/13/67 113/13/67 114/14/67
f 112/2/15 108/2/15 116/2/15 120/2/15
f 107/1/10 111/1/10 119/1/10 115/1/10
f 111/1/68 112/2/68 120/2/68 119/1/68
f 122/14/69 121/13/69 129/13/69 130/14/69
f 125/10/70 126/9/70 134/9/70 133/10/70
f 119/1/71 120/2/71 128/2/71 127/1/71
f 116/2/72 115/1/72 123/1/72 124/2/72
f 113/8/10 117/8/10 125/8/10 121/8/10
f 118/12/15 114/12/15 122/12/15 126/12/15
f 117/10/73 118/9/73 126/9/73 125/10/73
f 114/14/74 113/13/74 121/13/74 122/14/74
f 130/14/75 129/13/75 133/13/75 134/14/75
f 132/2/76 131/1/76 135/1/76 136/2/76
f 128/2/77 124/2/77 132/2/77 136/2/77
f 123/1/78 127/1/78 135/1/78 131/1/78
f 127/1/79 128/2/79 136/2/79 135/1/79
f 124/2/80 123/1/80 131/1/80 132/2/80
f 121/8/81 125/8/81 133/8/81 129/8/81
f 126/12/82 122/12/82 130/12/82 134/12/82
f 140/2/83 139/1/83 143/1/83 144/2/83
f 138/14/84 137/13/84 141/13/84 142/14/84
f 84/2/85 83/1/85 139/1/85 140/2/85
f 90/12/86 82/12/86 138/12/86 142/12/86
f 91/1/87 92/2/87 144/2/87 143/1/87
f 92/2/88 84/2/88 140/2/88 144/2/88
f 82/14/89 81/13/89 137/13/89 138/14/89
f 81/8/90 89/8/90 141/8/90 137/8/90
f 146/14/91 145/13/91 149/13/91 150/14/91
f 148/2/92 147/1/92 151/1/92 152/2/92
f 106/12/93 98/12/93 146/12/93 150/12/93
f 98/14/94 97/13/94 145/13/94 146/14/94
f 99/1/95 107/1/95 151/1/95 147/1/95
f 105/13/96 106/14/96 150/14/96 149/13/96
f 97/8/97 105/8/97 149/8/97 145/8/97
f 100/2/98 99/1/98 147/1/98 148/2/98
