# Blender 3.6.2
# www.blender.org
mtllib AmphiTail.mtl
o Tail
v 4.800065 11.770123 52.039680
v 4.800065 2.169993 52.039680
v 4.468590 7.703130 96.595818
v 4.468590 -1.234051 96.595818
v -4.800065 11.770123 52.039680
v -4.800065 2.169993 52.039680
v -4.468590 7.703130 96.595818
v -4.468590 -1.234051 96.595818
v -4.167698 -0.933157 138.651520
v -4.167698 7.402239 138.651520
v 4.167698 7.402239 138.651520
v 4.167698 -0.933157 138.651520
v -3.342848 9.118218 191.112595
v -3.342848 15.803914 191.112595
v 3.342848 15.803914 191.112595
v 3.342848 9.118218 191.112595
v -2.977737 8.410594 236.823196
v -2.977737 14.366069 236.823196
v 2.977737 14.366069 236.823196
v 2.977737 8.410594 236.823196
v -2.245667 1.162897 282.055664
v -2.245667 5.654234 282.055664
v 2.245667 5.654234 282.055664
v 2.245667 1.162897 282.055664
vn -0.0000 0.9959 0.0909
vn -1.0000 -0.0000 0.0072
vn -1.0000 -0.0000 0.0074
vn -0.0000 -0.9971 -0.0762
vn 1.0000 -0.0000 0.0074
vn -0.0000 -0.0000 -1.0000
vn -0.0000 0.9874 -0.1581
vn -0.0000 -1.0000 0.0072
vn -0.0000 1.0000 0.0072
vn 1.0000 -0.0000 0.0072
vn -0.0000 -0.9999 -0.0155
vn -0.9999 -0.0000 0.0157
vn -0.0000 -0.9821 0.1882
vn 0.9999 -0.0000 0.0157
vn -0.0000 0.9820 0.1891
vn 1.0000 -0.0000 0.0080
vn -0.0000 0.9995 0.0314
vn -1.0000 -0.0000 0.0080
vn -0.0000 -0.0000 1.0000
vn -0.9999 -0.0000 0.0162
vn -0.0000 -0.9874 -0.1582
vn 0.9999 -0.0000 0.0162
vt 0.625000 0.500000
vt 0.875000 0.500000
vt 0.875000 0.750000
vt 0.625000 0.750000
vt 0.625000 0.000000
vt 0.375000 0.000000
vt 0.625000 0.250000
vt 0.375000 0.250000
vt 0.125000 0.500000
vt 0.375000 0.500000
vt 0.375000 0.750000
vt 0.125000 0.750000
vt 0.625000 1.000000
vt 0.375000 1.000000
s 0
usemtl Material.001
f 1/1/1 5/2/1 7/3/1 3/4/1
f 7/5/2 8/6/2 9/6/2 10/5/2
f 8/6/3 7/5/3 5/7/3 6/8/3
f 6/9/4 2/10/4 4/11/4 8/12/4
f 2/10/5 1/1/5 3/4/5 4/11/5
f 6/8/6 5/7/6 1/1/6 2/10/6
f 11/4/7 10/3/7 14/3/7 15/4/7
f 8/12/8 4/11/8 12/11/8 9/12/8
f 3/4/9 7/3/9 10/3/9 11/4/9
f 4/11/10 3/4/10 11/4/10 12/11/10
f 13/12/11 16/11/11 20/11/11 17/12/11
f 10/5/12 9/6/12 13/6/12 14/5/12
f 9/12/13 12/11/13 16/11/13 13/12/13
f 12/11/14 11/4/14 15/4/14 16/11/14
f 19/4/15 18/3/15 22/3/15 23/4/15
f 16/11/16 15/4/16 19/4/16 20/11/16
f 15/4/17 14/3/17 18/3/17 19/4/17
f 14/5/18 13/6/18 17/6/18 18/5/18
f 24/11/19 23/4/19 22/13/19 21/14/19
f 18/5/20 17/6/20 21/6/20 22/5/20
f 17/12/21 20/11/21 24/11/21 21/12/21
f 20/11/22 19/4/22 23/4/22 24/11/22
