# Blender 3.6.2
# www.blender.org
mtllib SpinoBack.mtl
o Spine
v -5.020949 11.952261 -78.060280
v -5.020949 1.910362 -78.060280
v -5.020949 11.952271 53.515518
v -5.020949 1.910371 53.515518
v -5.020949 1.910367 -12.272380
v -5.020949 11.952265 -12.272380
v -5.020949 11.952263 -44.904221
v -5.020949 1.910364 -44.904221
v -5.020949 1.910369 20.621571
v -5.020949 11.952268 20.621571
v -5.020949 1.910370 37.068546
v -5.020949 11.952269 37.068546
v -5.020949 11.952267 4.174594
v -16.263788 3.732013 -51.872444
v -5.020949 1.910368 4.174595
v -14.364850 -6.006296 -16.351360
v -5.020949 1.910365 -28.588301
v -16.263788 3.732013 -46.225010
v -5.020949 11.952264 -28.588301
v -12.935405 -2.245513 -46.225010
v -5.020949 11.952261 -61.482246
v -12.935405 -2.245513 -51.872444
v -5.020949 1.910363 -61.482246
v -14.586297 2.855541 -18.458088
v -5.020949 1.910364 -53.193233
v -16.105989 -10.403979 -24.509317
v -5.020949 11.952263 -53.193233
v -14.586297 2.855541 -14.244633
v -5.020949 11.952263 -36.746262
v -12.914308 -2.054043 -14.244632
v -5.020949 1.910365 -36.746262
v -12.914308 -2.054043 -18.458088
v -5.020949 1.910366 -20.430340
v -13.230824 -0.114958 -22.483568
v -5.020949 11.952265 -20.430340
v -18.952038 -12.792304 -32.667282
v -5.020949 11.952266 -4.048892
v -13.230824 -0.114958 -26.535072
v -5.020949 1.910367 -4.048892
v -15.202924 4.465683 -26.535072
v -5.020949 1.910368 12.398083
v -15.202924 4.465684 -22.483568
v -5.020949 11.952267 12.398083
v -19.612677 3.514536 -35.290646
v -18.560484 5.888596 -38.758148
v -18.560484 5.888595 -42.892338
v -18.835278 -15.942288 -40.825241
v -19.612677 3.514536 -30.043919
v -15.901033 -1.770744 -30.043919
v -14.789227 1.837100 -42.892338
v -14.789227 1.837101 -38.758148
v -15.901033 -1.770744 -35.290646
v 0.000000 1.910362 -78.060280
v 0.000000 11.952271 53.515518
v 0.000000 1.910371 53.515518
v 0.000000 11.952261 -78.060280
v 0.000000 1.910367 -12.272380
v 0.000000 11.952265 -12.272380
v 0.000000 11.952263 -44.904221
v 0.000000 1.910364 -44.904221
v 0.000000 1.910369 20.621571
v 0.000000 11.952268 20.621571
v 0.000000 1.910370 37.068546
v 0.000000 11.952269 37.068546
v 0.000000 11.952267 4.174594
v 0.000000 1.910368 4.174595
v 0.000000 11.952264 -28.588301
v 0.000000 1.910365 -28.588301
v 0.000000 1.910363 -61.482246
v 0.000000 11.952261 -61.482246
v 0.000000 1.910364 -53.193233
v 0.000000 11.952263 -53.193233
v 0.000000 1.910365 -36.746262
v 0.000000 11.952263 -36.746262
v 0.000000 11.952265 -20.430340
v 0.000000 1.910366 -20.430340
v 0.000000 1.910367 -4.048892
v 0.000000 11.952266 -4.048892
v 0.000000 11.952267 12.398083
v 0.000000 1.910368 12.398083
v -16.925100 -7.916223 -49.048729
v -10.259586 -0.647715 -10.896769
v -11.705229 3.069096 -10.896770
v -11.705229 3.069096 -5.424502
v -10.259586 -0.647714 -5.424501
v -12.623099 -4.482347 -8.160635
v -9.990726 3.418378 1.627559
v -7.846061 0.255539 1.627559
v -7.846061 0.255539 -1.501855
v -9.990726 3.418377 -1.501855
v -9.343284 -1.556838 0.062853
v 5.020949 11.952261 -78.060280
v 5.020949 1.910362 -78.060280
v 5.020949 11.952271 53.515518
v 5.020949 1.910371 53.515518
v 5.020949 1.910367 -12.272380
v 5.020949 11.952265 -12.272380
v 5.020949 11.952263 -44.904221
v 5.020949 1.910364 -44.904221
v 5.020949 1.910369 20.621571
v 5.020949 11.952268 20.621571
v 5.020949 1.910370 37.068546
v 5.020949 11.952269 37.068546
v 5.020949 11.952267 4.174594
v 16.263788 3.732013 -51.872444
v 5.020949 1.910368 4.174595
v 14.364850 -6.006296 -16.351360
v 5.020949 1.910365 -28.588301
v 16.263788 3.732013 -46.225010
v 5.020949 11.952264 -28.588301
v 12.935405 -2.245513 -46.225010
v 5.020949 11.952261 -61.482246
v 12.935405 -2.245513 -51.872444
v 5.020949 1.910363 -61.482246
v 14.586297 2.855541 -18.458088
v 5.020949 1.910364 -53.193233
v 16.105989 -10.403979 -24.509317
v 5.020949 11.952263 -53.193233
v 14.586297 2.855541 -14.244633
v 5.020949 11.952263 -36.746262
v 12.914308 -2.054043 -14.244632
v 5.020949 1.910365 -36.746262
v 12.914308 -2.054043 -18.458088
v 5.020949 1.910366 -20.430340
v 13.230824 -0.114958 -22.483568
v 5.020949 11.952265 -20.430340
v 18.952038 -12.792304 -32.667282
v 5.020949 11.952266 -4.048892
v 13.230824 -0.114958 -26.535072
v 5.020949 1.910367 -4.048892
v 15.202924 4.465683 -26.535072
v 5.020949 1.910368 12.398083
v 15.202924 4.465684 -22.483568
v 5.020949 11.952267 12.398083
v 19.612677 3.514536 -35.290646
v 18.560484 5.888596 -38.758148
v 18.560484 5.888595 -42.892338
v 18.835278 -15.942288 -40.825241
v 19.612677 3.514536 -30.043919
v 15.901033 -1.770744 -30.043919
v 14.789227 1.837100 -42.892338
v 14.789227 1.837101 -38.758148
v 15.901033 -1.770744 -35.290646
v 16.925100 -7.916223 -49.048729
v 10.259586 -0.647715 -10.896769
v 11.705229 3.069096 -10.896770
v 11.705229 3.069096 -5.424502
v 10.259586 -0.647714 -5.424501
v 12.623099 -4.482347 -8.160635
v 9.990726 3.418378 1.627559
v 7.846061 0.255539 1.627559
v 7.846061 0.255539 -1.501855
v 9.990726 3.418377 -1.501855
v 9.343284 -1.556838 0.062853
v -1.450470 41.338932 -58.067551
v -1.327799 41.338932 -61.185432
v -1.659062 62.694637 -38.844952
v -1.659062 62.694637 -42.184750
v -1.774435 68.019264 -14.163372
v -1.774435 68.019264 -18.490118
v -1.659062 62.694641 9.637310
v -1.659062 62.694641 6.189672
v -1.327799 41.338940 28.575071
v -1.450470 41.338940 25.544703
v 0.000000 68.019264 -14.163372
v 0.000000 41.338932 -58.067551
v 0.000000 41.338940 28.575071
v 0.000000 62.694641 9.637310
v 0.000000 62.694637 -38.844952
v 0.000000 41.338932 -61.185432
v 0.000000 62.694637 -42.184750
v 0.000000 68.019264 -18.490118
v 0.000000 62.694641 6.189672
v 0.000000 41.338940 25.544703
v 1.450469 41.338932 -58.067551
v 1.327799 41.338932 -61.185432
v 1.659062 62.694637 -38.844952
v 1.659062 62.694637 -42.184750
v 1.774435 68.019264 -14.163372
v 1.774435 68.019264 -18.490118
v 1.659062 62.694641 9.637310
v 1.659062 62.694641 6.189672
v 1.327799 41.338940 28.575071
v 1.450469 41.338940 25.544703
vn -0.0000 1.0000 -0.0000
vn -0.0000 -0.0000 1.0000
vn -1.0000 -0.0000 -0.0000
vn 0.4388 -0.8986 -0.0000
vn 0.9983 0.0578 -0.0000
vn -0.0000 -0.1066 -0.9943
vn -0.4087 0.9127 -0.0000
vn -0.0000 0.1981 0.9802
vn -0.0000 0.4088 0.9126
vn -0.2042 -0.0275 0.9785
vn -0.9978 0.0661 -0.0000
vn 0.4649 -0.8854 -0.0000
vn -0.5902 0.8072 -0.0000
vn -0.1206 -0.0251 -0.9924
vn -0.1206 -0.0251 0.9924
vn 0.9388 -0.3445 -0.0000
vn -0.1019 -0.0247 0.9945
vn -0.2040 -0.0228 -0.9787
vn -0.5895 -0.2007 -0.7825
vn -0.9997 -0.0250 -0.0000
vn 0.8179 -0.5754 -0.0000
vn 0.4488 -0.8936 -0.0000
vn -0.8641 0.5032 -0.0000
vn -0.2040 -0.0228 0.9787
vn -0.6891 0.7246 -0.0000
vn 0.9751 -0.2219 -0.0000
vn -0.9982 0.0606 -0.0000
vn -0.1591 -0.0426 -0.9863
vn -0.2655 -0.1143 -0.9573
vn 0.0075 -1.0000 -0.0000
vn -0.2655 -0.1143 0.9573
vn -0.1591 -0.0426 0.9863
vn -0.5895 -0.2007 0.7825
vn -0.0000 -1.0000 -0.0000
vn -0.5924 0.8057 -0.0000
vn -0.2042 -0.0275 -0.9785
vn 0.2395 -0.9709 -0.0000
vn -0.9992 -0.0405 -0.0000
vn 0.9638 -0.2668 -0.0000
vn -0.2330 -0.1637 -0.9586
vn 0.9631 -0.2691 -0.0000
vn -0.1019 -0.0247 -0.9945
vn 0.3205 -0.9473 -0.0000
vn -0.5006 0.8657 -0.0000
vn -0.0994 -0.0926 -0.9907
vn -0.0994 -0.0926 0.9907
vn -0.0000 -0.0000 -1.0000
vn -0.9999 0.0126 -0.0000
vn -0.2330 -0.1637 0.9586
vn -0.2051 -0.0216 -0.9785
vn -0.3600 -0.2004 0.9112
vn -0.9984 0.0567 -0.0000
vn -0.3600 -0.2004 -0.9112
vn -0.5647 -0.2196 -0.7956
vn -0.7991 0.6013 -0.0000
vn -0.2051 -0.0216 0.9785
vn -0.4731 -0.0768 -0.8776
vn -0.5647 -0.2196 0.7956
vn 0.8513 -0.5247 -0.0000
vn -0.9927 0.1207 -0.0000
vn -0.9916 -0.1290 -0.0000
vn -0.4731 -0.0768 0.8776
vn 0.5054 -0.8629 -0.0000
vn 0.7710 -0.6369 -0.0000
vn -0.4716 -0.3198 -0.8217
vn -0.4716 -0.3198 0.8217
vn 1.0000 -0.0000 -0.0000
vn -0.4388 -0.8986 -0.0000
vn -0.0000 -0.2624 -0.9650
vn 0.9929 0.1189 -0.0107
vn 0.4087 0.9127 -0.0000
vn -0.0000 0.0337 0.9994
vn -0.0000 0.4084 -0.9128
vn 0.2042 -0.0275 0.9785
vn -0.9929 0.1188 0.0108
vn -0.4649 -0.8854 -0.0000
vn 0.5902 0.8072 -0.0000
vn 0.1206 -0.0251 -0.9924
vn 0.1206 -0.0251 0.9924
vn -0.9388 -0.3445 -0.0000
vn 0.1019 -0.0247 0.9945
vn 0.2040 -0.0228 -0.9787
vn 0.5895 -0.2007 -0.7825
vn 0.9997 -0.0250 -0.0000
vn -0.8179 -0.5754 -0.0000
vn -0.4488 -0.8936 -0.0000
vn 0.8641 0.5032 -0.0000
vn 0.2040 -0.0228 0.9787
vn 0.6891 0.7246 -0.0000
vn -0.9751 -0.2219 -0.0000
vn 0.9982 0.0606 -0.0000
vn 0.1591 -0.0426 -0.9863
vn 0.2655 -0.1143 -0.9573
vn -0.0075 -1.0000 -0.0000
vn 0.2655 -0.1143 0.9573
vn 0.1591 -0.0426 0.9863
vn 0.5895 -0.2007 0.7825
vn 0.5924 0.8057 -0.0000
vn 0.2042 -0.0275 -0.9785
vn -0.2395 -0.9709 -0.0000
vn 0.9992 -0.0405 -0.0000
vn -0.9638 -0.2668 -0.0000
vn 0.2330 -0.1637 -0.9586
vn -0.9631 -0.2691 -0.0000
vn 0.1019 -0.0247 -0.9945
vn -0.3205 -0.9473 -0.0000
vn 0.5006 0.8657 -0.0000
vn 0.0994 -0.0926 -0.9907
vn 0.0994 -0.0926 0.9907
vn 0.9999 0.0126 -0.0000
vn 0.2330 -0.1637 0.9586
vn 0.2051 -0.0216 -0.9785
vn 0.3600 -0.2004 0.9112
vn 0.9984 0.0567 -0.0000
vn 0.3600 -0.2004 -0.9112
vn 0.5647 -0.2196 -0.7956
vn 0.7991 0.6013 -0.0000
vn 0.2051 -0.0216 0.9785
vn 0.4731 -0.0768 -0.8776
vn 0.5647 -0.2196 0.7956
vn -0.8513 -0.5247 -0.0000
vn 0.9927 0.1207 -0.0000
vn 0.9916 -0.1290 -0.0000
vn 0.4731 -0.0768 0.8776
vn -0.5054 -0.8629 -0.0000
vn -0.7710 -0.6369 -0.0000
vn 0.4716 -0.3198 -0.8217
vn 0.4716 -0.3198 0.8217
vn -0.0000 0.0346 -0.9994
vn -0.0000 -0.2613 0.9653
vn 0.9929 0.1188 0.0108
vn 0.9978 0.0661 -0.0000
vn -0.0000 0.1978 -0.9802
vn -0.0000 -0.1070 0.9943
vn -0.9929 0.1189 -0.0107
vn -0.9983 0.0578 -0.0000
vt 0.750000 0.718750
vt 0.875000 0.718750
vt 0.875000 0.750000
vt 0.750000 0.750000
vt 0.375000 0.875000
vt 0.625000 0.875000
vt 0.625000 1.000000
vt 0.375000 1.000000
vt 0.375000 0.218501
vt 0.625000 0.218501
vt 0.625000 0.250000
vt 0.375000 0.250000
vt 0.125000 0.625000
vt 0.125000 0.640625
vt 0.875000 0.625000
vt 0.875000 0.609500
vt 0.750000 0.578498
vt 0.875000 0.578498
vt 0.875000 0.562998
vt 0.375000 0.031250
vt 0.625000 0.031250
vt 0.625000 0.062500
vt 0.375000 0.062500
vt 0.750000 0.593999
vt 0.875000 0.593999
vt 0.375000 0.000000
vt 0.625000 0.000000
vt 0.750000 0.687500
vt 0.875000 0.687500
vt 0.750000 0.562998
vt 0.375000 0.078125
vt 0.625000 0.078125
vt 0.625000 0.093750
vt 0.375000 0.093750
vt 0.375000 0.140501
vt 0.625000 0.140501
vt 0.750000 0.500000
vt 0.875000 0.500000
vt 0.875000 0.531499
vt 0.750000 0.531499
vt 0.375000 0.202751
vt 0.625000 0.202752
vt 0.125000 0.547248
vt 0.125000 0.562998
vt 0.875000 0.547248
vt 0.750000 0.547248
vt 0.375000 0.187002
vt 0.625000 0.187002
vt 0.125000 0.609500
vt 0.375000 0.156001
vt 0.625000 0.156001
vt 0.750000 0.609500
vt 0.750000 0.625000
vt 0.875000 0.640625
vt 0.750000 0.640625
vt 0.875000 0.656250
vt 0.750000 0.656250
vt 0.875000 0.671875
vt 0.750000 0.671875
vt 0.375000 0.125000
vt 0.625000 0.125000
vt 0.125000 0.578498
vt 0.375000 0.171501
vt 0.625000 0.171502
vt 0.125000 0.656250
vt 0.250000 0.656250
vt 0.250000 0.671875
vt 0.125000 0.671875
vt 0.250000 0.625000
vt 0.250000 0.640625
vt 0.125000 0.593999
vt 0.250000 0.593999
vt 0.250000 0.609500
vt 0.250000 0.562998
vt 0.250000 0.578498
vt 0.125000 0.531499
vt 0.250000 0.531499
vt 0.250000 0.547248
vt 0.125000 0.500000
vt 0.250000 0.500000
vt 0.125000 0.687500
vt 0.250000 0.687500
vt 0.250000 0.718750
vt 0.125000 0.718750
vt 0.625000 0.375000
vt 0.375000 0.375000
vt 0.250000 0.750000
vt 0.125000 0.750000
vt 0.375000 0.109375
vt 0.625000 0.109375
s 0
usemtl Material.002
f 64/1/1 12/2/1 3/3/1 54/4/1
f 55/5/2 54/6/2 3/7/2 4/8/2
f 23/9/3 21/10/3 1/11/3 2/12/3
f 5/13/4 39/14/4 85/14/4 82/13/4
f 97/15/5 126/16/5 180/16/5 179/15/5
f 74/17/6 29/18/6 158/18/6 171/17/6
f 29/18/7 7/19/7 46/19/7 45/18/7
f 11/20/3 12/21/3 10/22/3 9/23/3
f 67/24/8 110/25/8 177/25/8 169/24/8
f 4/26/3 3/27/3 12/21/3 11/20/3
f 62/28/1 10/29/1 12/2/1 64/1/1
f 7/19/9 59/30/9 166/30/9 155/19/9
f 41/31/3 43/32/3 13/33/3 15/34/3
f 33/35/10 35/36/10 42/36/10 34/35/10
f 29/18/11 19/25/11 157/25/11 158/18/11
f 56/37/1 1/38/1 21/39/1 70/40/1
f 25/41/3 27/42/3 21/10/3 23/9/3
f 25/43/12 8/44/12 20/44/12 22/43/12
f 7/19/13 27/45/13 14/45/13 18/19/13
f 27/42/14 25/41/14 22/41/14 14/42/14
f 70/40/1 21/39/1 27/45/1 72/46/1
f 8/47/15 7/48/15 18/48/15 20/47/15
f 32/49/16 30/13/16 16/49/16
f 59/30/1 7/19/1 29/18/1 74/17/1
f 17/50/17 19/51/17 48/51/17 49/50/17
f 35/36/18 33/35/18 32/35/18 24/36/18
f 67/24/1 19/25/1 35/16/1 75/52/1
f 24/36/19 32/35/19 16/36/19
f 28/15/20 24/16/20 16/15/20
f 22/43/21 20/44/21 81/43/21
f 33/49/22 5/13/22 30/13/22 32/49/22
f 58/53/1 6/15/1 37/54/1 78/55/1
f 13/56/23 37/54/23 90/54/23 87/56/23
f 9/23/3 10/22/3 43/32/3 41/31/3
f 65/57/1 13/56/1 43/58/1 79/59/1
f 5/60/24 6/61/24 28/61/24 30/60/24
f 6/15/25 35/16/25 24/16/25 28/15/25
f 50/44/26 51/62/26 47/44/26
f 42/16/27 40/25/27 26/16/27
f 7/48/28 8/47/28 50/47/28 46/48/28
f 40/51/29 38/50/29 26/51/29
f 8/44/30 31/62/30 51/62/30 50/44/30
f 34/35/31 42/36/31 26/35/31
f 31/63/32 29/64/32 45/64/32 51/63/32
f 30/60/33 28/61/33 16/60/33
f 15/65/34 66/66/34 80/67/34 41/68/34
f 35/16/35 19/25/35 40/25/35 42/16/35
f 19/51/36 17/50/36 38/50/36 40/51/36
f 5/13/34 57/69/34 77/70/34 39/14/34
f 17/71/34 68/72/34 76/73/34 33/49/34
f 17/71/37 33/49/37 34/49/37 38/71/37
f 48/25/38 44/18/38 36/25/38
f 8/44/34 60/74/34 73/75/34 31/62/34
f 52/62/39 49/71/39 36/62/39
f 23/76/34 69/77/34 71/78/34 25/43/34
f 44/64/40 52/63/40 36/64/40
f 2/79/34 53/80/34 69/77/34 23/76/34
f 31/62/34 73/75/34 68/72/34 17/71/34
f 38/71/41 34/49/41 26/71/41
f 39/14/34 77/70/34 66/66/34 15/65/34
f 29/64/42 31/63/42 52/63/42 44/64/42
f 31/62/43 17/71/43 49/71/43 52/62/43
f 9/81/34 61/82/34 63/83/34 11/84/34
f 19/25/44 29/18/44 44/18/44 48/25/44
f 41/68/34 80/67/34 61/82/34 9/81/34
f 25/43/34 71/78/34 60/74/34 8/44/34
f 46/48/45 50/47/45 47/48/45
f 51/63/46 45/64/46 47/63/46
f 33/49/34 76/73/34 57/69/34 5/13/34
f 2/12/47 1/11/47 56/85/47 53/86/47
f 11/84/34 63/83/34 55/87/34 4/88/34
f 45/18/48 46/19/48 47/18/48
f 49/50/49 48/51/49 36/50/49
f 6/61/50 5/60/50 82/60/50 83/61/50
f 20/47/51 18/48/51 81/47/51
f 18/19/52 14/45/52 81/19/52
f 14/42/53 22/41/53 81/42/53
f 83/61/54 82/60/54 86/61/54
f 37/54/55 6/15/55 83/15/55 84/54/55
f 39/89/56 37/90/56 84/90/56 85/89/56
f 37/90/57 39/89/57 89/89/57 90/90/57
f 85/89/58 84/90/58 86/89/58
f 82/13/59 85/14/59 86/13/59
f 84/54/60 83/15/60 86/54/60
f 87/56/61 90/54/61 91/56/61
f 15/34/62 13/33/62 87/33/62 88/34/62
f 39/14/63 15/65/63 88/65/63 89/14/63
f 89/14/64 88/65/64 91/14/64
f 90/90/65 89/89/65 91/90/65
f 88/34/66 87/33/66 91/34/66
f 64/1/1 54/4/1 94/3/1 103/2/1
f 55/5/2 95/8/2 94/7/2 54/6/2
f 114/9/67 93/12/67 92/11/67 112/10/67
f 96/13/68 145/13/68 148/14/68 130/14/68
f 72/46/69 27/45/69 156/45/69 170/46/69
f 98/19/70 118/45/70 176/45/70 175/19/70
f 120/18/71 136/18/71 137/19/71 98/19/71
f 102/20/67 100/23/67 101/22/67 103/21/67
f 6/15/72 58/53/72 165/53/72 159/15/72
f 95/26/67 102/20/67 103/21/67 94/27/67
f 62/28/1 64/1/1 103/2/1 101/29/1
f 134/58/73 79/59/73 174/59/73 184/58/73
f 132/31/67 106/34/67 104/33/67 134/32/67
f 124/35/74 125/35/74 133/36/74 126/36/74
f 43/32/75 10/22/75 163/22/75 164/32/75
f 56/37/1 70/40/1 112/39/1 92/38/1
f 116/41/67 114/9/67 112/10/67 118/42/67
f 116/43/76 113/43/76 111/44/76 99/44/76
f 98/19/77 109/19/77 105/45/77 118/45/77
f 118/42/78 105/42/78 113/41/78 116/41/78
f 70/40/1 72/46/1 118/45/1 112/39/1
f 99/47/79 111/47/79 109/48/79 98/48/79
f 123/49/80 107/49/80 121/13/80
f 59/30/1 74/17/1 120/18/1 98/19/1
f 108/50/81 140/50/81 139/51/81 110/51/81
f 126/36/82 115/36/82 123/35/82 124/35/82
f 67/24/1 75/52/1 126/16/1 110/25/1
f 115/36/83 107/36/83 123/35/83
f 119/15/84 107/15/84 115/16/84
f 113/43/85 144/43/85 111/44/85
f 124/49/86 123/49/86 121/13/86 96/13/86
f 58/53/1 78/55/1 128/54/1 97/15/1
f 104/56/87 150/56/87 153/54/87 128/54/87
f 100/23/67 132/31/67 134/32/67 101/22/67
f 65/57/1 79/59/1 134/58/1 104/56/1
f 96/60/88 121/60/88 119/61/88 97/61/88
f 97/15/89 119/15/89 115/16/89 126/16/89
f 141/44/90 138/44/90 142/62/90
f 133/16/91 117/16/91 131/25/91
f 98/48/92 137/48/92 141/47/92 99/47/92
f 131/51/93 117/51/93 129/50/93
f 99/44/94 141/44/94 142/62/94 122/62/94
f 125/35/95 117/35/95 133/36/95
f 122/63/96 142/63/96 136/64/96 120/64/96
f 121/60/97 107/60/97 119/61/97
f 106/65/34 132/68/34 80/67/34 66/66/34
f 126/16/98 133/16/98 131/25/98 110/25/98
f 110/51/99 131/51/99 129/50/99 108/50/99
f 96/13/34 130/14/34 77/70/34 57/69/34
f 108/71/34 124/49/34 76/73/34 68/72/34
f 108/71/100 129/71/100 125/49/100 124/49/100
f 139/25/101 127/25/101 135/18/101
f 99/44/34 122/62/34 73/75/34 60/74/34
f 143/62/102 127/62/102 140/71/102
f 114/76/34 116/43/34 71/78/34 69/77/34
f 135/64/103 127/64/103 143/63/103
f 93/79/34 114/76/34 69/77/34 53/80/34
f 122/62/34 108/71/34 68/72/34 73/75/34
f 129/71/104 117/71/104 125/49/104
f 130/14/34 106/65/34 66/66/34 77/70/34
f 120/64/105 135/64/105 143/63/105 122/63/105
f 122/62/106 143/62/106 140/71/106 108/71/106
f 100/81/34 102/84/34 63/83/34 61/82/34
f 110/25/107 139/25/107 135/18/107 120/18/107
f 132/68/34 100/81/34 61/82/34 80/67/34
f 116/43/34 99/44/34 60/74/34 71/78/34
f 137/48/108 138/48/108 141/47/108
f 142/63/109 138/63/109 136/64/109
f 124/49/34 96/13/34 57/69/34 76/73/34
f 93/12/47 53/86/47 56/85/47 92/11/47
f 102/84/34 95/88/34 55/87/34 63/83/34
f 136/18/110 138/18/110 137/19/110
f 140/50/111 127/50/111 139/51/111
f 97/61/112 146/61/112 145/60/112 96/60/112
f 111/47/113 144/47/113 109/48/113
f 109/19/114 144/19/114 105/45/114
f 105/42/115 144/42/115 113/41/115
f 146/61/116 149/61/116 145/60/116
f 128/54/117 147/54/117 146/15/117 97/15/117
f 130/89/118 148/89/118 147/90/118 128/90/118
f 128/90/119 153/90/119 152/89/119 130/89/119
f 148/89/120 149/89/120 147/90/120
f 145/13/121 149/13/121 148/14/121
f 147/54/122 149/54/122 146/15/122
f 150/56/123 154/56/123 153/54/123
f 106/34/124 151/34/124 150/33/124 104/33/124
f 130/14/125 152/14/125 151/65/125 106/65/125
f 152/14/126 154/14/126 151/65/126
f 153/90/127 154/90/127 152/89/127
f 151/34/128 154/34/128 150/33/128
f 172/52/1 160/16/1 159/15/1 165/53/1
f 170/46/1 156/45/1 155/19/1 166/30/1
f 174/59/1 164/58/1 163/29/1 167/28/1
f 173/55/1 162/54/1 161/56/1 168/57/1
f 171/17/1 158/18/1 157/25/1 169/24/1
f 172/52/1 165/53/1 179/15/1 180/16/1
f 170/46/1 166/30/1 175/19/1 176/45/1
f 174/59/1 167/28/1 183/29/1 184/58/1
f 173/55/1 168/57/1 181/56/1 182/54/1
f 171/17/1 169/24/1 177/25/1 178/18/1
f 37/54/11 13/56/11 161/56/11 162/54/11
f 75/52/129 35/16/129 160/16/129 172/52/129
f 10/29/130 62/28/130 167/28/130 163/29/130
f 101/22/131 134/32/131 184/32/131 183/22/131
f 58/53/72 97/15/72 179/15/72 165/53/72
f 118/45/69 72/46/69 170/46/69 176/45/69
f 110/25/132 120/18/132 178/18/132 177/25/132
f 78/55/133 37/54/133 162/54/133 173/55/133
f 59/30/9 98/19/9 175/19/9 166/30/9
f 13/56/134 65/57/134 168/57/134 161/56/134
f 79/59/73 43/58/73 164/58/73 174/59/73
f 27/45/135 7/19/135 155/19/135 156/45/135
f 120/18/6 74/17/6 171/17/6 178/18/6
f 104/56/132 128/54/132 182/54/132 181/56/132
f 19/25/8 67/24/8 169/24/8 157/25/8
f 126/16/129 75/52/129 172/52/129 180/16/129
f 62/28/130 101/29/130 183/29/130 167/28/130
f 35/16/136 6/15/136 159/15/136 160/16/136
f 128/54/133 78/55/133 173/55/133 182/54/133
f 65/57/134 104/56/134 181/56/134 168/57/134
