# Blender 3.6.2
# www.blender.org
mtllib TriceraSpine.mtl
o Spine
v -5.023526 11.998116 -78.100342
v -5.023526 1.951063 -78.100342
v -5.023526 11.998125 53.493820
v -5.023526 1.951073 53.493820
v -5.023526 16.233917 -0.000001
v -5.023526 26.280970 -0.000002
v -5.023526 10.527080 33.263603
v -5.023526 20.574129 33.263603
v -5.023526 17.716358 -39.050171
v -5.023526 7.669306 -39.050171
v -5.023526 25.368725 19.525084
v -5.023526 15.321674 19.525084
v -17.722116 13.851929 -26.828501
v -5.023526 12.986782 -19.525087
v -16.377172 11.386777 -11.833390
v -5.023526 23.033834 -19.525087
v -17.992876 15.042053 -21.984217
v -5.023526 5.209023 44.708794
v -16.886917 10.180810 -21.984215
v -5.023526 15.256075 44.708794
v -16.616158 8.990685 -26.828499
v -5.023526 13.673071 -56.585098
v -21.686768 -7.323538 -34.168896
v -5.023526 3.626018 -56.585098
v -15.841123 10.153947 -17.454241
v -5.023526 20.574125 -29.287628
v -18.147747 15.458827 -17.454243
v -5.023526 10.527075 -29.287626
v -18.683798 16.691658 -11.833390
v -5.023526 15.321671 -9.762544
v -16.001177 7.200366 -31.070406
v -5.023526 25.368723 -9.762545
v -19.936481 -7.172050 -43.931438
v -5.023526 26.280970 9.762541
v -15.378330 5.496616 -37.267391
v -5.023526 16.233917 9.762542
v -17.568071 11.486489 -37.267391
v -5.023526 12.986786 26.826759
v -18.190918 13.190241 -31.070408
v -5.023526 23.033838 26.826759
v -15.753900 7.269303 -47.118919
v -5.023526 17.716366 39.115776
v -13.110105 -6.911083 -52.513252
v -5.023526 7.669312 39.115776
v -16.344688 8.559475 -40.743969
v -5.023526 3.249730 48.762768
v -13.932092 3.290814 -40.743969
v -5.023526 13.296782 48.762768
v -13.341303 2.000640 -47.118919
v -5.023526 5.209015 -48.812714
v -9.104483 -0.266905 -50.535774
v -5.023526 15.256067 -48.812714
v -8.839494 -0.910444 -54.827858
v -5.023526 12.510394 -63.371441
v -10.521347 3.174007 -54.827858
v -5.023526 2.463341 -64.524635
v -10.786338 3.817546 -50.535774
v 0.000000 1.951063 -78.100342
v 0.000000 11.998125 53.493820
v 0.000000 1.951073 53.493820
v 0.000000 11.998116 -78.100342
v 0.000000 16.233917 -0.000001
v 0.000000 26.280970 -0.000002
v 0.000000 10.527080 33.263603
v 0.000000 20.574129 33.263603
v 0.000000 17.716358 -39.050171
v 0.000000 7.669306 -39.050171
v 0.000000 25.368725 19.525084
v 0.000000 15.321674 19.525084
v 0.000000 23.033834 -19.525087
v 0.000000 12.986782 -19.525087
v 0.000000 5.209023 44.708794
v 0.000000 15.256075 44.708794
v 0.000000 3.626018 -56.585098
v 0.000000 13.673071 -56.585098
v 0.000000 10.527075 -29.287626
v 0.000000 20.574125 -29.287628
v 0.000000 25.368723 -9.762545
v 0.000000 15.321671 -9.762544
v 0.000000 16.233917 9.762542
v 0.000000 26.280970 9.762541
v 0.000000 23.033838 26.826759
v 0.000000 12.986786 26.826759
v 0.000000 17.716366 39.115776
v 0.000000 7.669312 39.115776
v 0.000000 3.249730 48.762768
v 0.000000 13.296782 48.762768
v 0.000000 5.209015 -48.812714
v 0.000000 15.256067 -48.812714
v 0.000000 12.510394 -64.524635
v 0.000000 2.463341 -64.524635
v -22.515053 -4.433953 -24.406357
v -21.845194 -2.275140 -14.643815
v -17.546942 20.490410 -2.034832
v -15.546676 14.983660 -2.034832
v -15.365056 14.483661 -7.727712
v -17.365324 19.990414 -7.727713
v -18.909332 7.054766 -4.881271
v -11.691870 15.563436 2.464277
v -13.945729 19.998455 2.464277
v -13.945729 19.998455 7.298264
v -11.691870 15.563437 7.298264
v -15.771051 12.458624 4.881270
v 5.023526 11.998116 -78.100342
v 5.023526 1.951063 -78.100342
v 5.023526 11.998125 53.493820
v 5.023526 1.951073 53.493820
v 5.023526 16.233917 -0.000001
v 5.023526 26.280970 -0.000002
v 5.023526 10.527080 33.263603
v 5.023526 20.574129 33.263603
v 5.023526 17.716358 -39.050171
v 5.023526 7.669306 -39.050171
v 5.023526 25.368725 19.525084
v 5.023526 15.321674 19.525084
v 17.722116 13.851929 -26.828501
v 5.023526 12.986782 -19.525087
v 16.377172 11.386777 -11.833390
v 5.023526 23.033834 -19.525087
v 17.992876 15.042053 -21.984217
v 5.023526 5.209023 44.708794
v 16.886917 10.180810 -21.984215
v 5.023526 15.256075 44.708794
v 16.616158 8.990685 -26.828499
v 5.023526 13.673071 -56.585098
v 21.686768 -7.323538 -34.168896
v 5.023526 3.626018 -56.585098
v 15.841123 10.153947 -17.454241
v 5.023526 20.574125 -29.287628
v 18.147747 15.458827 -17.454243
v 5.023526 10.527075 -29.287626
v 18.683798 16.691658 -11.833390
v 5.023526 15.321671 -9.762544
v 16.001177 7.200366 -31.070406
v 5.023526 25.368723 -9.762545
v 19.936481 -7.172050 -43.931438
v 5.023526 26.280970 9.762541
v 15.378330 5.496616 -37.267391
v 5.023526 16.233917 9.762542
v 17.568071 11.486489 -37.267391
v 5.023526 12.986786 26.826759
v 18.190918 13.190241 -31.070408
v 5.023526 23.033838 26.826759
v 15.753900 7.269303 -47.118919
v 5.023526 17.716366 39.115776
v 13.110105 -6.911083 -52.513252
v 5.023526 7.669312 39.115776
v 16.344688 8.559475 -40.743969
v 5.023526 3.249730 48.762768
v 13.932092 3.290814 -40.743969
v 5.023526 13.296782 48.762768
v 13.341303 2.000640 -47.118919
v 5.023526 5.209015 -48.812714
v 9.104483 -0.266905 -50.535774
v 5.023526 15.256067 -48.812714
v 8.839494 -0.910444 -54.827858
v 5.023526 12.510394 -63.371441
v 10.521347 3.174007 -54.827858
v 5.023526 2.463341 -64.524635
v 10.786338 3.817546 -50.535774
v 22.515053 -4.433953 -24.406357
v 21.845194 -2.275140 -14.643815
v 17.546942 20.490410 -2.034832
v 15.546676 14.983660 -2.034832
v 15.365056 14.483661 -7.727712
v 17.365324 19.990414 -7.727713
v 18.909332 7.054766 -4.881271
v 11.691870 15.563436 2.464277
v 13.945729 19.998455 2.464277
v 13.945729 19.998455 7.298264
v 11.691870 15.563437 7.298264
v 15.771051 12.458624 4.881270
vn -0.0000 0.9643 0.2647
vn -0.0000 -0.0000 1.0000
vn -1.0000 -0.0000 -0.0000
vn -0.2832 -0.0441 0.9580
vn -0.0000 0.9957 -0.0930
vn -0.0000 0.9341 0.3570
vn -0.0000 0.9697 -0.2444
vn -0.1379 -0.0188 0.9903
vn -0.1602 -0.0241 -0.9868
vn -0.8850 0.4541 -0.1032
vn -0.0000 0.9597 -0.2809
vn -0.1937 -0.0144 -0.9810
vn 0.0992 -0.9908 0.0917
vn -0.0000 0.9726 -0.2326
vn 0.1766 -0.9541 0.2417
vn -0.4851 0.8462 -0.2204
vn -0.0000 1.0000 -0.0000
vn -0.0000 0.9525 0.3046
vn -0.1884 -0.0140 0.9820
vn -0.5070 0.8356 -0.2115
vn -0.0000 0.8986 0.4388
vn -0.9743 0.1821 -0.1328
vn -0.1521 -0.0229 0.9881
vn -0.9647 0.2380 -0.1124
vn 0.8976 -0.3937 0.1985
vn -0.0000 0.9004 0.4351
vn -0.1606 -0.0253 -0.9867
vn -0.2699 -0.0987 -0.9578
vn -0.9708 0.1880 -0.1493
vn -0.0000 0.9799 -0.1996
vn -0.0042 0.9993 -0.0362
vn 0.2844 -0.9317 0.2260
vn -0.1466 -0.0200 -0.9890
vn -0.0000 -0.9993 0.0377
vn 0.2400 -0.9309 0.2754
vn -0.4517 0.8530 -0.2614
vn -0.0000 -0.9799 0.1996
vn -0.2808 -0.1286 -0.9511
vn -0.0000 -0.9004 -0.4351
vn -0.0000 -0.8986 -0.4388
vn -0.9590 0.2471 -0.1389
vn -0.0000 -0.9525 -0.3046
vn -0.2808 -0.1286 0.9511
vn -0.2699 -0.0987 0.9578
vn -0.0000 -1.0000 -0.0000
vn -0.0000 -0.9726 0.2326
vn -0.1497 -0.0236 0.9884
vn -0.6012 0.7733 -0.2017
vn -0.0000 -0.9597 0.2809
vn 0.3930 -0.8924 0.2218
vn -0.0000 -0.9894 0.1449
vn -0.9693 0.2273 -0.0939
vn -0.0000 -0.9154 -0.4027
vn -0.0000 -0.9697 0.2443
vn 0.8310 -0.5404 0.1323
vn -0.0000 -0.9957 -0.0930
vn -0.3219 -0.1325 -0.9375
vn -0.0000 -0.9697 0.2444
vn 0.8272 -0.5308 0.1841
vn 0.7787 -0.6137 0.1304
vn -0.0000 -0.9341 -0.3570
vn -0.2789 -0.0332 0.9597
vn -0.0000 -0.9957 0.0930
vn -0.0000 -0.0000 -1.0000
vn -0.0000 -0.9643 -0.2647
vn -0.3016 -0.0359 -0.9528
vn -0.2796 -0.1151 0.9532
vn -0.2379 -0.1034 -0.9658
vn -0.2607 -0.0593 -0.9636
vn 0.9153 -0.3763 0.1436
vn -0.2607 -0.0593 0.9636
vn -0.1675 -0.0215 0.9856
vn 0.9016 -0.3964 0.1729
vn -0.2379 -0.1034 0.9658
vn 0.9101 -0.4093 0.0650
vn -0.1707 -0.0220 -0.9851
vn -0.4082 0.9087 -0.0878
vn 0.1000 -0.9950 -0.0000
vn -0.4102 -0.1490 0.8997
vn -0.4102 -0.1490 -0.8997
vn -0.9931 0.1095 -0.0413
vn -0.9719 0.2353 -0.0000
vn -0.2832 -0.0441 -0.9580
vn -0.5757 0.8176 -0.0000
vn -0.3853 -0.1958 -0.9018
vn -0.3853 -0.1958 0.9018
vn 0.6057 -0.7957 -0.0000
vn 1.0000 -0.0000 -0.0000
vn 0.2832 -0.0441 0.9580
vn 0.1379 -0.0188 0.9903
vn 0.1602 -0.0241 -0.9868
vn 0.8850 0.4541 -0.1032
vn 0.1937 -0.0144 -0.9810
vn -0.0992 -0.9908 0.0917
vn -0.1766 -0.9541 0.2417
vn 0.4851 0.8462 -0.2204
vn 0.1884 -0.0140 0.9820
vn 0.5070 0.8356 -0.2115
vn 0.9743 0.1821 -0.1328
vn 0.1521 -0.0229 0.9881
vn 0.9647 0.2380 -0.1124
vn -0.8976 -0.3937 0.1985
vn 0.1606 -0.0253 -0.9867
vn 0.2699 -0.0987 -0.9578
vn 0.9708 0.1880 -0.1493
vn 0.0042 0.9993 -0.0362
vn -0.2844 -0.9317 0.2260
vn 0.1466 -0.0200 -0.9890
vn -0.2400 -0.9309 0.2754
vn 0.4517 0.8530 -0.2614
vn 0.2808 -0.1286 -0.9511
vn 0.9590 0.2471 -0.1389
vn 0.2808 -0.1286 0.9511
vn 0.2699 -0.0987 0.9578
vn 0.1497 -0.0236 0.9884
vn 0.6012 0.7733 -0.2017
vn -0.3930 -0.8924 0.2218
vn 0.9693 0.2273 -0.0939
vn -0.8310 -0.5404 0.1323
vn 0.3219 -0.1325 -0.9375
vn -0.8272 -0.5308 0.1841
vn -0.7787 -0.6137 0.1304
vn 0.2789 -0.0332 0.9597
vn 0.3016 -0.0359 -0.9528
vn 0.2796 -0.1151 0.9532
vn 0.2379 -0.1034 -0.9658
vn 0.2607 -0.0593 -0.9636
vn -0.9153 -0.3763 0.1436
vn 0.2607 -0.0593 0.9636
vn 0.1675 -0.0215 0.9856
vn -0.9016 -0.3964 0.1729
vn 0.2379 -0.1034 0.9658
vn -0.9101 -0.4093 0.0650
vn 0.1707 -0.0220 -0.9851
vn 0.4082 0.9087 -0.0878
vn -0.1000 -0.9950 -0.0000
vn 0.4102 -0.1490 0.8997
vn 0.4102 -0.1490 -0.8997
vn 0.9931 0.1095 -0.0413
vn 0.9719 0.2353 -0.0000
vn 0.2832 -0.0441 -0.9580
vn 0.5757 0.8176 -0.0000
vn 0.3853 -0.1958 -0.9018
vn 0.3853 -0.1958 0.9018
vn -0.6057 -0.7957 -0.0000
vn -0.0332 0.9889 -0.1448
vn -0.0000 0.9697 -0.2443
vn -0.0000 0.9856 -0.1689
vn 0.0332 0.9889 -0.1448
vn -0.0000 0.9957 0.0930
vn -0.0000 0.9154 0.4027
vt 0.750000 0.733617
vt 0.875000 0.733617
vt 0.875000 0.750000
vt 0.750000 0.750000
vt 0.375000 0.875000
vt 0.625000 0.875000
vt 0.625000 1.000000
vt 0.375000 1.000000
vt 0.375000 0.234375
vt 0.625000 0.234375
vt 0.625000 0.250000
vt 0.375000 0.250000
vt 0.375000 0.109375
vt 0.625000 0.109375
vt 0.750000 0.609375
vt 0.875000 0.609375
vt 0.875000 0.625000
vt 0.750000 0.625000
vt 0.375000 0.047633
vt 0.625000 0.047633
vt 0.625000 0.062500
vt 0.375000 0.062500
vt 0.750000 0.671875
vt 0.875000 0.671875
vt 0.875000 0.687500
vt 0.750000 0.687500
vt 0.750000 0.546875
vt 0.875000 0.546875
vt 0.875000 0.562500
vt 0.750000 0.562500
vt 0.375000 0.171875
vt 0.625000 0.171875
vt 0.375000 0.078125
vt 0.625000 0.078125
vt 0.625000 0.093750
vt 0.375000 0.093750
vt 0.625000 0.156250
vt 0.375000 0.156250
vt 0.375000 0.016383
vt 0.625000 0.016383
vt 0.625000 0.032766
vt 0.375000 0.032766
vt 0.875000 0.531250
vt 0.875000 0.578125
vt 0.750000 0.578125
vt 0.125000 0.609375
vt 0.125000 0.625000
vt 0.750000 0.593750
vt 0.875000 0.593750
vt 0.125000 0.578125
vt 0.125000 0.593750
vt 0.875000 0.640625
vt 0.750000 0.640625
vt 0.750000 0.656250
vt 0.875000 0.656250
vt 0.875000 0.702367
vt 0.750000 0.702367
vt 0.375000 0.140625
vt 0.625000 0.140625
vt 0.375000 0.000000
vt 0.625000 0.000000
vt 0.125000 0.562500
vt 0.750000 0.717233
vt 0.875000 0.717234
vt 0.625000 0.203125
vt 0.375000 0.203125
vt 0.625000 0.187500
vt 0.375000 0.187500
vt 0.750000 0.531250
vt 0.750000 0.500000
vt 0.875000 0.500000
vt 0.875000 0.515625
vt 0.750000 0.515625
vt 0.375000 0.218750
vt 0.625000 0.218750
vt 0.125000 0.500000
vt 0.250000 0.500000
vt 0.250000 0.515625
vt 0.125000 0.515625
vt 0.125000 0.531250
vt 0.250000 0.531250
vt 0.250000 0.546875
vt 0.125000 0.546875
vt 0.125000 0.717234
vt 0.250000 0.717234
vt 0.250000 0.733617
vt 0.125000 0.733617
vt 0.125000 0.687500
vt 0.250000 0.687500
vt 0.250000 0.702367
vt 0.125000 0.702367
vt 0.125000 0.656250
vt 0.250000 0.656250
vt 0.250000 0.671875
vt 0.125000 0.671875
vt 0.250000 0.625000
vt 0.250000 0.640625
vt 0.125000 0.640625
vt 0.250000 0.593750
vt 0.250000 0.609375
vt 0.250000 0.562500
vt 0.250000 0.578125
vt 0.625000 0.375000
vt 0.375000 0.375000
vt 0.250000 0.750000
vt 0.125000 0.750000
vt 0.375000 0.125000
vt 0.625000 0.125000
vt 0.000000 0.000000
s 0
usemtl Material.001
f 87/1/1 48/2/1 3/3/1 59/4/1
f 60/5/2 59/6/2 3/7/2 4/8/2
f 56/9/3 54/10/3 1/11/3 2/12/3
f 36/13/4 34/14/4 101/14/4 102/13/4
f 78/15/5 32/16/5 6/17/5 63/18/5
f 44/19/3 42/20/3 8/21/3 7/22/3
f 82/23/6 40/24/6 8/25/6 65/26/6
f 89/27/7 52/28/7 9/29/7 66/30/7
f 28/31/8 26/32/8 39/32/8 31/31/8
f 38/33/3 40/34/3 11/35/3 12/36/3
f 16/37/9 14/38/9 25/38/9 27/37/9
f 46/39/3 48/40/3 20/41/3 18/42/3
f 52/28/10 22/43/10 55/43/10 57/28/10
f 66/30/11 9/29/11 26/44/11 77/45/11
f 26/32/12 28/31/12 21/31/12 13/32/12
f 30/46/13 5/47/13 95/47/13 96/46/13
f 70/48/14 16/49/14 32/16/14 78/15/14
f 28/50/15 14/51/15 19/51/15 21/50/15
f 16/49/16 26/44/16 13/44/16 17/49/16
f 63/18/17 6/17/17 34/52/17 81/53/17
f 12/36/3 11/35/3 34/14/3 36/13/3
f 7/22/3 8/21/3 40/34/3 38/33/3
f 68/54/18 11/55/18 40/24/18 82/23/18
f 14/38/19 16/37/19 17/37/19 19/38/19
f 32/16/20 16/49/20 27/49/20 29/16/20
f 65/26/21 8/25/21 42/56/21 84/57/21
f 29/16/22 27/49/22 93/16/22
f 30/58/23 32/59/23 29/59/23 15/58/23
f 18/42/3 20/41/3 42/20/3 44/19/3
f 4/60/3 3/61/3 48/40/3 46/39/3
f 17/49/24 13/44/24 92/49/24
f 35/62/25 31/50/25 23/62/25
f 73/63/26 20/64/26 48/2/26 87/1/26
f 52/65/27 50/66/27 49/66/27 41/65/27
f 37/67/28 35/68/28 23/67/28
f 39/44/29 37/29/29 23/44/29
f 75/69/30 22/43/30 52/28/30 89/27/30
f 61/70/31 1/71/31 54/72/31 90/73/31
f 14/51/32 30/46/32 15/46/32 25/51/32
f 9/67/33 10/68/33 35/68/33 37/67/33
f 24/74/3 22/75/3 54/10/3 56/9/3
f 2/76/34 58/77/34 91/78/34 56/79/34
f 10/62/35 28/50/35 31/50/35 35/62/35
f 26/44/36 9/29/36 37/29/36 39/44/36
f 24/80/37 74/81/37 88/82/37 50/83/37
f 41/65/38 49/66/38 33/65/38
f 18/84/39 72/85/39 86/86/39 46/87/39
f 7/88/40 64/89/40 85/90/40 44/91/40
f 45/29/41 41/28/41 33/29/41
f 12/92/42 69/93/42 83/94/42 38/95/42
f 47/68/43 45/67/43 33/68/43
f 31/31/44 39/32/44 23/31/44
f 5/47/45 62/96/45 80/97/45 36/98/45
f 14/51/46 71/99/46 79/100/46 30/46/46
f 10/68/47 9/67/47 45/67/47 47/68/47
f 9/29/48 52/28/48 41/28/48 45/29/48
f 10/62/49 67/101/49 76/102/49 28/50/49
f 50/83/50 10/62/50 47/62/50 49/83/50
f 56/79/51 91/78/51 74/81/51 24/80/51
f 57/28/52 55/43/52 43/28/52
f 44/91/53 85/90/53 72/85/53 18/84/53
f 28/50/54 76/102/54 71/99/54 14/51/54
f 53/80/55 51/83/55 43/80/55
f 36/98/56 80/97/56 69/93/56 12/92/56
f 55/75/57 53/74/57 43/75/57
f 50/83/58 88/82/58 67/101/58 10/62/58
f 49/83/59 47/62/59 33/83/59
f 24/80/60 50/83/60 51/83/60 53/80/60
f 38/95/61 83/94/61 64/89/61 7/88/61
f 50/66/62 52/65/62 57/65/62 51/66/62
f 30/46/63 79/100/63 62/96/63 5/47/63
f 2/12/64 1/11/64 61/103/64 58/104/64
f 46/87/65 86/86/65 60/105/65 4/106/65
f 22/75/66 24/74/66 53/74/66 55/75/66
f 51/66/67 57/65/67 43/66/67
f 27/37/68 25/38/68 93/37/68
f 13/32/69 21/31/69 92/32/69
f 21/50/70 19/51/70 92/50/70
f 19/38/71 17/37/71 92/38/71
f 5/107/72 6/108/72 94/108/72 95/107/72
f 25/51/73 15/46/73 93/51/73
f 15/58/74 29/59/74 93/58/74
f 96/46/75 95/47/75 98/46/75
f 32/59/76 30/58/76 96/58/76 97/59/76
f 6/17/77 32/16/77 97/16/77 94/17/77
f 5/47/78 36/98/78 102/98/78 99/47/78
f 95/107/79 94/108/79 98/107/79
f 97/59/80 96/58/80 98/59/80
f 94/17/81 97/16/81 98/17/81
f 101/52/82 100/17/82 103/52/82
f 6/108/83 5/107/83 99/107/83 100/108/83
f 34/52/84 6/17/84 100/17/84 101/52/84
f 100/108/85 99/107/85 103/108/85
f 102/13/86 101/14/86 103/13/86
f 99/47/87 102/98/87 103/47/87
f 87/1/1 59/4/1 106/3/1 151/2/1
f 60/5/2 107/8/2 106/7/2 59/6/2
f 159/9/88 105/12/88 104/11/88 157/10/88
f 139/13/89 171/13/89 170/14/89 137/14/89
f 78/15/5 63/18/5 109/17/5 135/16/5
f 147/19/88 110/22/88 111/21/88 145/20/88
f 82/23/6 65/26/6 111/25/6 143/24/6
f 89/27/7 66/30/7 112/29/7 155/28/7
f 131/31/90 134/31/90 142/32/90 129/32/90
f 141/33/88 115/36/88 114/35/88 143/34/88
f 119/37/91 130/37/91 128/38/91 117/38/91
f 149/39/88 121/42/88 123/41/88 151/40/88
f 155/28/92 160/28/92 158/43/92 125/43/92
f 66/30/11 77/45/11 129/44/11 112/29/11
f 129/32/93 116/32/93 124/31/93 131/31/93
f 133/46/94 165/46/94 164/47/94 108/47/94
f 70/48/14 78/15/14 135/16/14 119/49/14
f 131/50/95 124/50/95 122/51/95 117/51/95
f 119/49/96 120/49/96 116/44/96 129/44/96
f 63/18/17 81/53/17 137/52/17 109/17/17
f 115/36/88 139/13/88 137/14/88 114/35/88
f 110/22/88 141/33/88 143/34/88 111/21/88
f 68/54/18 82/23/18 143/24/18 114/55/18
f 117/38/97 122/38/97 120/37/97 119/37/97
f 135/16/98 132/16/98 130/49/98 119/49/98
f 65/26/21 84/57/21 145/56/21 111/25/21
f 132/16/99 162/16/99 130/49/99
f 133/58/100 118/58/100 132/59/100 135/59/100
f 121/42/88 147/19/88 145/20/88 123/41/88
f 107/60/88 149/39/88 151/40/88 106/61/88
f 120/49/101 161/49/101 116/44/101
f 138/62/102 126/62/102 134/50/102
f 73/63/26 87/1/26 151/2/26 123/64/26
f 155/65/103 144/65/103 152/66/103 153/66/103
f 140/67/104 126/67/104 138/68/104
f 142/44/105 126/44/105 140/29/105
f 75/69/30 89/27/30 155/28/30 125/43/30
f 61/70/106 90/73/106 157/72/106 104/71/106
f 117/51/107 128/51/107 118/46/107 133/46/107
f 112/67/108 140/67/108 138/68/108 113/68/108
f 127/74/88 159/9/88 157/10/88 125/75/88
f 105/76/34 159/79/34 91/78/34 58/77/34
f 113/62/109 138/62/109 134/50/109 131/50/109
f 129/44/110 142/44/110 140/29/110 112/29/110
f 127/80/37 153/83/37 88/82/37 74/81/37
f 144/65/111 136/65/111 152/66/111
f 121/84/39 149/87/39 86/86/39 72/85/39
f 110/88/40 147/91/40 85/90/40 64/89/40
f 148/29/112 136/29/112 144/28/112
f 115/92/42 141/95/42 83/94/42 69/93/42
f 150/68/113 136/68/113 148/67/113
f 134/31/114 126/31/114 142/32/114
f 108/47/45 139/98/45 80/97/45 62/96/45
f 117/51/46 133/46/46 79/100/46 71/99/46
f 113/68/115 150/68/115 148/67/115 112/67/115
f 112/29/116 148/29/116 144/28/116 155/28/116
f 113/62/49 131/50/49 76/102/49 67/101/49
f 153/83/117 152/83/117 150/62/117 113/62/117
f 159/79/51 127/80/51 74/81/51 91/78/51
f 160/28/118 146/28/118 158/43/118
f 147/91/53 121/84/53 72/85/53 85/90/53
f 131/50/54 117/51/54 71/99/54 76/102/54
f 156/80/119 146/80/119 154/83/119
f 139/98/56 115/92/56 69/93/56 80/97/56
f 158/75/120 146/75/120 156/74/120
f 153/83/58 113/62/58 67/101/58 88/82/58
f 152/83/121 136/83/121 150/62/121
f 127/80/122 156/80/122 154/83/122 153/83/122
f 141/95/61 110/88/61 64/89/61 83/94/61
f 153/66/123 154/66/123 160/65/123 155/65/123
f 133/46/63 108/47/63 62/96/63 79/100/63
f 105/12/64 58/104/64 61/103/64 104/11/64
f 149/87/65 107/106/65 60/105/65 86/86/65
f 125/75/124 158/75/124 156/74/124 127/74/124
f 154/66/125 146/66/125 160/65/125
f 130/37/126 162/37/126 128/38/126
f 116/32/127 161/32/127 124/31/127
f 124/50/128 161/50/128 122/51/128
f 122/38/129 161/38/129 120/37/129
f 108/107/130 164/107/130 163/108/130 109/108/130
f 128/51/131 162/51/131 118/46/131
f 118/58/132 162/58/132 132/59/132
f 165/46/133 167/46/133 164/47/133
f 135/59/134 166/59/134 165/58/134 133/58/134
f 109/17/135 163/17/135 166/16/135 135/16/135
f 108/47/136 168/47/136 171/98/136 139/98/136
f 164/107/137 167/107/137 163/108/137
f 166/59/138 167/59/138 165/58/138
f 163/17/139 167/17/139 166/16/139
f 170/52/140 172/52/140 169/17/140
f 109/108/141 169/108/141 168/107/141 108/107/141
f 137/52/142 170/52/142 169/17/142 109/17/142
f 169/108/143 172/108/143 168/107/143
f 171/13/144 172/13/144 170/14/144
f 168/47/145 172/47/145 171/98/145
f 54/109/146 75/109/146 90/109/146
f 16/109/147 77/109/147 26/109/147
f 22/109/148 75/109/148 54/109/148
f 75/109/149 157/109/149 90/109/149
f 75/109/148 125/109/148 157/109/148
f 16/109/147 70/109/147 77/109/147
f 11/109/150 81/109/150 34/109/150
f 70/109/147 129/109/147 77/109/147
f 70/109/147 119/109/147 129/109/147
f 11/109/150 68/109/150 81/109/150
f 20/109/151 84/109/151 42/109/151
f 68/109/150 137/109/150 81/109/150
f 68/109/150 114/109/150 137/109/150
f 20/109/151 73/109/151 84/109/151
f 73/109/151 145/109/151 84/109/151
f 73/109/151 123/109/151 145/109/151
